<svg width="134" height="140" viewBox="0 0 134 140" fill="none" xmlns="http://www.w3.org/2000/svg">
<path d="M2.60948 101.633C17.596 117.626 44.1221 126.936 63.5698 124.071C83.0174 121.206 94.2242 115.373 106.361 103.554C94.3765 97.8449 82.9052 92.3792 70.9167 86.6697C84.1076 79.3501 96.084 77.2525 96.084 77.2525C99.6192 83.9169 104.605 92.6069 108.253 99.2074C108.441 99.551 108.742 99.8307 108.99 100.146C117.456 89.7462 126.863 73.7764 124.835 52.6686C124.273 46.8352 123.167 40.2827 120.534 33.7422C139.092 63.0607 133.765 83.0019 130.394 93.446C125.512 107.522 119.323 114.258 111.103 122.445C100.958 132.074 75.3377 145.475 45.2324 137.635C35.6448 135.138 25.7887 129.944 18.2053 122.892C10.5296 116.679 3.08645 103.099 2.60547 101.629L2.60948 101.633Z" fill="white"/>
<path d="M0.519531 40.626C15.1133 7.6797 43.1705 1.95024 49.7479 0.987344C61.8205 -0.778637 69.8689 -0.327153 82.2942 3.58038C104.315 10.4405 119.486 31.4485 121.887 41.1774C125.675 54.7379 123.967 68.2065 123.763 68.8937C117.963 40.1026 96.7357 19.6021 72.9352 13.2973C46.7017 7.54785 24.4162 15.4189 0.519531 40.626Z" fill="white"/>
<path d="M46.1358 24.1969C25.8063 29.7385 17.802 42.5079 13.7698 50.2671C8.25055 61.5062 8.65136 73.7562 12.2788 84.1004C14.1666 89.4783 18.4153 94.2248 18.4153 94.2248C16.0705 87.7922 14.6837 81.9469 14.6235 76.2734C16.1226 77.7277 18.1668 78.6227 20.4234 78.6227C22.1308 78.6227 24.1229 78.0074 25.4416 77.1284C25.4416 77.1284 25.5538 78.1832 25.654 78.8944C26.3795 84.1284 28.099 89.0388 30.56 93.7694C30.1392 90.4731 29.8065 80.5245 31.057 74.1438C32.5801 66.3647 43.306 51.3019 54.1201 49.2642C54.1201 49.2642 63.92 31.121 67.3029 23.4977C67.3029 23.4977 56.6171 21.3321 46.1438 24.1889L46.1358 24.1969ZM26.7362 64.9343C25.2091 63.1604 22.9485 62.0336 20.4234 62.0336C19.6778 62.0336 18.9564 62.1415 18.267 62.3253C19.6939 57.5068 22.6158 52.988 25.9386 49.2323C26.3354 52.2768 29.3576 55.0576 32.1633 55.9885C29.8826 58.6735 27.9748 61.5782 26.7362 64.9343ZM44.4002 45.7722C44.0355 44.7174 43.5465 43.7226 42.8371 42.8436C42.0354 41.4851 40.4362 40.0508 39.0654 39.2637C43.1577 36.1792 49.2982 33.9018 56.2123 33.738C55.2584 35.0565 54.3966 37.206 54.3605 38.948C54.3605 38.988 54.3565 39.0279 54.3525 39.0679C54.3525 39.0839 54.3525 39.0998 54.3525 39.1158C54.3525 39.1358 54.3525 39.1598 54.3525 39.1798C54.3445 39.5034 54.3525 39.839 54.3726 40.1746C54.3966 40.7659 54.4527 41.3413 54.5489 41.8847C50.7051 42.476 46.8252 44.3099 44.4002 45.7682V45.7722Z" fill="white"/>
<path d="M70.1427 17.8604C72.251 21.8638 88.428 54.1349 94.2278 65.6377C94.2278 65.6377 104.393 67.3877 115.158 74.0721C114.481 74.0721 113.8 74.0721 113.122 74.0721C98.3041 74.1201 83.9068 76.6052 70.0024 81.7034C53.8214 86.8775 32.1292 100.726 24.5898 106.743C24.9105 105.928 67.9382 22.6029 70.1427 17.8643V17.8604ZM56.8476 72.0664C59.1884 70.4882 70.5275 67.1201 81.5059 65.2342C78.0148 58.5459 74.4395 52.6606 70.5435 45.1971C65.9461 53.9911 61.1564 63.8238 56.8476 72.0664Z" fill="white"/>
</svg>
