<svg width="625" height="140" viewBox="0 0 625 140" fill="none" xmlns="http://www.w3.org/2000/svg">
<path d="M2.60948 101.633C17.596 117.627 44.1221 126.936 63.5698 124.071C83.0174 121.207 94.2242 115.373 106.361 103.555C94.3765 97.8454 82.9052 92.3797 70.9167 86.6702C84.1076 79.3506 96.084 77.253 96.084 77.253C99.6192 83.9173 104.605 92.6074 108.253 99.2079C108.441 99.5515 108.742 99.8311 108.99 100.147C117.456 89.7467 126.863 73.7769 124.835 52.6691C124.273 46.8357 123.167 40.2832 120.534 33.7427C139.092 63.0612 133.765 83.0024 130.394 93.4464C125.512 107.522 119.323 114.259 111.103 122.445C100.958 132.074 75.3377 145.475 45.2324 137.636C35.6448 135.139 25.7887 129.945 18.2053 122.893C10.5296 116.68 3.08645 103.099 2.60547 101.629L2.60948 101.633Z" fill="#A80000"/>
<path d="M0.519531 40.6265C15.1133 7.68018 43.1705 1.95073 49.7479 0.987833C61.8205 -0.778149 69.8689 -0.326665 82.2942 3.58087C104.315 10.441 119.486 31.449 121.887 41.1779C125.675 54.7384 123.967 68.207 123.763 68.8942C117.963 40.1031 96.7357 19.6026 72.9352 13.2978C46.7017 7.54833 24.4162 15.4193 0.519531 40.6265Z" fill="#80828F"/>
<path d="M46.1358 24.1974C25.8063 29.739 17.802 42.5084 13.7698 50.2676C8.25055 61.5067 8.65136 73.7567 12.2788 84.1009C14.1666 89.4788 18.4153 94.2253 18.4153 94.2253C16.0705 87.7927 14.6837 81.9474 14.6235 76.2738C16.1226 77.7282 18.1668 78.6232 20.4234 78.6232C22.1308 78.6232 24.1229 78.0079 25.4416 77.1289C25.4416 77.1289 25.5538 78.1837 25.654 78.8949C26.3795 84.1289 28.099 89.0393 30.56 93.7699C30.1392 90.4736 29.8065 80.525 31.057 74.1443C32.5801 66.3652 43.306 51.3024 54.1201 49.2647C54.1201 49.2647 63.92 31.1215 67.3029 23.4982C67.3029 23.4982 56.6171 21.3326 46.1438 24.1894L46.1358 24.1974ZM26.7362 64.9348C25.2091 63.1608 22.9485 62.0341 20.4234 62.0341C19.6778 62.0341 18.9564 62.142 18.267 62.3258C19.6939 57.5073 22.6158 52.9885 25.9386 49.2328C26.3354 52.2773 29.3576 55.0581 32.1633 55.989C29.8826 58.674 27.9748 61.5786 26.7362 64.9348ZM44.4002 45.7727C44.0355 44.7179 43.5465 43.723 42.8371 42.8441C42.0354 41.4856 40.4362 40.0512 39.0654 39.2641C43.1577 36.1797 49.2982 33.9023 56.2123 33.7385C55.2584 35.057 54.3966 37.2065 54.3605 38.9485C54.3605 38.9885 54.3565 39.0284 54.3525 39.0684C54.3525 39.0843 54.3525 39.1003 54.3525 39.1163C54.3525 39.1363 54.3525 39.1603 54.3525 39.1802C54.3445 39.5039 54.3525 39.8395 54.3726 40.1751C54.3966 40.7664 54.4527 41.3418 54.5489 41.8851C50.7051 42.4765 46.8252 44.3104 44.4002 45.7687V45.7727Z" fill="#80828F"/>
<path d="M70.1427 17.8608C72.251 21.8643 88.428 54.1354 94.2278 65.6382C94.2278 65.6382 104.393 67.3882 115.158 74.0726C114.481 74.0726 113.8 74.0726 113.122 74.0726C98.3041 74.1205 83.9068 76.6057 70.0024 81.7039C53.8214 86.878 32.1292 100.726 24.5898 106.743C24.9105 105.928 67.9382 22.6034 70.1427 17.8648V17.8608ZM56.8476 72.0669C59.1884 70.4887 70.5275 67.1205 81.5059 65.2347C78.0148 58.5463 74.4395 52.6611 70.5435 45.1976C65.9461 53.9915 61.1564 63.8243 56.8476 72.0669Z" fill="#A80000"/>
<path d="M322.918 46.6079H336.409V77.0491H344.911V46.6399H358.747V77.0931H367.2V46.6399H380.856V87.8248H322.922V46.6079H322.918Z" fill="#A80000"/>
<path d="M312.337 46.6279V77.1411H317.885C317.885 78.5355 317.885 79.7101 317.885 80.8848C317.885 85.3996 317.849 89.9105 317.905 94.4253C317.921 95.6759 317.592 96.2153 316.229 96.1793C313.027 96.0994 309.824 96.1114 306.622 96.1753C305.407 96.1993 304.958 95.7878 305.002 94.5691C305.075 92.4635 305.022 90.35 305.022 88.1125H281.274V95.9755H268.5V77.3408C273.17 77.4687 274.701 74.2204 275.19 70.4887C275.959 64.5834 276.356 58.6262 276.817 52.681C276.969 50.7113 276.841 48.7215 276.841 46.6279H312.337ZM285.787 77.0931H298.389V57.4396H288.906C288.497 64.1239 288.589 70.7244 285.787 77.0931Z" fill="#A80000"/>
<path d="M575.399 87.9127H561.731V67.1644C561.575 67.1285 561.419 67.0965 561.263 67.0605C558.954 70.5126 556.637 73.9606 554.332 77.4167C552.232 80.5651 550.172 83.7415 548.015 86.8539C547.663 87.3653 546.929 87.9127 546.36 87.9287C542.36 88.0206 538.36 87.9766 534.195 87.9766V46.6559H547.851V67.9475C548.561 66.9966 548.953 66.5212 549.294 66.0097C553.27 60.0366 557.262 54.0714 561.186 48.0662C561.904 46.9675 562.653 46.4361 564.048 46.4801C567.776 46.5919 571.511 46.516 575.391 46.516V87.9167L575.399 87.9127Z" fill="#A80000"/>
<path d="M402.3 46.6758V67.3561C402.428 67.3961 402.561 67.436 402.693 67.472C403.058 66.9646 403.434 66.4612 403.779 65.9417C407.799 59.9206 411.84 53.9115 415.804 47.8544C416.473 46.8356 417.178 46.46 418.385 46.484C422.112 46.5559 425.844 46.512 429.76 46.512V87.8367H416.216V67.0964C416.076 67.0565 415.932 67.0165 415.788 66.9766C415.022 68.0993 414.244 69.21 413.491 70.3447C409.888 75.7665 406.264 81.1723 402.713 86.6301C402.052 87.645 401.33 88.0325 400.124 88.0125C396.34 87.9406 392.552 87.9886 388.656 87.9886V46.6838H402.296L402.3 46.6758Z" fill="#A80000"/>
<path d="M244.663 89.0394C234.214 88.7278 226.386 85.5155 222.057 76.7455C215.308 63.0851 224.374 47.3311 239.637 45.7609C246.884 45.0137 253.674 46.1085 259.401 50.8671C265.935 56.2969 268.147 63.4487 266.584 71.6153C264.973 80.0257 259.546 85.2717 251.473 87.7889C248.956 88.572 246.255 88.7598 244.663 89.0394ZM252.864 67.2563C252.856 63.7324 251.594 60.6998 249.389 58.9219C244.635 55.0902 237.922 56.5326 235.176 61.9784C233.06 66.1776 233.865 72.0109 237 75.1433C239.501 77.6445 243.649 78.4236 247.012 77.0292C250.756 75.4749 252.876 71.935 252.868 67.2603L252.864 67.2563Z" fill="#A80000"/>
<path d="M499.392 72.8498V87.8686H485.512V46.6837H499.364V61.1032H512.37V46.6357H526.323V87.8566H512.499V72.8458H499.392V72.8498Z" fill="#A80000"/>
<path d="M214.595 87.8968H201.011V57.3917H188.229V87.8049H174.457V46.6919H214.595V87.8968Z" fill="#A80000"/>
<path d="M477.816 46.688V87.817H464.192V57.3957H451.31V87.8729H437.59V46.688H477.816Z" fill="#A80000"/>
<path d="M596.683 73.3132V87.8486H582.871V46.6317H596.671V61.6625C600.166 62.6414 600.884 62.3537 602.475 59.5729C604.684 55.7173 606.948 51.8897 609.093 48.0021C609.678 46.9433 610.295 46.4559 611.558 46.4798C615.746 46.5558 619.935 46.5078 624.524 46.5078C622.392 49.9998 620.44 53.2042 618.476 56.4045C616.672 59.3451 614.896 62.3098 613.025 65.2064C612.367 66.2253 612.323 66.9844 612.964 68.0712C616.476 74.0124 619.895 80.0095 623.342 85.9907C623.662 86.55 623.951 87.1254 624.396 87.9644C619.217 87.9644 614.307 88.0044 609.401 87.9005C608.904 87.8885 608.275 87.0974 607.962 86.5261C605.922 82.8023 603.942 79.0426 601.966 75.2829C600.583 72.6459 600.106 72.4382 596.683 73.3052V73.3132Z" fill="#A80000"/>
</svg>
