<svg width="625" height="140" viewBox="0 0 625 140" fill="none" xmlns="http://www.w3.org/2000/svg">
<path d="M2.60948 101.633C17.596 117.626 44.1221 126.936 63.5698 124.071C83.0174 121.206 94.2242 115.373 106.361 103.554C94.3765 97.8449 82.9052 92.3792 70.9167 86.6697C84.1076 79.3501 96.084 77.2525 96.084 77.2525C99.6192 83.9169 104.605 92.6069 108.253 99.2074C108.441 99.551 108.742 99.8307 108.99 100.146C117.456 89.7462 126.863 73.7764 124.835 52.6686C124.273 46.8352 123.167 40.2827 120.534 33.7422C139.092 63.0607 133.765 83.0019 130.394 93.446C125.512 107.522 119.323 114.258 111.103 122.445C100.958 132.074 75.3377 145.475 45.2324 137.635C35.6448 135.138 25.7887 129.944 18.2053 122.892C10.5296 116.679 3.08645 103.099 2.60547 101.629L2.60948 101.633Z" fill="white"/>
<path d="M0.519531 40.626C15.1133 7.6797 43.1705 1.95024 49.7479 0.987344C61.8205 -0.778637 69.8689 -0.327153 82.2942 3.58038C104.315 10.4405 119.486 31.4485 121.887 41.1774C125.675 54.7379 123.967 68.2065 123.763 68.8937C117.963 40.1026 96.7357 19.6021 72.9352 13.2973C46.7017 7.54785 24.4162 15.4189 0.519531 40.626Z" fill="white"/>
<path d="M46.1358 24.1969C25.8063 29.7385 17.802 42.5079 13.7698 50.2671C8.25055 61.5062 8.65136 73.7562 12.2788 84.1004C14.1666 89.4783 18.4153 94.2248 18.4153 94.2248C16.0705 87.7922 14.6837 81.9469 14.6235 76.2734C16.1226 77.7277 18.1668 78.6227 20.4234 78.6227C22.1308 78.6227 24.1229 78.0074 25.4416 77.1284C25.4416 77.1284 25.5538 78.1832 25.654 78.8944C26.3795 84.1284 28.099 89.0388 30.56 93.7694C30.1392 90.4731 29.8065 80.5245 31.057 74.1438C32.5801 66.3647 43.306 51.3019 54.1201 49.2642C54.1201 49.2642 63.92 31.121 67.3029 23.4977C67.3029 23.4977 56.6171 21.3321 46.1438 24.1889L46.1358 24.1969ZM26.7362 64.9343C25.2091 63.1604 22.9485 62.0336 20.4234 62.0336C19.6778 62.0336 18.9564 62.1415 18.267 62.3253C19.6939 57.5068 22.6158 52.988 25.9386 49.2323C26.3354 52.2768 29.3576 55.0576 32.1633 55.9885C29.8826 58.6735 27.9748 61.5782 26.7362 64.9343ZM44.4002 45.7722C44.0355 44.7174 43.5465 43.7226 42.8371 42.8436C42.0354 41.4851 40.4362 40.0508 39.0654 39.2637C43.1577 36.1792 49.2982 33.9018 56.2123 33.738C55.2584 35.0565 54.3966 37.206 54.3605 38.948C54.3605 38.988 54.3565 39.0279 54.3525 39.0679C54.3525 39.0839 54.3525 39.0998 54.3525 39.1158C54.3525 39.1358 54.3525 39.1598 54.3525 39.1798C54.3445 39.5034 54.3525 39.839 54.3726 40.1746C54.3966 40.7659 54.4527 41.3413 54.5489 41.8847C50.7051 42.476 46.8252 44.3099 44.4002 45.7682V45.7722Z" fill="white"/>
<path d="M70.1427 17.8604C72.251 21.8638 88.428 54.1349 94.2278 65.6377C94.2278 65.6377 104.393 67.3877 115.158 74.0721C114.481 74.0721 113.8 74.0721 113.122 74.0721C98.3041 74.1201 83.9068 76.6052 70.0024 81.7034C53.8214 86.8775 32.1292 100.726 24.5898 106.743C24.9105 105.928 67.9382 22.6029 70.1427 17.8643V17.8604ZM56.8476 72.0664C59.1884 70.4882 70.5275 67.1201 81.5059 65.2342C78.0148 58.5459 74.4395 52.6606 70.5435 45.1971C65.9461 53.9911 61.1564 63.8238 56.8476 72.0664Z" fill="white"/>
<path d="M322.918 46.6074H336.409V77.0486H344.911V46.6394H358.747V77.0926H367.2V46.6394H380.856V87.8243H322.922V46.6074H322.918Z" fill="white"/>
<path d="M312.337 46.6274V77.1406H317.885C317.885 78.535 317.885 79.7096 317.885 80.8843C317.885 85.3991 317.849 89.91 317.905 94.4248C317.921 95.6754 317.592 96.2148 316.229 96.1788C313.027 96.0989 309.824 96.1109 306.622 96.1748C305.407 96.1988 304.958 95.7873 305.002 94.5687C305.075 92.4631 305.022 90.3495 305.022 88.112H281.274V95.975H268.5V77.3403C273.17 77.4682 274.701 74.2199 275.19 70.4882C275.959 64.5829 276.356 58.6257 276.817 52.6805C276.969 50.7108 276.841 48.721 276.841 46.6274H312.337ZM285.787 77.0926H298.389V57.4391H288.906C288.497 64.1234 288.589 70.7239 285.787 77.0926Z" fill="white"/>
<path d="M575.399 87.9122H561.731V67.1639C561.575 67.128 561.419 67.096 561.263 67.06C558.954 70.5121 556.637 73.9602 554.332 77.4162C552.232 80.5646 550.172 83.741 548.015 86.8534C547.663 87.3648 546.929 87.9122 546.36 87.9282C542.36 88.0201 538.36 87.9761 534.195 87.9761V46.6554H547.851V67.947C548.561 66.9961 548.953 66.5207 549.294 66.0093C553.27 60.0361 557.262 54.0709 561.186 48.0658C561.904 46.967 562.653 46.4356 564.048 46.4796C567.776 46.5914 571.511 46.5155 575.391 46.5155V87.9162L575.399 87.9122Z" fill="white"/>
<path d="M402.3 46.6753V67.3556C402.428 67.3956 402.561 67.4356 402.693 67.4715C403.058 66.9641 403.434 66.4607 403.779 65.9413C407.799 59.9201 411.84 53.911 415.804 47.8539C416.473 46.8351 417.178 46.4595 418.385 46.4835C422.112 46.5554 425.844 46.5115 429.76 46.5115V87.8362H416.216V67.0959C416.076 67.056 415.932 67.016 415.788 66.9761C415.022 68.0988 414.244 69.2095 413.491 70.3442C409.888 75.766 406.264 81.1719 402.713 86.6296C402.052 87.6445 401.33 88.032 400.124 88.012C396.34 87.9401 392.552 87.9881 388.656 87.9881V46.6833H402.296L402.3 46.6753Z" fill="white"/>
<path d="M244.663 89.0389C234.214 88.7273 226.386 85.515 222.057 76.745C215.308 63.0846 224.374 47.3306 239.637 45.7604C246.884 45.0133 253.674 46.108 259.401 50.8666C265.935 56.2964 268.147 63.4482 266.584 71.6149C264.973 80.0252 259.546 85.2712 251.473 87.7884C248.956 88.5715 246.255 88.7593 244.663 89.0389ZM252.864 67.2558C252.856 63.7319 251.594 60.6993 249.389 58.9214C244.635 55.0897 237.922 56.5321 235.176 61.9779C233.06 66.1771 233.865 72.0104 237 75.1428C239.501 77.644 243.649 78.4231 247.012 77.0287C250.756 75.4744 252.876 71.9345 252.868 67.2598L252.864 67.2558Z" fill="white"/>
<path d="M499.392 72.8493V87.8681H485.512V46.6832H499.364V61.1027H512.37V46.6353H526.323V87.8561H512.499V72.8453H499.392V72.8493Z" fill="white"/>
<path d="M214.595 87.8963H201.011V57.3912H188.229V87.8044H174.457V46.6914H214.595V87.8963Z" fill="white"/>
<path d="M477.816 46.6875V87.8165H464.192V57.3953H451.31V87.8724H437.59V46.6875H477.816Z" fill="white"/>
<path d="M596.683 73.3127V87.8481H582.871V46.6312H596.671V61.662C600.166 62.6409 600.884 62.3532 602.475 59.5724C604.684 55.7168 606.948 51.8892 609.093 48.0016C609.678 46.9428 610.295 46.4554 611.558 46.4794C615.746 46.5553 619.935 46.5073 624.524 46.5073C622.392 49.9993 620.44 53.2037 618.476 56.404C616.672 59.3447 614.896 62.3093 613.025 65.206C612.367 66.2248 612.323 66.9839 612.964 68.0707C616.476 74.0119 619.895 80.009 623.342 85.9902C623.662 86.5496 623.951 87.1249 624.396 87.9639C619.217 87.9639 614.307 88.0039 609.401 87.9C608.904 87.888 608.275 87.0969 607.962 86.5256C605.922 82.8018 603.942 79.0421 601.966 75.2824C600.583 72.6455 600.106 72.4377 596.683 73.3047V73.3127Z" fill="white"/>
</svg>
