<svg xmlns="http://www.w3.org/2000/svg" fill="none" viewBox="0 0 15 18"><path fill="currentColor" d="M13.665 3.598h-2.4V1.626a.769.769 0 0 0-.768-.769H4.652a.769.769 0 0 0-.768.769v1.972h-2.4a.769.769 0 0 0 0 1.538h.094v12.095a.77.77 0 0 0 .77.769h10.454a.769.769 0 0 0 .769-.769V5.136h.094a.769.769 0 0 0 0-1.538ZM9.728 2.395v1.203H5.42V2.395h4.307Zm2.305 14.067H3.116V5.136h8.917v11.326Z"/><path fill="currentColor" d="M5.165 14.718a.769.769 0 0 0 .77-.769V8.37a.769.769 0 0 0-1.539 0v5.58a.77.77 0 0 0 .77.769Zm2.41 0a.769.769 0 0 0 .768-.769V8.37a.769.769 0 0 0-1.537 0v5.58c0 .425.344.769.769.769Zm2.409 0a.769.769 0 0 0 .769-.769V8.37a.769.769 0 0 0-1.538 0v5.58c0 .425.344.769.769.769Z"/></svg>