<svg width="28" height="20" viewBox="0 0 28 20" fill="none" xmlns="http://www.w3.org/2000/svg">
<path fill-rule="evenodd" clip-rule="evenodd" d="M8.14775 0.117545C8.69661 0.391974 8.91908 1.05938 8.64465 1.60824L6.90899 5.07956H21.091L19.3553 1.60824C19.0809 1.05938 19.3034 0.391974 19.8522 0.117545C20.4011 -0.156884 21.0685 0.0655848 21.3429 0.614443L23.5755 5.07956H24.1409C24.1517 5.0794 24.1625 5.0794 24.1733 5.07956H26.6982C27.3119 5.07956 27.8093 5.57701 27.8093 6.19065C27.8093 6.8043 27.3119 7.30175 26.6982 7.30175H25.1532L24.1048 16.7524C23.8992 18.6013 22.3363 20.0002 20.476 20H7.52378C5.66417 19.9993 4.10183 18.6009 3.89634 16.7527L2.84675 7.30175H1.30171C0.688068 7.30175 0.190613 6.8043 0.190613 6.19065C0.190613 5.57701 0.688068 5.07956 1.30171 5.07956H3.82645C3.83728 5.0794 3.84808 5.0794 3.85885 5.07956H4.4245L6.65706 0.614443C6.93148 0.0655848 7.59889 -0.156884 8.14775 0.117545ZM5.08261 7.30175L6.10493 16.5071C6.18538 17.2301 6.79634 17.7773 7.52378 17.7778H20.476C21.2039 17.7779 21.8155 17.2307 21.8961 16.5074L22.9173 7.30175H22.9125C22.8972 7.30207 22.882 7.30207 22.8667 7.30175H5.13323C5.11799 7.30207 5.10273 7.30207 5.08745 7.30175H5.08261ZM10.1905 10.1589C10.8041 10.1589 11.3016 10.6563 11.3016 11.27V13.8096C11.3016 14.4233 10.8041 14.9207 10.1905 14.9207C9.57682 14.9207 9.07937 14.4233 9.07937 13.8096V11.27C9.07937 10.6563 9.57682 10.1589 10.1905 10.1589ZM13.9999 10.1589C14.6136 10.1589 15.111 10.6563 15.111 11.27V13.8096C15.111 14.4233 14.6136 14.9207 13.9999 14.9207C13.3863 14.9207 12.8888 14.4233 12.8888 13.8096V11.27C12.8888 10.6563 13.3863 10.1589 13.9999 10.1589ZM17.8094 10.1589C18.423 10.1589 18.9205 10.6563 18.9205 11.27V13.8096C18.9205 14.4233 18.423 14.9207 17.8094 14.9207C17.1958 14.9207 16.6983 14.4233 16.6983 13.8096V11.27C16.6983 10.6563 17.1958 10.1589 17.8094 10.1589Z" fill="white"/>
</svg>
