<svg width="14" height="15" viewBox="0 0 14 15" fill="none" xmlns="http://www.w3.org/2000/svg">
<path d="M4.33333 4.7V1.5M9.33333 4.7V1.5M4.33333 8.7L6 10.3L9.33333 7.1M1 7.1V9.5C1 11.7091 2.86548 13.5 5.16667 13.5H8.5C9.60507 13.5 10.6649 13.0786 11.4463 12.3284C12.2277 11.5783 12.6667 10.5609 12.6667 9.5V7.1C12.6678 6.03881 12.2291 5.02078 11.4475 4.2704C10.6659 3.52002 9.60541 3.09894 8.5 3.1H5.16667C4.06126 3.09894 3.00081 3.52002 2.21917 4.2704C1.43753 5.02078 0.998895 6.03881 1 7.1Z" stroke="currentColor" stroke-width="1.5" stroke-linecap="round" stroke-linejoin="round"/>
</svg>
