<svg width="39" height="30" viewBox="0 0 39 30" fill="none" xmlns="http://www.w3.org/2000/svg">
<path d="M38.7774 16.1432L32.4046 9.72447C32.2615 9.58038 32.0675 9.49966 31.8651 9.49966H25.5938V2.60204C25.5938 1.16739 24.4318 0 23.0039 0H2.58984C1.16192 0 0 1.16739 0 2.60204V23.1122C0 24.5469 1.16192 25.7143 2.58984 25.7143H3.37358C3.35543 25.865 3.34502 26.018 3.34502 26.1735C3.34502 27.0341 3.62977 27.8293 4.10882 28.4694H0.761719C0.340988 28.4694 0 28.812 0 29.2347C0 29.6574 0.340988 30 0.761719 30H13.2477C15.3477 30 17.0563 28.2834 17.0563 26.1735C17.0563 26.018 17.0458 25.865 17.0277 25.7143H28.6689C28.651 25.865 28.6406 26.018 28.6406 26.1735C28.6406 27.0341 28.9251 27.8293 29.4044 28.4694H24.6035C24.1828 28.4694 23.8418 28.812 23.8418 29.2347C23.8418 29.6574 24.1828 30 24.6035 30H32.4492C34.5493 30 36.2578 28.2834 36.2578 26.1735C36.2578 26.018 36.2474 25.865 36.2295 25.7143H38.2383C38.659 25.7143 39 25.3717 39 24.949V16.6837C39 16.481 38.92 16.2867 38.7774 16.1432ZM37.4766 18.6735H32.3079L35.727 15.238L37.4766 17.0003V18.6735ZM29.707 17.9082V16.3375L33.2672 12.7606L34.6511 14.1543L30.2021 18.6241C29.9135 18.5153 29.707 18.2358 29.707 17.9082ZM32.1912 11.6769L29.707 14.1728V11.0303H31.5491L32.1912 11.6769ZM15.8357 1.53061V6.85128L15.2359 6.2486C14.9383 5.94966 14.456 5.94966 14.1584 6.2486L12.7969 7.61659L11.4353 6.2486C11.2865 6.09913 11.0916 6.02439 10.8967 6.02439C10.7016 6.02439 10.5067 6.09913 10.3579 6.2486L9.75803 6.85128V1.53061H15.8357ZM4.86875 26.1735C4.86875 24.9074 5.8938 23.8776 7.15391 23.8776C8.41402 23.8776 9.43906 24.9074 9.43906 26.1735C9.43906 27.4395 8.41402 28.4694 7.15391 28.4694C5.8938 28.4694 4.86875 27.4395 4.86875 26.1735ZM10.2008 28.4667C10.2014 28.4676 10.202 28.4685 10.2029 28.4694H10.1987C10.1993 28.4685 10.1999 28.4676 10.2008 28.4667ZM13.2477 28.4694C11.9875 28.4694 10.9625 27.4395 10.9625 26.1735C10.9625 24.9074 11.9875 23.8776 13.2477 23.8776C14.5078 23.8776 15.5328 24.9074 15.5328 26.1735C15.5328 27.4395 14.5075 28.4694 13.2477 28.4694ZM21.709 24.1837H16.4995C15.8298 23.0829 14.6226 22.3469 13.2474 22.3469C12.003 22.3469 10.8961 22.9499 10.2005 23.8802C9.50512 22.9499 8.39825 22.3469 7.15361 22.3469C5.77865 22.3469 4.5715 23.0829 3.90173 24.1837H2.58984C2.00189 24.1837 1.52344 23.703 1.52344 23.1122V2.60204C1.52344 2.01132 2.00189 1.53061 2.58984 1.53061H8.2346V8.69908C8.2346 9.00849 8.42027 9.28771 8.70472 9.40609C8.98947 9.52447 9.31707 9.459 9.53487 9.24017L10.8964 7.87219L12.2583 9.24017C12.5556 9.53912 13.0379 9.53912 13.3354 9.24017L14.697 7.87219L16.0589 9.24017C16.2047 9.38666 16.3993 9.46439 16.5977 9.46439C16.6956 9.46439 16.7947 9.44525 16.889 9.40609C17.1735 9.28771 17.3592 9.00849 17.3592 8.69908V1.53061H23.0039C23.5919 1.53061 24.0703 2.01132 24.0703 2.60204V23.1122C24.0703 23.703 23.5919 24.1837 23.0039 24.1837H21.709ZM32.4492 28.4694C31.1891 28.4694 30.1641 27.4395 30.1641 26.1735C30.1641 26.0108 30.1813 25.8524 30.2135 25.699C30.5619 25.6288 30.8243 25.3197 30.8243 24.949C30.8243 24.8363 30.7993 24.7299 30.7559 24.6336C31.1742 24.1693 31.7785 23.8776 32.4492 23.8776C33.1113 23.8776 33.7081 24.1621 34.1259 24.6157C34.0771 24.7164 34.0488 24.8294 34.0488 24.949C34.0488 25.3289 34.3247 25.6434 34.6859 25.7032C34.7177 25.8551 34.7344 26.0123 34.7344 26.1735C34.7344 27.4395 33.7093 28.4694 32.4492 28.4694ZM35.7011 24.1837C35.0316 23.0829 33.8245 22.3469 32.4492 22.3469C31.074 22.3469 29.8668 23.0829 29.1973 24.1837H25.3632C25.5107 23.8566 25.5938 23.494 25.5938 23.1122V11.0303H28.1836V17.9082C28.1836 19.1742 29.2086 20.2041 30.4688 20.2041H37.4766V24.1837H35.7011Z" fill="white"/>
<path d="M21.1737 14.6938H14.7148C14.2941 14.6938 13.9531 15.0364 13.9531 15.4592C13.9531 15.8819 14.2941 16.2245 14.7148 16.2245H21.1737C21.5944 16.2245 21.9354 15.8819 21.9354 15.4592C21.9354 15.0364 21.5944 14.6938 21.1737 14.6938Z" fill="white"/>
<path d="M21.1757 17.6531H12.2285C11.8078 17.6531 11.4668 17.9957 11.4668 18.4184C11.4668 18.8412 11.8078 19.1837 12.2285 19.1837H21.1757C21.5965 19.1837 21.9375 18.8412 21.9375 18.4184C21.9375 17.9957 21.5965 17.6531 21.1757 17.6531Z" fill="white"/>
<path d="M9.18164 17.6534C8.98139 17.6534 8.78471 17.7345 8.64308 17.8768C8.50145 18.02 8.41992 18.2167 8.41992 18.4187C8.41992 18.6199 8.50145 18.8172 8.64308 18.9595C8.78471 19.1021 8.98139 19.1841 9.18164 19.1841C9.38219 19.1841 9.57857 19.1021 9.7202 18.9595C9.86183 18.8166 9.94336 18.6199 9.94336 18.4187C9.94336 18.2173 9.86183 18.02 9.7202 17.8768C9.57857 17.7345 9.38219 17.6534 9.18164 17.6534Z" fill="white"/>
<path d="M21.4043 28.4693C21.204 28.4693 21.0074 28.5512 20.8657 28.6935C20.7241 28.8358 20.6426 29.0334 20.6426 29.2346C20.6426 29.4358 20.7241 29.6334 20.8657 29.7757C21.0074 29.918 21.204 29.9999 21.4043 29.9999C21.6045 29.9999 21.8012 29.918 21.9429 29.7757C22.0845 29.6334 22.166 29.4358 22.166 29.2346C22.166 29.0334 22.0845 28.8358 21.9429 28.6935C21.8012 28.5512 21.6045 28.4693 21.4043 28.4693Z" fill="white"/>
</svg>
