<svg width="13" height="12" viewBox="0 0 13 12" fill="none" xmlns="http://www.w3.org/2000/svg">
<path d="M4.68895 0H2.0478C1.19177 0 0.497559 0.694215 0.497559 1.55024V4.18617C0.497559 5.04219 1.19177 5.73641 2.0478 5.73641H4.68373C5.53975 5.73641 6.23397 5.04219 6.23397 4.18617V1.55024C6.23919 0.694215 5.54497 0 4.68895 0Z" fill="white"/>
<path d="M10.9523 0H8.31635C7.46033 0 6.76611 0.694215 6.76611 1.55024V4.18617C6.76611 5.04219 7.46033 5.73641 8.31635 5.73641H10.9523C11.8083 5.73641 12.5025 5.04219 12.5025 4.18617V1.55024C12.5025 0.694215 11.8083 0 10.9523 0Z" fill="white"/>
<path d="M4.68895 6.26358H2.0478C1.19177 6.26358 0.497559 6.95779 0.497559 7.81382V10.4497C0.497559 11.3058 1.19177 12 2.0478 12H4.68373C5.53975 12 6.23397 11.3058 6.23397 10.4497V7.81382C6.23919 6.95779 5.54497 6.26358 4.68895 6.26358Z" fill="white"/>
<path d="M10.9523 6.26358H8.31635C7.46033 6.26358 6.76611 6.95779 6.76611 7.81382V10.4497C6.76611 11.3058 7.46033 12 8.31635 12H10.9523C11.8083 12 12.5025 11.3058 12.5025 10.4497V7.81382C12.5025 6.95779 11.8083 6.26358 10.9523 6.26358Z" fill="white"/>
</svg>
