<svg width="22" height="24" viewBox="0 0 22 24" fill="none" xmlns="http://www.w3.org/2000/svg">
<path d="M8.1733 8.76714C8.17697 8.14913 7.71643 7.64472 7.1442 7.64H3.02912C2.4569 7.64472 1.99636 8.14913 2.00002 8.76714V20.8729C1.99636 21.4909 2.4569 21.9953 3.02912 22H19.4894C20.0617 21.9953 20.5222 21.4909 20.5185 20.8729V6.51143C20.5222 5.89397 20.0625 5.38979 19.4908 5.38429H15.3757C14.8035 5.389 14.3429 5.89342 14.3466 6.51143V3.12714C14.3502 2.50913 13.8897 2.00472 13.3175 2H9.20108C8.62937 2.0055 8.16963 2.50969 8.1733 3.12714V8.76714ZM8.1733 8.76714L8.17328 21.9999M14.3451 21.9999V6.51137" stroke="currentColor" stroke-width="2.5" stroke-linecap="round" stroke-linejoin="round"/>
</svg>
