<svg width="34" height="30" viewBox="0 0 34 30" fill="none" xmlns="http://www.w3.org/2000/svg">
<path d="M7.98641 25.4024C7.36671 25.4024 6.85969 25.9084 6.85969 26.527C6.85969 27.1455 7.36671 27.6515 7.98641 27.6515C8.60612 27.6515 9.11313 27.1455 9.11313 26.5269C9.11313 25.9084 8.60605 25.4024 7.98641 25.4024Z" fill="white"/>
<path d="M7.98639 23.1532C6.12734 23.1532 4.60629 24.6713 4.60629 26.5269C4.60629 28.3825 6.12734 29.9006 7.98639 29.9006C9.84544 29.9006 11.3665 28.3825 11.3665 26.5269C11.3665 24.6713 9.84544 23.1532 7.98639 23.1532ZM7.98639 28.7761C6.74704 28.7761 5.73302 27.764 5.73302 26.527C5.73302 25.2899 6.74704 24.2778 7.98639 24.2778C9.22574 24.2778 10.2398 25.2899 10.2398 26.527C10.2398 27.764 9.22574 28.7761 7.98639 28.7761Z" fill="white"/>
<path d="M29.957 25.4024C29.3373 25.4024 28.8303 25.9084 28.8303 26.527C28.8303 27.1455 29.3373 27.6515 29.957 27.6515C30.5767 27.6515 31.0838 27.1455 31.0838 26.5269C31.0838 25.9084 30.5767 25.4024 29.957 25.4024Z" fill="white"/>
<path d="M29.957 23.1532C28.098 23.1532 26.5769 24.6713 26.5769 26.5269C26.5769 28.3825 28.098 29.9006 29.957 29.9006C31.8161 29.9006 33.3371 28.3825 33.3371 26.5269C33.3371 24.6713 31.8161 23.1532 29.957 23.1532ZM29.957 28.7761C28.7177 28.7761 27.7036 27.764 27.7036 26.527C27.7036 25.2899 28.7177 24.2778 29.957 24.2778C31.1964 24.2778 32.2104 25.2899 32.2104 26.527C32.2104 27.764 31.1964 28.7761 29.957 28.7761Z" fill="white"/>
<path d="M32.9427 20.7353C32.0977 19.7794 30.802 19.2172 29.3936 19.2172H29.2809C28.7739 17.5303 27.5909 16.1808 26.0135 15.4498V12.2448L26.3516 12.4135C26.4079 12.4697 26.4642 12.4697 26.5769 12.4697H27.7036C28.0416 12.4697 28.2669 12.2448 28.2669 11.9074V8.53367C28.2669 8.19629 28.0416 7.9714 27.7036 7.9714H26.5769C26.4642 7.9714 26.4079 7.9714 26.3516 8.02761L25.2248 8.58988C24.9995 8.70236 24.8868 8.87104 24.8868 9.09594H19.8167C19.4787 9.09594 19.2534 9.32083 19.2534 9.65821H16.4366V8.2525C16.4366 7.32222 15.9429 6.51542 15.2009 6.07585C15.9543 5.45579 16.4366 4.51793 16.4366 3.47306C16.4366 1.6175 14.9155 0.0993136 13.0565 0.0993136C11.1974 0.0993136 9.67639 1.6175 9.67639 3.47306C9.67639 4.63871 10.2768 5.67093 11.1841 6.27761C10.6072 6.73992 10.2398 7.45025 10.2398 8.25257V16.6869C10.2398 17.2087 10.3953 17.6915 10.6625 18.0926H9.11313V10.7828C9.11313 10.4454 8.88781 10.2205 8.54981 10.2205H0.662828C0.324818 10.2205 0.0995006 10.4454 0.0995006 10.7828V18.6549C0.0995006 18.9923 0.324818 19.2172 0.662828 19.2172H0.967498C0.774265 19.5485 0.662828 19.9327 0.662828 20.3418V21.0165C0.662828 21.5226 0.888145 21.9162 1.28253 22.2535C1.78955 22.5347 1.90224 23.1532 1.62054 23.6592L0.944524 24.84C0.719207 25.1212 0.606515 25.5711 0.719207 25.9646C0.77552 26.3582 1.05722 26.7519 1.45154 26.9206C1.62054 27.033 1.84586 27.0893 2.07124 27.0893H3.4796C3.81761 27.0893 4.04292 26.8644 4.04292 26.527C4.04292 24.3341 5.78928 22.591 7.98635 22.591C10.1834 22.591 11.9298 24.3341 11.9298 26.527C11.9298 26.8644 12.1551 27.0893 12.4931 27.0893H25.4502C25.7882 27.0893 26.0135 26.8644 26.0135 26.527C26.0135 24.3341 27.7599 22.591 29.957 22.591C31.816 22.591 32.323 22.9283 32.9427 23.5469C33.1117 23.7156 33.3371 23.7718 33.5624 23.6594C33.7878 23.6032 33.9005 23.3782 33.9005 23.1533C33.9005 22.2535 33.5624 21.4663 32.9427 20.7353ZM26.0135 9.43331L26.6896 9.09594H27.1403V11.3451H26.6896L26.0135 11.0077V9.43331ZM21.9443 23.7155L19.535 16.1808C19.3097 15.2812 18.4647 14.7188 17.5633 14.7188H15.3099V13.0319H19.2534C19.2534 13.3693 19.4787 13.5942 19.8167 13.5942H22.6334V23.7154L21.9443 23.7155ZM13.0566 1.22385C14.2959 1.22385 15.3099 2.23597 15.3099 3.47299C15.3099 4.71001 14.2959 5.7222 13.0566 5.7222C11.8172 5.7222 10.8032 4.71007 10.8032 3.47306C10.8032 2.23604 11.8171 1.22385 13.0566 1.22385ZM11.3665 16.6869V8.2525C11.3665 7.46527 11.9862 6.8468 12.7749 6.8468H13.9016C14.6903 6.8468 15.3099 7.46534 15.3099 8.2525V10.2205C15.3099 10.5579 15.5352 10.7828 15.8733 10.7828H19.8167C19.8377 10.7828 19.8587 10.7837 19.8797 10.7856L19.8829 10.786C20.0289 10.7996 20.1695 10.8612 20.2674 11.0077C20.3597 11.0998 20.3761 11.2298 20.3791 11.3666C20.3775 11.422 20.3702 11.4746 20.3568 11.5231C20.2682 11.7242 20.0146 11.9074 19.7604 11.9074H14.7465C14.4085 11.9074 14.1832 11.6825 14.1832 11.3451V9.65827C14.1832 9.3209 13.9579 9.096 13.6199 9.096C13.2819 9.096 13.0566 9.3209 13.0566 9.65827V11.3451C13.0566 12.1023 13.5162 12.7179 14.1833 12.9413V15.2812C14.1833 15.6185 14.4086 15.8434 14.7466 15.8434H17.5634C18.0141 15.8434 18.3521 16.1246 18.4647 16.5182L20.7181 23.7155H19.0843L17.5633 18.4862C17.4506 18.2613 17.2253 18.0926 17 18.0926H12.7749C11.9861 18.0926 11.3665 17.4741 11.3665 16.6869ZM15.4789 22.7034C15.7606 21.9162 15.8733 21.129 15.8733 20.3418C15.8733 19.9546 15.7664 19.5676 15.5528 19.2172H16.6056L17.914 23.7155H15.0282L15.4789 22.7034ZM5.16964 11.3451V12.4697H4.04292V11.3451H5.16964ZM1.22622 11.3451H2.91627V13.0319C2.91627 13.3693 3.14159 13.5942 3.4796 13.5942H5.73297C6.07098 13.5942 6.2963 13.3693 6.2963 13.0319V11.3451H7.98635V18.0926H1.22615L1.22622 11.3451ZM29.9007 21.4663C27.3093 21.4663 25.1685 23.4343 24.8868 25.9646H13.0002C12.7185 23.4343 10.5214 21.4663 7.93003 21.4663C5.33865 21.4663 3.1979 23.4343 2.91627 25.9646H2.07124C2.01493 25.9646 2.01493 25.9646 1.95855 25.9646C1.84586 25.9084 1.78955 25.796 1.78955 25.7398C1.78955 25.6835 1.78955 25.5711 1.84586 25.4586L1.90217 25.4024L2.63457 24.1653C3.25428 23.1532 2.91627 21.8599 1.95855 21.2414C1.90224 21.1852 1.78955 21.1289 1.78955 21.0165V20.3418C1.78955 19.7232 2.29656 19.2172 2.91627 19.2172H13.6199C13.9016 19.2172 14.1832 19.3296 14.4086 19.5545C14.634 19.7794 14.7466 20.0606 14.7466 20.3418C14.7466 21.0165 14.6903 21.6913 14.4649 22.3098L13.6762 24.0529C13.6199 24.2216 13.6762 24.3903 13.7325 24.5589C13.7888 24.7276 14.0142 24.8401 14.1832 24.8401H23.1968C23.5348 24.8401 23.7602 24.6152 23.7602 24.2778V13.0319C23.7602 12.6946 23.5348 12.4697 23.1968 12.4697H21.0928C21.3122 12.236 21.4611 11.9455 21.5068 11.6262C21.537 11.3851 21.5181 11.128 21.4425 10.8805C21.4392 10.8689 21.4357 10.8575 21.4321 10.8461L21.4309 10.8422C21.3753 10.6655 21.2907 10.5043 21.1817 10.3637C21.1597 10.3342 21.1368 10.3051 21.1124 10.2767C21.0958 10.2575 21.0788 10.239 21.0618 10.2205H24.8869V15.8434C24.8869 16.0683 24.9996 16.2933 25.1122 16.3495L25.2812 16.4057C26.7459 17.0242 27.8163 18.3175 28.1543 19.8919C28.2106 20.1731 28.436 20.3418 28.7176 20.3418H29.2809C30.3513 20.3418 31.3653 20.7353 31.985 21.4664C32.0977 21.5788 32.2103 21.6913 32.2667 21.8037C31.7034 21.5788 30.9711 21.4663 29.9007 21.4663Z" fill="white"/>
<path fill-rule="evenodd" clip-rule="evenodd" d="M33.0174 20.6696L33.0187 20.6712C33.6506 21.4165 34 22.2257 34 23.1533C34 23.4007 33.8762 23.6773 33.5973 23.753C33.3316 23.8807 33.065 23.8094 32.8724 23.6172C32.5664 23.3118 32.2968 23.0845 31.88 22.9301C31.4598 22.7745 30.8821 22.6903 29.957 22.6903C27.8149 22.6903 26.1131 24.3889 26.1131 26.527C26.1131 26.7183 26.0488 26.8854 25.929 27.0049C25.8093 27.1244 25.6419 27.1886 25.4502 27.1886H12.4931C12.3015 27.1886 12.1341 27.1244 12.0143 27.0049C11.8946 26.8854 11.8303 26.7183 11.8303 26.527C11.8303 24.3889 10.1285 22.6903 7.98637 22.6903C5.84427 22.6903 4.14247 24.3889 4.14247 26.527C4.14247 26.7183 4.07817 26.8854 3.95841 27.0049C3.83865 27.1244 3.67124 27.1886 3.47962 27.1886H2.07127C1.83437 27.1886 1.59198 27.1306 1.40403 27.0083C0.98298 26.8244 0.68448 26.4067 0.621688 25.9854C0.503512 25.5636 0.622213 25.0877 0.861895 24.7842L1.53357 23.611C1.53347 23.6112 1.53367 23.6108 1.53357 23.611C1.79379 23.143 1.68354 22.5896 1.23422 22.3404L1.22543 22.3355L1.21779 22.329C0.806727 21.9773 0.563327 21.558 0.563327 21.0165V20.3418C0.563327 19.9746 0.649301 19.6267 0.80147 19.3165H0.662852C0.471233 19.3165 0.303819 19.2523 0.18406 19.1328C0.0643012 19.0133 0 18.8462 0 18.6549V10.7828C0 10.5916 0.0643012 10.4245 0.18406 10.3049C0.303819 10.1854 0.471233 10.1212 0.662852 10.1212H8.54983C8.74145 10.1212 8.90886 10.1854 9.02862 10.3049C9.14838 10.4245 9.21268 10.5916 9.21268 10.7828V17.9933H10.4844C10.2652 17.6091 10.1403 17.1634 10.1403 16.6869V8.25259C10.1403 7.46691 10.4797 6.76558 11.021 6.28519C10.148 5.65296 9.57689 4.62676 9.57689 3.47308C9.57689 1.56266 11.1425 0 13.0565 0C14.9705 0 16.5361 1.56266 16.5361 3.47308C16.5361 4.50025 16.0834 5.42664 15.3681 6.06358C16.0742 6.53358 16.5361 7.3356 16.5361 8.25253V9.55889H19.1599C19.1784 9.4092 19.2394 9.27868 19.3379 9.18034C19.4577 9.0608 19.6251 8.99662 19.8167 8.99662H24.7941C24.8069 8.90548 24.838 8.82132 24.8885 8.74567C24.9565 8.64388 25.0559 8.56319 25.1803 8.50106L25.2248 8.58988C24.9995 8.70236 24.8868 8.87104 24.8868 9.09594H19.8167C19.4787 9.09594 19.2534 9.32083 19.2534 9.65821H16.4366V8.2525C16.4366 7.35994 15.9822 6.58108 15.2899 6.13115C15.2607 6.11213 15.231 6.09367 15.2009 6.07585C15.2279 6.05362 15.2546 6.03101 15.2809 6.00798C15.9882 5.38844 16.4366 4.48048 16.4366 3.47306C16.4366 1.6175 14.9155 0.0993136 13.0565 0.0993136C11.1974 0.0993136 9.67639 1.6175 9.67639 3.47306C9.67639 4.60181 10.2394 5.60547 11.0989 6.21875C11.127 6.2388 11.1554 6.25841 11.1841 6.27761C11.1572 6.29919 11.1307 6.32133 11.1047 6.34397C10.5737 6.80645 10.2398 7.48769 10.2398 8.25257V16.6869C10.2398 17.1663 10.3711 17.6128 10.5996 17.9933C10.6198 18.027 10.6408 18.06 10.6625 18.0926H9.11313V10.7828C9.11313 10.4454 8.88781 10.2205 8.54981 10.2205H0.662828C0.324818 10.2205 0.0995006 10.4454 0.0995006 10.7828V18.6549C0.0995006 18.9923 0.324818 19.2172 0.662828 19.2172H0.967498C0.948483 19.2498 0.930283 19.2829 0.91288 19.3165C0.753436 19.6244 0.662828 19.973 0.662828 20.3418V21.0165C0.662828 21.5226 0.888145 21.9162 1.28253 22.2535C1.78955 22.5347 1.90224 23.1532 1.62054 23.6592L0.944524 24.84C0.719207 25.1212 0.606515 25.5711 0.719207 25.9646C0.77552 26.3582 1.05722 26.7519 1.45154 26.9206C1.62054 27.033 1.84586 27.0893 2.07124 27.0893H3.4796C3.81761 27.0893 4.04292 26.8644 4.04292 26.527C4.04292 24.3341 5.78928 22.591 7.98635 22.591C10.1834 22.591 11.9298 24.3341 11.9298 26.527C11.9298 26.8644 12.1551 27.0893 12.4931 27.0893H25.4502C25.7882 27.0893 26.0135 26.8644 26.0135 26.527C26.0135 24.3341 27.7599 22.591 29.957 22.591C31.816 22.591 32.323 22.9283 32.9427 23.5469C33.1117 23.7156 33.3371 23.7718 33.5624 23.6594C33.7878 23.6032 33.9005 23.3782 33.9005 23.1533C33.9005 22.2535 33.5624 21.4663 32.9427 20.7353C32.0977 19.7794 30.802 19.2172 29.3936 19.2172H29.2809C28.7739 17.5303 27.5909 16.1808 26.0135 15.4498V12.2448L26.3516 12.4135C26.4079 12.4697 26.4642 12.4697 26.5769 12.4697H27.7036C28.0416 12.4697 28.2669 12.2448 28.2669 11.9074V8.53367C28.2669 8.19629 28.0416 7.9714 27.7036 7.9714H26.5769C26.4642 7.9714 26.4079 7.9714 26.3516 8.02761L25.2248 8.58988L25.1803 8.50106L26.294 7.9453C26.3766 7.87169 26.4679 7.87188 26.5624 7.87207C26.5673 7.87208 26.5721 7.87209 26.5769 7.87209H27.7036C27.8952 7.87209 28.0626 7.93627 28.1824 8.0558C28.3022 8.17534 28.3665 8.34244 28.3665 8.53369V11.9074C28.3665 12.0987 28.3022 12.2658 28.1824 12.3853C28.0626 12.5049 27.8952 12.569 27.7036 12.569H26.5769C26.5721 12.569 26.5673 12.5691 26.5625 12.5691C26.468 12.5693 26.3766 12.5694 26.294 12.4958L26.1131 12.4055V15.3868C27.6653 16.1252 28.8342 17.4572 29.3546 19.1179H29.3937C30.828 19.1179 32.1518 19.6905 33.0174 20.6696ZM19.8829 10.786L19.8797 10.7856C19.8587 10.7837 19.8377 10.7828 19.8167 10.7828H15.8733C15.5352 10.7828 15.3099 10.5579 15.3099 10.2205V8.2525C15.3099 7.46534 14.6903 6.8468 13.9016 6.8468H12.7749C11.9862 6.8468 11.3665 7.46527 11.3665 8.2525V16.6869C11.3665 17.4741 11.9861 18.0926 12.7749 18.0926H17C17.2253 18.0926 17.4506 18.2613 17.5633 18.4862L19.0843 23.7155H20.7181L18.4647 16.5182C18.3521 16.1246 18.0141 15.8434 17.5634 15.8434H14.7466C14.4086 15.8434 14.1833 15.6185 14.1833 15.2812V12.9413C13.5162 12.7179 13.0566 12.1023 13.0566 11.3451V9.65827C13.0566 9.3209 13.2819 9.096 13.6199 9.096C13.9579 9.096 14.1832 9.3209 14.1832 9.65827V11.3451C14.1832 11.6825 14.4085 11.9074 14.7465 11.9074H19.7604C20.0146 11.9074 20.2682 11.7242 20.3568 11.5231C20.3702 11.4746 20.3775 11.422 20.3791 11.3666C20.3761 11.2298 20.3597 11.0998 20.2674 11.0077C20.1695 10.8612 20.0289 10.7996 19.8829 10.786ZM20.2796 11.3662C20.2764 11.2316 20.2587 11.1395 20.197 11.078L20.1901 11.071L20.1846 11.0628C20.1066 10.9462 19.9963 10.8964 19.8736 10.8849L19.8708 10.8846L19.8692 10.8844C19.852 10.8829 19.8346 10.8822 19.8167 10.8822H15.8733C15.6817 10.8822 15.5142 10.818 15.3945 10.6985C15.2747 10.5789 15.2104 10.4118 15.2104 10.2206V8.25253C15.2104 7.52022 14.6353 6.94616 13.9016 6.94616H12.7749C12.0412 6.94616 11.4661 7.52016 11.4661 8.25253V16.6869C11.4661 17.4192 12.0411 17.9933 12.7749 17.9933H17C17.2729 17.9933 17.5277 18.193 17.6523 18.4418L17.6564 18.4499L19.1591 23.6162H20.5827L18.369 16.5455C18.2681 16.1927 17.9677 15.9428 17.5634 15.9428H14.7466C14.555 15.9428 14.3876 15.8786 14.2678 15.7591C14.1481 15.6395 14.0838 15.4724 14.0838 15.2812V13.0113C13.4128 12.756 12.9571 12.1189 12.9571 11.3452V9.6583C12.9571 9.46704 13.0214 9.29994 13.1411 9.18041C13.2609 9.06087 13.4283 8.99669 13.6199 8.99669C13.8115 8.99669 13.9789 9.06087 14.0987 9.18041C14.2185 9.29994 14.2828 9.46704 14.2828 9.6583V11.3452C14.2828 11.4913 14.3311 11.6053 14.4085 11.6826C14.4859 11.7598 14.6002 11.8081 14.7466 11.8081H19.7604C19.8641 11.8081 19.9721 11.7704 20.0654 11.7081C20.1564 11.6473 20.2265 11.5677 20.2628 11.4896C20.2724 11.4524 20.2781 11.4111 20.2796 11.3662ZM15.5699 22.7438L15.1813 23.6162H17.7815L16.5309 19.3165H15.7225C15.8892 19.6412 15.9728 19.9913 15.9728 20.3418C15.9728 21.1387 15.8588 21.9374 15.5727 22.7368L15.5699 22.7438ZM15.61 19.3165C15.7855 19.6401 15.8733 19.9909 15.8733 20.3418C15.8733 21.129 15.7606 21.9162 15.4789 22.7034L15.0282 23.7155H17.914L16.6056 19.2172H15.5528C15.5728 19.25 15.5919 19.2831 15.61 19.3165ZM21.5068 11.6262C21.4674 11.9017 21.3512 12.1557 21.1791 12.3704C21.1517 12.4045 21.1229 12.4376 21.0928 12.4697H23.1968C23.5348 12.4697 23.7602 12.6946 23.7602 13.0319V24.2778C23.7602 24.6152 23.5348 24.8401 23.1968 24.8401H14.1832C14.0142 24.8401 13.7888 24.7276 13.7325 24.5589C13.6762 24.3903 13.6199 24.2216 13.6762 24.0529L14.4649 22.3098C14.6903 21.6913 14.7466 21.0165 14.7466 20.3418C14.7466 20.0606 14.634 19.7794 14.4086 19.5545C14.1832 19.3296 13.9016 19.2172 13.6199 19.2172H2.91627C2.29656 19.2172 1.78955 19.7232 1.78955 20.3418V21.0165C1.78955 21.1024 1.85534 21.1555 1.9115 21.2009C1.92885 21.2149 1.94526 21.2281 1.95855 21.2414C2.91627 21.8599 3.25428 23.1532 2.63457 24.1653L1.90217 25.4024L1.84586 25.4586C1.78955 25.5711 1.78955 25.6835 1.78955 25.7398C1.78955 25.796 1.84586 25.9084 1.95855 25.9646H2.91627C3.1979 23.4343 5.33865 21.4663 7.93003 21.4663C10.5214 21.4663 12.7185 23.4343 13.0002 25.9646H24.8868C25.1685 23.4343 27.3093 21.4663 29.9007 21.4663C30.8744 21.4663 31.5685 21.5594 32.11 21.7456C32.1637 21.7641 32.2159 21.7834 32.2667 21.8037C32.2429 21.7562 32.209 21.7086 32.1692 21.661C32.1151 21.5962 32.05 21.5313 31.985 21.4664C31.3653 20.7353 30.3513 20.3418 29.2809 20.3418H28.7176C28.436 20.3418 28.2106 20.1731 28.1543 19.8919C27.8163 18.3175 26.7459 17.0242 25.2812 16.4057L25.1122 16.3495C24.9996 16.2933 24.8869 16.0683 24.8869 15.8434V10.2205H21.0618C21.0788 10.239 21.0958 10.2575 21.1124 10.2767C21.1246 10.291 21.1365 10.3054 21.148 10.3199C21.1595 10.3344 21.1707 10.349 21.1817 10.3637C21.2907 10.5043 21.3753 10.6655 21.4309 10.8422L21.4321 10.8461C21.4357 10.8575 21.4392 10.8689 21.4425 10.8805C21.5181 11.128 21.537 11.3851 21.5068 11.6262ZM21.538 10.8524C21.6176 11.1134 21.6374 11.3843 21.6056 11.6386L21.6054 11.6403C21.567 11.9083 21.4607 12.1564 21.3043 12.3704H23.1969C23.3885 12.3704 23.5559 12.4345 23.6757 12.5541C23.7954 12.6736 23.8597 12.8407 23.8597 13.032V24.2779C23.8597 24.4691 23.7954 24.6362 23.6757 24.7558C23.5559 24.8753 23.3885 24.9395 23.1969 24.9395H14.1832C14.0789 24.9395 13.9631 24.9055 13.8655 24.8486C13.7685 24.7921 13.6765 24.7054 13.6381 24.5904L13.6341 24.5784C13.5807 24.4186 13.5149 24.2219 13.5818 24.0215L13.585 24.0118L14.3727 22.2724C14.5911 21.6709 14.6471 21.0109 14.6471 20.3418C14.6471 20.0878 14.5455 19.8317 14.3383 19.6248C14.1309 19.4179 13.8744 19.3165 13.6199 19.3165H2.91629C2.35155 19.3165 1.8891 19.7781 1.8891 20.3418V21.0165C1.8891 21.0353 1.89704 21.0536 1.92333 21.0798C1.93677 21.0932 1.95231 21.106 1.97104 21.1212L1.97504 21.1244C1.98886 21.1356 2.00559 21.1491 2.02083 21.1633C3.01559 21.8119 3.36656 23.1596 2.71992 24.2165C2.71978 24.2167 2.72005 24.2163 2.71992 24.2165L1.98148 25.4638L1.92837 25.5168C1.88985 25.6021 1.8891 25.6873 1.8891 25.7398C1.8891 25.7388 1.8892 25.7445 1.89367 25.7568C1.89782 25.7682 1.90467 25.7822 1.91463 25.7971C1.93131 25.8221 1.95475 25.8467 1.98443 25.8653H2.82798C3.15452 23.3284 5.31719 21.367 7.93006 21.367C10.5416 21.367 12.7605 23.3271 13.0885 25.8653H24.7985C25.1251 23.3284 27.2878 21.367 29.9007 21.367C30.785 21.367 31.4469 21.4432 31.9767 21.5989C31.9567 21.5787 31.936 21.5579 31.9147 21.5366L31.9088 21.5308C31.3121 20.8269 30.3291 20.4411 29.281 20.4411H28.7176C28.3924 20.4411 28.1234 20.2427 28.0569 19.9121C27.7257 18.3706 26.6786 17.105 25.246 16.4987L25.0741 16.4415L25.0677 16.4384C24.9815 16.3953 24.9128 16.3005 24.867 16.2014C24.8192 16.0981 24.7874 15.9715 24.7874 15.8434V10.3199H21.2734C21.3833 10.4657 21.4688 10.6313 21.5257 10.8119C21.5256 10.8117 21.5257 10.8121 21.5257 10.8119L21.5272 10.8166C21.5307 10.828 21.5344 10.84 21.538 10.8524ZM6.76019 26.527C6.76019 25.8536 7.31176 25.3031 7.98644 25.3031C8.66103 25.3031 9.21268 25.8535 9.21268 26.5269C9.21268 27.2003 8.66111 27.7509 7.98644 27.7509C7.31177 27.7509 6.76019 27.2004 6.76019 26.527ZM4.50679 26.5269C4.50679 24.6165 6.0724 23.0538 7.98641 23.0538C9.90043 23.0538 11.466 24.6165 11.466 26.5269C11.466 28.4373 9.90043 30 7.98641 30C6.0724 30 4.50679 28.4373 4.50679 26.5269ZM5.83256 26.527C5.83256 27.7091 6.80203 28.6768 7.98641 28.6768C9.1708 28.6768 10.1403 27.7091 10.1403 26.527C10.1403 25.3448 9.1708 24.3772 7.98641 24.3772C6.80203 24.3772 5.83256 25.3448 5.83256 26.527ZM28.7308 26.527C28.7308 25.8536 29.2824 25.3031 29.9571 25.3031C30.6316 25.3031 31.1833 25.8535 31.1833 26.5269C31.1833 27.2003 30.6317 27.7509 29.9571 27.7509C29.2824 27.7509 28.7308 27.2004 28.7308 26.527ZM26.4774 26.5269C26.4774 24.6165 28.043 23.0538 29.957 23.0538C31.8711 23.0538 33.4367 24.6165 33.4367 26.5269C33.4367 28.4373 31.8711 30 29.957 30C28.043 30 26.4774 28.4373 26.4774 26.5269ZM27.8032 26.527C27.8032 27.7091 28.7727 28.6768 29.957 28.6768C31.1414 28.6768 32.1109 27.7091 32.1109 26.527C32.1109 25.3448 31.1414 24.3772 29.957 24.3772C28.7727 24.3772 27.8032 25.3448 27.8032 26.527ZM26.1131 9.49473V10.9463L26.7131 11.2458H27.0408V9.1953H26.7131L26.1131 9.49473ZM26.6896 9.09594H27.1403V11.3451H26.6896L26.0135 11.0077V9.43331L26.6896 9.09594ZM22.017 23.6162L19.6308 16.1536C19.3917 15.2054 18.5027 14.6195 17.5633 14.6195H15.4095V13.1313H19.1599C19.1784 13.281 19.2394 13.4115 19.3379 13.5099C19.4577 13.6294 19.6251 13.6936 19.8167 13.6936H22.5339V23.6161L22.017 23.6162ZM22.6334 23.7154V13.5942H19.8167C19.4787 13.5942 19.2534 13.3693 19.2534 13.0319H15.3099V14.7188H17.5633C18.4647 14.7188 19.3097 15.2812 19.535 16.1808L21.9443 23.7155L22.6334 23.7154ZM15.2104 3.47301C15.2104 2.29086 14.241 1.32321 13.0566 1.32321C11.8721 1.32321 10.9027 2.29092 10.9027 3.47308C10.9027 4.65523 11.8722 5.62288 13.0566 5.62288C14.241 5.62288 15.2104 4.65517 15.2104 3.47301ZM5.07014 12.3704V11.4444H4.14247V12.3704H5.07014ZM2.81677 11.4444H1.32577L1.32571 17.9932H7.88685V11.4444H6.39585V13.032C6.39585 13.2232 6.33155 13.3903 6.21179 13.5099C6.09203 13.6294 5.92461 13.6936 5.733 13.6936H3.47962C3.288 13.6936 3.12059 13.6294 3.00083 13.5099C2.88107 13.3903 2.81677 13.2232 2.81677 13.032V11.4444ZM1.22615 18.0926L1.22622 11.3451H2.91627V13.0319C2.91627 13.3693 3.14159 13.5942 3.4796 13.5942H5.73297C6.07098 13.5942 6.2963 13.3693 6.2963 13.0319V11.3451H7.98635V18.0926H1.22615ZM15.3099 3.47299C15.3099 2.23597 14.2959 1.22385 13.0566 1.22385C11.8171 1.22385 10.8032 2.23604 10.8032 3.47306C10.8032 4.71007 11.8172 5.7222 13.0566 5.7222C14.2959 5.7222 15.3099 4.71001 15.3099 3.47299ZM5.16964 11.3451H4.04292V12.4697H5.16964V11.3451ZM7.98639 23.1532C6.12734 23.1532 4.60629 24.6713 4.60629 26.5269C4.60629 28.3825 6.12734 29.9006 7.98639 29.9006C9.84544 29.9006 11.3665 28.3825 11.3665 26.5269C11.3665 24.6713 9.84544 23.1532 7.98639 23.1532ZM7.98639 28.7761C6.74704 28.7761 5.73302 27.764 5.73302 26.527C5.73302 25.2899 6.74704 24.2778 7.98639 24.2778C9.22574 24.2778 10.2398 25.2899 10.2398 26.527C10.2398 27.764 9.22574 28.7761 7.98639 28.7761ZM7.98641 25.4024C7.36671 25.4024 6.85969 25.9084 6.85969 26.527C6.85969 27.1455 7.36671 27.6515 7.98641 27.6515C8.60612 27.6515 9.11313 27.1455 9.11313 26.5269C9.11313 25.9084 8.60605 25.4024 7.98641 25.4024ZM28.8303 26.527C28.8303 25.9084 29.3373 25.4024 29.957 25.4024C30.5767 25.4024 31.0838 25.9084 31.0838 26.5269C31.0838 27.1455 30.5767 27.6515 29.957 27.6515C29.3373 27.6515 28.8303 27.1455 28.8303 26.527ZM29.957 23.1532C28.098 23.1532 26.5769 24.6713 26.5769 26.5269C26.5769 28.3825 28.098 29.9006 29.957 29.9006C31.8161 29.9006 33.3371 28.3825 33.3371 26.5269C33.3371 24.6713 31.8161 23.1532 29.957 23.1532ZM29.957 28.7761C28.7177 28.7761 27.7036 27.764 27.7036 26.527C27.7036 25.2899 28.7177 24.2778 29.957 24.2778C31.1964 24.2778 32.2104 25.2899 32.2104 26.527C32.2104 27.764 31.1964 28.7761 29.957 28.7761Z" fill="white"/>
</svg>
