<svg width="13" height="13" viewBox="0 0 13 13" fill="none" xmlns="http://www.w3.org/2000/svg">
<path d="M12.4992 1.47366C12.7678 1.20502 12.7678 0.76946 12.4992 0.500817L-nan -nanL12.4992 0.500817C12.2305 0.232175 11.795 0.232175 11.5263 0.500816L6.49999 5.52715L1.47366 0.500818C1.20502 0.232176 0.769461 0.232176 0.500819 0.500819L-nan -nanL0.500819 0.500819C0.232177 0.769461 0.232177 1.20502 0.500819 1.47366L5.52715 6.49999L0.500815 11.5263C0.232175 11.795 0.232176 12.2305 0.500817 12.4992L-nan -nanL0.500817 12.4992C0.76946 12.7678 1.20502 12.7678 1.47366 12.4992L6.49999 7.47283L11.5263 12.4992C11.795 12.7678 12.2305 12.7678 12.4992 12.4992L-nan -nanL12.4992 12.4992C12.7678 12.2305 12.7678 11.795 12.4992 11.5263L7.47283 6.49999L12.4992 1.47366Z" fill="white"/>
<path fill-rule="evenodd" clip-rule="evenodd" d="M6.49999 5.10382L11.3147 0.289153C11.7002 -0.096385 12.3253 -0.0963843 12.7108 0.289155C13.0964 0.674695 13.0964 1.29978 12.7108 1.68532L7.89615 6.49999L12.7108 11.3147C13.0964 11.7002 13.0964 12.3253 12.7108 12.7108C12.3253 13.0964 11.7002 13.0964 11.3147 12.7108L6.49999 7.89615L1.68532 12.7108C1.29978 13.0964 0.674696 13.0964 0.289155 12.7108C-0.0963835 12.3253 -0.0963857 11.7002 0.289153 11.3147L5.10382 6.49999L0.289157 1.68532C-0.0963833 1.29978 -0.0963832 0.674696 0.289157 0.289156C0.674697 -0.0963835 1.29978 -0.0963837 1.68532 0.289156L6.49999 5.10382ZM6.49999 5.52715L1.47366 0.500818C1.20502 0.232176 0.769461 0.232176 0.500819 0.500819C0.232177 0.769461 0.232177 1.20502 0.500819 1.47366L5.52715 6.49999Lnan nanCnan nan 0.232176 12.2305 0.500817 12.4992C0.76946 12.7678 1.20502 12.7678 1.47366 12.4992L6.49999 7.47283L11.5263 12.4992C11.795 12.7678 12.2305 12.7678 12.4992 12.4992C12.7678 12.2305 12.7678 11.795 12.4992 11.5263L7.47283 6.49999L12.4992 1.47366C12.7678 1.20502 12.7678 0.76946 12.4992 0.500817C12.2305 0.232175 11.795 0.232175 11.5263 0.500816L6.49999 5.52715Z" fill="white"/>
</svg>
