<svg width="40" height="23" viewBox="0 0 40 23" fill="none" xmlns="http://www.w3.org/2000/svg">
<path d="M28.8769 4.9905C29.2314 4.99052 29.5187 4.70321 29.5187 4.34878V1C29.5187 0.447715 29.071 0 28.5187 0H9.83959H3.42242H1C0.447715 0 0 0.447715 0 1V22C0 22.5523 0.447715 23 1 23H28.5187C29.071 23 29.5187 22.5523 29.5187 22V19.5191C29.5187 19.1647 29.2314 18.8774 28.877 18.8774C28.5226 18.8774 28.2353 19.1647 28.2353 19.5191V20.993C28.2353 21.3825 27.9195 21.6982 27.5301 21.6982H14.262C13.7097 21.6982 13.262 21.2505 13.262 20.6982V2.30182C13.262 1.74954 13.7097 1.30182 14.262 1.30182H27.3131C27.8224 1.30182 28.2353 1.7147 28.2353 2.22402V4.34878C28.2353 4.70318 28.5225 4.99048 28.8769 4.9905ZM4.70585 2.30182C4.70585 1.74954 5.15357 1.30182 5.70585 1.30182H7.55608C8.10836 1.30182 8.55608 1.74954 8.55608 2.30182V6.34904C8.55608 6.60908 8.29278 6.7864 8.05182 6.68863C7.96347 6.65278 7.86463 6.65278 7.77628 6.68862L7.00641 7.00093C6.76527 7.09876 6.4955 7.09873 6.25438 7.00085L5.48521 6.68864C5.3969 6.65279 5.29808 6.65278 5.20977 6.68863C4.96898 6.78635 4.70585 6.60917 4.70585 6.34931V2.30182ZM11.9786 20.6981C11.9786 21.2504 11.5309 21.6981 10.9786 21.6981H2.28344C1.73115 21.6981 1.28344 21.2504 1.28344 20.6981V2.30182C1.28344 1.74954 1.73115 1.30182 2.28344 1.30182H2.4225C2.97478 1.30182 3.42249 1.74954 3.42249 2.30182V7.33112C3.42249 8.04072 4.14099 8.52456 4.79851 8.25774L4.97141 8.18757C5.21258 8.08971 5.4824 8.08973 5.72356 8.18762L6.25432 8.40308C6.49543 8.50096 6.76519 8.50099 7.00633 8.40318L7.53823 8.18743C7.77929 8.08965 8.04896 8.08966 8.29002 8.18744L8.46369 8.25789C9.12119 8.52462 9.83959 8.04078 9.83959 7.33124V2.30182C9.83959 1.74954 10.2873 1.30182 10.8396 1.30182H10.9786C11.5309 1.30182 11.9787 1.74954 11.9786 2.30183L11.9786 20.6981Z" fill="white"/>
<path d="M33.4469 6.86181C32.9605 6.35477 32.3087 6.0755 31.6113 6.0755H22.6551C19.1266 6.0755 16.2559 8.9875 16.2559 12.5669C16.2559 16.1462 19.1266 19.0582 22.6551 19.0582H24.5344C25.9304 19.0582 27.0965 17.9254 27.1342 16.5329C27.1474 16.0448 27.0292 15.5753 26.7953 15.1645H28.3728C29.7687 15.1645 30.935 14.0317 30.9726 12.6393C30.9858 12.1512 30.8676 11.6816 30.6337 11.2709H31.5715C32.9674 11.2709 34.1337 10.1381 34.1713 8.74563C34.1904 8.03786 33.9332 7.36876 33.4469 6.86181ZM31.5714 9.96908H28.4769H28.4127H25.7054C25.3459 9.96908 25.0544 10.2605 25.0544 10.62C25.0544 10.9795 25.3459 11.271 25.7054 11.271H28.4127C28.7605 11.271 29.0858 11.4103 29.3285 11.6633C29.571 11.9161 29.6994 12.2501 29.6897 12.6036C29.671 13.2978 29.0802 13.8627 28.3728 13.8627H25.0544H24.5744H23.9941C23.6346 13.8627 23.3432 14.1541 23.3432 14.5136C23.3432 14.8731 23.6346 15.1646 23.9941 15.1646H24.5744C24.9222 15.1646 25.2475 15.3039 25.4901 15.5568C25.7326 15.8097 25.861 16.1437 25.8514 16.4972C25.8326 17.1914 25.2419 17.7562 24.5345 17.7562H22.6552C19.8344 17.7562 17.5394 15.4282 17.5394 12.5668C17.5394 9.70534 19.8343 7.37732 22.6552 7.37732H31.6115C31.9593 7.37732 32.2846 7.51664 32.5272 7.7696C32.7697 8.02249 32.8981 8.35644 32.8885 8.70997C32.8695 9.40435 32.2788 9.96908 31.5714 9.96908Z" fill="white"/>
<path d="M40.0022 9.33943V9.32096C40.0022 8.96655 39.7149 8.67924 39.3605 8.67924C39.0061 8.67924 38.7188 8.96655 38.7188 9.32096V9.33943C38.7188 9.69384 39.0061 9.98114 39.3605 9.98114C39.7149 9.98114 40.0022 9.69384 40.0022 9.33943Z" fill="white"/>
<path d="M37.4319 9.33943V9.32096C37.4319 8.96655 37.1446 8.67924 36.7902 8.67924C36.4357 8.67924 36.1484 8.96655 36.1484 9.32096V9.33943C36.1484 9.69384 36.4357 9.98114 36.7902 9.98114C37.1446 9.98114 37.4319 9.69384 37.4319 9.33943Z" fill="white"/>
<path d="M37.4319 12.8111V12.7926C37.4319 12.4382 37.1446 12.1509 36.7902 12.1509C36.4357 12.1509 36.1484 12.4382 36.1484 12.7926V12.8111C36.1484 13.1655 36.4357 13.4528 36.7902 13.4528C37.1446 13.4528 37.4319 13.1655 37.4319 12.8111Z" fill="white"/>
<path d="M40.0022 12.8111V12.7926C40.0022 12.4382 39.7149 12.1509 39.3605 12.1509C39.0061 12.1509 38.7188 12.4382 38.7188 12.7926V12.8111C38.7188 13.1655 39.0061 13.4528 39.3605 13.4528C39.7149 13.4528 40.0022 13.1655 40.0022 12.8111Z" fill="white"/>
<path d="M34.8655 12.8111V12.7926C34.8655 12.4382 34.5782 12.1509 34.2237 12.1509C33.8693 12.1509 33.582 12.4382 33.582 12.7926V12.8111C33.582 13.1655 33.8693 13.4528 34.2237 13.4528C34.5782 13.4528 34.8655 13.1655 34.8655 12.8111Z" fill="white"/>
<path d="M34.8655 16.2828V16.2643C34.8655 15.9099 34.5782 15.6226 34.2237 15.6226C33.8693 15.6226 33.582 15.9099 33.582 16.2643V16.2828C33.582 16.6372 33.8693 16.9245 34.2237 16.9245C34.5782 16.9245 34.8655 16.6372 34.8655 16.2828Z" fill="white"/>
<path d="M40.0022 16.2828V16.2643C40.0022 15.9099 39.7149 15.6226 39.3605 15.6226C39.0061 15.6226 38.7188 15.9099 38.7188 16.2643V16.2828C38.7188 16.6372 39.0061 16.9245 39.3605 16.9245C39.7149 16.9245 40.0022 16.6372 40.0022 16.2828Z" fill="white"/>
<path d="M32.2991 16.2828V16.2643C32.2991 15.9099 32.0118 15.6226 31.6573 15.6226C31.3029 15.6226 31.0156 15.9099 31.0156 16.2643V16.2828C31.0156 16.6372 31.3029 16.9245 31.6573 16.9245C32.0118 16.9245 32.2991 16.6372 32.2991 16.2828Z" fill="white"/>
<path d="M37.4319 16.2828V16.2643C37.4319 15.9099 37.1446 15.6226 36.7902 15.6226C36.4357 15.6226 36.1484 15.9099 36.1484 16.2643V16.2828C36.1484 16.6372 36.4357 16.9245 36.7902 16.9245C37.1446 16.9245 37.4319 16.6372 37.4319 16.2828Z" fill="white"/>
<path d="M9.62263 14.0502C9.3693 13.8574 9.01851 13.8574 8.76518 14.0502L7.60598 14.9321C7.32412 15.1465 7.26681 15.5476 7.47735 15.8324C7.69203 16.1228 8.10277 16.1815 8.39018 15.9628L8.55218 15.8395V17.3677C8.55218 17.7221 8.83949 18.0094 9.1939 18.0094C9.54831 18.0094 9.83562 17.7221 9.83562 17.3677V15.8395L9.99756 15.9628C10.285 16.1815 10.6957 16.1228 10.9104 15.8324C11.121 15.5476 11.0637 15.1465 10.7818 14.9321L9.62263 14.0502Z" fill="white"/>
<path d="M4.48981 14.0502C4.23649 13.8574 3.88569 13.8574 3.63237 14.0502L2.4732 14.9321C2.19132 15.1465 2.13402 15.5476 2.34458 15.8324C2.55928 16.1228 2.97003 16.1815 3.25743 15.9628L3.41937 15.8395V17.3677C3.41937 17.7221 3.70668 18.0094 4.06109 18.0094C4.4155 18.0094 4.70281 17.7221 4.70281 17.3677V15.8395L4.86481 15.9628C5.15222 16.1815 5.56296 16.1228 5.77765 15.8324C5.98818 15.5476 5.93088 15.1465 5.64901 14.9321L4.48981 14.0502Z" fill="white"/>
<path d="M10.2568 19.0944H3.00251C2.643 19.0944 2.35156 19.3858 2.35156 19.7453C2.35156 20.1048 2.643 20.3963 3.00251 20.3963H10.2568C10.6163 20.3963 10.9077 20.1048 10.9077 19.7453C10.9077 19.3858 10.6163 19.0944 10.2568 19.0944Z" fill="white"/>
</svg>
