<svg width="9" height="10" viewBox="0 0 9 10" fill="none" xmlns="http://www.w3.org/2000/svg">
<path d="M3.37195 7.65743C3.55942 7.84416 3.80731 7.94815 4.06494 7.94815C4.32256 7.94815 4.57045 7.84416 4.75793 7.65743L7.80167 4.61744C7.92394 4.49473 8.00863 4.33613 8.0448 4.16209C8.08098 3.98805 8.06699 3.80655 8.00463 3.64099C7.94228 3.47543 7.83442 3.33341 7.69496 3.23324C7.55551 3.13306 7.39085 3.07933 7.22223 3.07897H6.32881V0.897436C6.32856 0.659504 6.239 0.431396 6.07979 0.263153C5.92058 0.0949097 5.70471 0.000271457 5.47956 0H2.56782C2.34266 0.000271457 2.1268 0.0949097 1.96759 0.263153C1.80838 0.431396 1.71882 0.659504 1.71856 0.897436V3.07692H0.906676C0.738053 3.07728 0.573398 3.13101 0.433943 3.23118C0.294488 3.33136 0.186629 3.47338 0.124274 3.63894C0.0619186 3.8045 0.0479275 3.986 0.0841041 4.16004C0.120281 4.33408 0.204966 4.49268 0.32724 4.61538L3.37195 7.65743ZM0.798942 3.92308C0.806504 3.89956 0.821108 3.87928 0.840545 3.86531C0.859982 3.85134 0.883196 3.84443 0.906676 3.84564H2.08253C2.17894 3.84551 2.27137 3.80501 2.33958 3.73302C2.4078 3.66103 2.44624 3.56341 2.4465 3.46154V0.897436C2.4465 0.863434 2.45928 0.830824 2.48203 0.806781C2.50479 0.782738 2.53564 0.769231 2.56782 0.769231H5.47956C5.51173 0.769231 5.54259 0.782738 5.56534 0.806781C5.5881 0.830824 5.60088 0.863434 5.60088 0.897436V3.46154C5.60101 3.5635 5.63939 3.66125 5.70762 3.73335C5.77585 3.80545 5.86836 3.84602 5.96485 3.84615H7.2232C7.24648 3.84618 7.26921 3.85358 7.28847 3.8674C7.30773 3.88122 7.32263 3.90081 7.33125 3.92366C7.33987 3.94651 7.34181 3.97157 7.33682 3.9956C7.33183 4.01962 7.32015 4.04152 7.30327 4.05846L4.25905 7.09846C4.20661 7.1509 4.13714 7.18012 4.06494 7.18012C3.99273 7.18012 3.92327 7.1509 3.87082 7.09846L0.826603 4.05846C0.808614 4.0422 0.796167 4.02015 0.791171 3.9957C0.786175 3.97124 0.788904 3.94573 0.798942 3.92308ZM7.82593 9.61538C7.82593 9.71739 7.78758 9.81522 7.71933 9.88735C7.65107 9.95948 7.55849 10 7.46196 10H0.667914C0.571384 10 0.478807 9.95948 0.41055 9.88735C0.342293 9.81522 0.303947 9.71739 0.303947 9.61538C0.303947 9.51338 0.342293 9.41555 0.41055 9.34342C0.478807 9.27129 0.571384 9.23077 0.667914 9.23077H7.46196C7.55849 9.23077 7.65107 9.27129 7.71933 9.34342C7.78758 9.41555 7.82593 9.51338 7.82593 9.61538Z" fill="white"/>
</svg>
