<svg width="15" height="10" viewBox="0 0 15 10" fill="none" xmlns="http://www.w3.org/2000/svg">
<path d="M14.8658 4.57174C14.75 4.40551 11.9825 0.5 7.50001 0.5C3.0175 0.5 0.250005 4.40551 0.134253 4.57174C-0.044751 4.82923 -0.044751 5.17074 0.134253 5.42823C0.250005 5.59449 3.0175 9.5 7.50001 9.5C11.9825 9.5 14.75 5.59449 14.8658 5.42826C15.0448 5.17074 15.0448 4.82926 14.8658 4.57174ZM7.50001 8.75C3.35802 8.75 0.750015 5 0.750015 5C0.750015 5 3.35802 1.25 7.50001 1.25C11.642 1.25 14.25 5 14.25 5C14.25 5 11.642 8.75 7.50001 8.75Z" fill="#80828F"/>
<path d="M7.5 2C5.84326 2 4.5 3.343 4.5 5C4.5 6.657 5.843 8 7.5 8C9.157 8 10.5 6.657 10.5 5C10.5 3.343 9.15674 2 7.5 2ZM7.5 7.25C6.25925 7.25 5.25 6.24075 5.25 5C5.25 3.75925 6.25925 2.75 7.5 2.75C8.74075 2.75 9.75 3.75925 9.75 5C9.75 6.24075 8.74075 7.25 7.5 7.25Z" fill="#80828F"/>
</svg>
