<svg width="22" height="20" viewBox="0 0 22 20" fill="none" xmlns="http://www.w3.org/2000/svg">
<path fill-rule="evenodd" clip-rule="evenodd" d="M10.7692 2.22222C10.4035 1.7876 9.97721 1.4081 9.50688 1.09156C8.46749 0.392041 7.21315 0 5.92308 0C2.60615 0 0 2.6376 0 5.99455C0 7.18734 0.275415 8.32002 0.7472 9.3976C2.21049 12.7429 5.56313 15.5659 8.449 17.9959C9.01926 18.476 9.57129 18.9409 10.0869 19.3914C10.4768 19.732 11.0617 19.732 11.4515 19.3914C11.9672 18.9409 12.5192 18.476 13.0895 17.9959C15.9753 15.5659 19.3279 12.743 20.7912 9.39778C21.263 8.32014 21.5385 7.1874 21.5385 5.99455C21.5385 2.6376 18.9323 0 15.6154 0C14.3253 0 13.071 0.392041 12.0316 1.09156C11.5612 1.4081 11.1349 1.7876 10.7692 2.22222ZM10.7692 17.0777C11.1168 16.7805 11.4722 16.4807 11.827 16.1814C12.1275 15.9279 12.4276 15.6748 12.7223 15.4237C13.9021 14.4188 15.0569 13.3978 16.0794 12.3278C17.3449 11.0037 18.2854 9.72925 18.8331 8.47132C19.1943 7.64078 19.3846 6.81814 19.3846 5.99455C19.3846 3.90505 17.7821 2.22222 15.6154 2.22222C14.3355 2.22222 13.1412 2.79303 12.3957 3.67902L10.7692 5.61204L9.14276 3.67902C8.39729 2.79303 7.20293 2.22222 5.92308 2.22222C3.7564 2.22222 2.15385 3.90505 2.15385 5.99455C2.15385 6.81814 2.34418 7.64078 2.70538 8.47132C3.25305 9.72925 4.19356 11.0037 5.45902 12.3278C6.48161 13.3978 7.63641 14.4188 8.81615 15.4237C9.11086 15.6748 9.41099 15.9279 9.71151 16.1814C10.0663 16.4807 10.4216 16.7805 10.7692 17.0777Z" fill="#A80000"/>
</svg>
