<svg width="14" height="12" viewBox="0 0 14 12" fill="none" xmlns="http://www.w3.org/2000/svg">
<path d="M0 1C0 0.447715 0.447715 0 1 0H13C13.5523 0 14 0.447715 14 1C14 1.55228 13.5523 2 13 2H1C0.447716 2 0 1.55228 0 1Z" fill="white"/>
<path d="M0 5.79999C0 5.2477 0.447715 4.79999 1 4.79999H13C13.5523 4.79999 14 5.2477 14 5.79999C14 6.35227 13.5523 6.79999 13 6.79999H1C0.447716 6.79999 0 6.35227 0 5.79999Z" fill="white"/>
<path d="M0 10.6C0 10.0477 0.447715 9.60001 1 9.60001H13C13.5523 9.60001 14 10.0477 14 10.6C14 11.1523 13.5523 11.6 13 11.6H1C0.447716 11.6 0 11.1523 0 10.6Z" fill="white"/>
</svg>
