<svg width="55" height="15" viewBox="0 0 55 15" fill="none" xmlns="http://www.w3.org/2000/svg">
<path d="M39.0197 6.78125V15.0005H43.6842V10.1298H48.9707C51.1942 10.1146 53.0833 8.7219 53.7986 6.78125H39.0197Z" fill="#313036"/>
<path d="M38.3972 0.0078125C38.6693 3.364 41.9189 6.02003 45.8838 6.02003C45.8993 6.02003 53.9924 6.02003 53.9924 6.02003C54.0546 5.71561 54.0857 5.39598 54.0857 5.06873C54.0857 2.28332 51.7923 0.0306437 48.9546 0.0078125H38.3972Z" fill="#313036"/>
<path d="M31.4936 5.93631C31.548 5.84499 31.6335 5.79172 31.7424 5.79172C31.8979 5.79172 32.0145 5.91348 32.0222 6.05808V14.9242H36.6868V0.0078125H32.0222C31.4314 0.0306437 30.7628 0.449215 30.514 0.974333L26.8057 8.76738C26.7979 8.79782 26.7824 8.82826 26.7668 8.85871C26.7124 8.93481 26.6191 8.98808 26.5103 8.98808C26.3392 8.98808 26.1993 8.8511 26.1993 8.68367V0.0078125H21.5347V14.9242H26.1993C26.7824 14.8938 27.4354 14.4752 27.6842 13.9577L31.4936 5.95914C31.4858 5.95153 31.4936 5.94392 31.4936 5.93631Z" fill="#313036"/>
<path d="M14.0792 6.19487L11.3505 14.924H7.99197L5.27097 6.18725C5.24765 6.05027 5.12326 5.94372 4.96777 5.94372C4.79674 5.94372 4.66457 6.08071 4.66457 6.24053V14.9164H0V0H4.00376H5.19323C6.0484 0 6.95022 0.654495 7.19899 1.45359L9.46908 8.72152C9.5857 9.08682 9.76451 9.07921 9.88112 8.72152L12.1512 1.45359C12.4 0.646884 13.3018 0 14.157 0H15.3464H19.3502V14.9164H14.6856V6.24053C14.6856 6.24053 14.6856 6.24053 14.6856 6.23292C14.6856 6.06549 14.5457 5.93611 14.3824 5.93611C14.2269 5.94372 14.1026 6.05027 14.0792 6.19487Z" fill="#313036"/>
</svg>
