<svg width="21" height="20" viewBox="0 0 21 20" fill="none" xmlns="http://www.w3.org/2000/svg">
<path d="M10.25 0.243902C9.2611 0.243902 8.2944 0.529995 7.47215 1.066C6.64991 1.60201 6.00904 2.36386 5.6306 3.2552C5.25217 4.14655 5.15315 5.12736 5.34608 6.07361C5.539 7.01986 6.01521 7.88904 6.71447 8.57125C7.41373 9.25346 8.30465 9.71805 9.27455 9.90627C10.2445 10.0945 11.2498 9.99789 12.1634 9.62868C13.077 9.25947 13.8579 8.63424 14.4074 7.83205C14.9568 7.02986 15.25 6.08674 15.25 5.12195C15.25 3.82821 14.7232 2.58746 13.7855 1.67265C12.8479 0.757838 11.5761 0.243902 10.25 0.243902ZM10.25 8.60627C9.54364 8.60627 8.85314 8.40192 8.26582 8.01906C7.6785 7.6362 7.22074 7.09202 6.95043 6.45534C6.68012 5.81867 6.60939 5.11809 6.7472 4.44219C6.885 3.7663 7.22515 3.14546 7.72462 2.65816C8.22409 2.17087 8.86046 1.83902 9.55325 1.70458C10.246 1.57014 10.9641 1.63914 11.6167 1.90286C12.2693 2.16658 12.8271 2.61317 13.2195 3.18617C13.612 3.75916 13.8214 4.43282 13.8214 5.12195C13.8214 5.57952 13.7291 6.0326 13.5496 6.45534C13.3701 6.87808 13.107 7.26219 12.7754 7.58574C12.4437 7.90929 12.05 8.16594 11.6167 8.34104C11.1834 8.51615 10.719 8.60627 10.25 8.60627Z" fill="currentColor"/>
<path fill-rule="evenodd" clip-rule="evenodd" d="M7.33326 0.863204C8.19662 0.300397 9.21165 0 10.25 0C11.6424 0 12.9777 0.539633 13.9623 1.50018C14.9469 2.46074 15.5 3.76353 15.5 5.12195C15.5 6.13498 15.1921 7.12526 14.6152 7.96756C14.0383 8.80986 13.2184 9.46635 12.2591 9.85402C11.2998 10.2417 10.2442 10.3431 9.22578 10.1455C8.20738 9.94785 7.27192 9.46004 6.53769 8.74372C5.80347 8.0274 5.30345 7.11476 5.10088 6.12119C4.89831 5.12763 5.00227 4.09778 5.39963 3.16187C5.79699 2.22595 6.4699 1.42601 7.33326 0.863204ZM10.25 0.487805C9.31054 0.487805 8.39218 0.759593 7.61104 1.2688C6.82991 1.77801 6.22109 2.50176 5.86157 3.34854C5.50206 4.19532 5.40799 5.12709 5.59127 6.02603C5.77455 6.92496 6.22695 7.75069 6.89125 8.39879C7.55554 9.04689 8.40191 9.48825 9.32332 9.66705C10.2447 9.84586 11.1998 9.75409 12.0677 9.40334C12.9357 9.0526 13.6775 8.45863 14.1995 7.69655C14.7214 6.93446 15 6.0385 15 5.12195C15 3.8929 14.4996 2.71419 13.6088 1.84511C12.718 0.976044 11.5098 0.487805 10.25 0.487805ZM11.5211 2.1282C10.9141 1.88294 10.2463 1.81876 9.60202 1.9438C8.95773 2.06883 8.36591 2.37745 7.9014 2.83063C7.43689 3.28381 7.12055 3.8612 6.99239 4.48978C6.86424 5.11836 6.93001 5.7699 7.1814 6.36201C7.43279 6.95411 7.85851 7.4602 8.40472 7.81626C8.95092 8.17232 9.59309 8.36237 10.25 8.36237C10.6862 8.36237 11.1181 8.27855 11.5211 8.11571C11.924 7.95286 12.2902 7.71417 12.5986 7.41327C12.907 7.11237 13.1517 6.75515 13.3186 6.36201C13.4855 5.96886 13.5714 5.54749 13.5714 5.12195C13.5714 4.48106 13.3766 3.85456 13.0117 3.32167C12.6467 2.78879 12.128 2.37346 11.5211 2.1282ZM9.50448 1.46537C10.2458 1.32151 11.0141 1.39534 11.7124 1.67752C12.4107 1.9597 13.0075 2.43756 13.4274 3.05066C13.8473 3.66376 14.0714 4.38458 14.0714 5.12195C14.0714 5.61155 13.9726 6.09635 13.7805 6.54868C13.5885 7.00101 13.307 7.41201 12.9522 7.7582C12.5973 8.1044 12.176 8.37902 11.7124 8.56638C11.2488 8.75374 10.7518 8.85017 10.25 8.85017C9.49419 8.85017 8.75536 8.63152 8.12693 8.22186C7.4985 7.81219 7.0087 7.22992 6.71946 6.54868C6.43023 5.86744 6.35455 5.11782 6.502 4.39461C6.64945 3.67141 7.01341 3.0071 7.54784 2.4857C8.08228 1.9643 8.76319 1.60922 9.50448 1.46537Z" fill="currentColor"/>
<path d="M13.9429 11.3937H6.55714C4.88496 11.3956 3.28182 12.0445 2.09941 13.198C0.916999 14.3516 0.251891 15.9156 0.25 17.547C0.25 18.1329 0.488558 18.6948 0.913194 19.1091C1.33783 19.5234 1.91376 19.7561 2.51429 19.7561H17.9857C18.5862 19.7561 19.1622 19.5234 19.5868 19.1091C20.0114 18.6948 20.25 18.1329 20.25 17.547C20.2481 15.9156 19.583 14.3516 18.4006 13.198C17.2182 12.0445 15.615 11.3956 13.9429 11.3937ZM17.9857 18.3624H2.51429C2.29264 18.3624 2.08007 18.2765 1.92335 18.1236C1.76662 17.9707 1.67857 17.7633 1.67857 17.547C1.67857 16.2847 2.19256 15.0741 3.10747 14.1815C4.02238 13.2889 5.26327 12.7875 6.55714 12.7875H13.9429C15.2367 12.7875 16.4776 13.2889 17.3925 14.1815C18.3074 15.0741 18.8214 16.2847 18.8214 17.547C18.8214 17.7633 18.7334 17.9707 18.5767 18.1236C18.4199 18.2765 18.2074 18.3624 17.9857 18.3624Z" fill="currentColor"/>
<path fill-rule="evenodd" clip-rule="evenodd" d="M6.55714 11.1498H13.9429C15.6812 11.1517 17.3481 11.8263 18.5774 13.0256C19.8066 14.2248 20.498 15.8508 20.5 17.5468C20.5 18.1973 20.2351 18.8215 19.7636 19.2815C19.2921 19.7416 18.6525 20 17.9857 20H2.51429C1.84746 20 1.20794 19.7416 0.736417 19.2815C0.264897 18.8215 0 18.1976 0 17.547C0.00196539 15.8511 0.693407 14.2248 1.92263 13.0256C3.15185 11.8263 4.81876 11.1517 6.55714 11.1498ZM6.55728 11.6376C4.95136 11.6394 3.41174 12.2626 2.27618 13.3705C1.14062 14.4784 0.501855 15.9804 0.5 17.5472C0.500036 18.0683 0.712251 18.5681 1.08997 18.9366C1.46772 19.3052 1.98006 19.5122 2.51429 19.5122H17.9857C18.5199 19.5122 19.0323 19.3052 19.41 18.9366C19.7877 18.5681 19.9999 18.0684 20 17.5473C19.9982 15.9805 19.3594 14.4784 18.2238 13.3705C17.0883 12.2626 15.5486 11.6394 13.9427 11.6376H6.55728ZM6.55714 13.0314C5.32957 13.0314 4.15227 13.5071 3.28425 14.354C2.41622 15.2008 1.92857 16.3494 1.92857 17.547C1.92857 17.6986 1.99028 17.8439 2.10012 17.9511C2.20997 18.0583 2.35895 18.1185 2.51429 18.1185H17.9857C18.1411 18.1185 18.29 18.0583 18.3999 17.9511C18.5097 17.8439 18.5714 17.6986 18.5714 17.547C18.5714 16.3494 18.0838 15.2008 17.2158 14.354C16.3477 13.5071 15.1704 13.0314 13.9429 13.0314H6.55714ZM2.9307 14.009C3.89249 13.0707 5.19696 12.5436 6.55714 12.5436H13.9429C15.303 12.5436 16.6075 13.0707 17.5693 14.009C18.5311 14.9474 19.0714 16.22 19.0714 17.547C19.0714 17.828 18.957 18.0974 18.7534 18.296C18.5498 18.4947 18.2737 18.6063 17.9857 18.6063H2.51429C2.22634 18.6063 1.95018 18.4947 1.74657 18.296C1.54296 18.0974 1.42857 17.828 1.42857 17.547C1.42857 16.22 1.9689 14.9474 2.9307 14.009Z" fill="currentColor"/>
</svg>
