<svg width="8" height="13" viewBox="0 0 8 13" fill="none" xmlns="http://www.w3.org/2000/svg">
<path fill-rule="evenodd" clip-rule="evenodd" d="M3.89584 1.78571C2.46544 1.78571 1.32938 2.88089 1.32938 4.20408C1.32938 5.52728 2.46544 6.62246 3.89584 6.62246C5.32624 6.62246 6.46229 5.52728 6.46229 4.20408C6.46229 3.56702 6.1953 2.9533 5.71546 2.4987C5.23516 2.04366 4.58087 1.78571 3.89584 1.78571ZM0 4.20408C0 2.14594 1.75721 0.5 3.89584 0.5C4.92471 0.5 5.91412 0.887099 6.64574 1.58024C7.37782 2.27382 7.79167 3.21737 7.79167 4.20408C7.79167 6.26223 6.03446 7.90817 3.89584 7.90817C1.75721 7.90817 0 6.26223 0 4.20408Z" fill="white"/>
<path fill-rule="evenodd" clip-rule="evenodd" d="M4.87809 4.13211C4.72946 3.80036 4.36209 3.58878 3.96491 3.62891C3.5998 3.6658 3.2729 3.40945 3.23475 3.05633C3.19661 2.70321 3.46167 2.38705 3.82678 2.35016C4.78748 2.25308 5.71297 2.76176 6.09789 3.62094C6.24384 3.94671 6.0891 4.32523 5.75226 4.46639C5.41542 4.60755 5.02404 4.45788 4.87809 4.13211ZM3.89584 6.62246C4.26294 6.62246 4.56053 6.91026 4.56053 7.2653V11.8571C4.56053 12.2122 4.26294 12.5 3.89584 12.5C3.52874 12.5 3.23115 12.2122 3.23115 11.8571V7.2653C3.23115 6.91026 3.52874 6.62246 3.89584 6.62246Z" fill="white"/>
</svg>
