<svg width="24" height="30" viewBox="0 0 24 30" fill="none" xmlns="http://www.w3.org/2000/svg">
<path d="M23.9257 19.3899L23.1781 17.169C23.0745 16.8612 22.7491 16.6986 22.4515 16.8058L21.7947 17.0422H21.7943L21.6187 17.1054L19.8688 11.9072L17.934 6.1602C17.9339 6.15947 17.9337 6.15873 17.9333 6.15818L17.931 6.15158L15.9934 0.39555C15.9929 0.394633 15.9927 0.393716 15.9922 0.392982C15.9874 0.378488 15.9817 0.364361 15.9757 0.350418C15.9739 0.346382 15.9725 0.342162 15.9707 0.338309C15.965 0.325467 15.9585 0.313175 15.9515 0.301066C15.9489 0.295929 15.9466 0.290608 15.9437 0.285838C15.9389 0.277582 15.9331 0.269693 15.9278 0.261437C15.9224 0.253182 15.9177 0.244742 15.912 0.23667C15.9086 0.232267 15.9049 0.22823 15.9015 0.223644C15.8932 0.212636 15.8845 0.201444 15.8754 0.19117C15.8726 0.187868 15.8692 0.184933 15.8664 0.181814C15.8561 0.170806 15.8458 0.159981 15.8346 0.149707C15.8339 0.148974 15.8334 0.14824 15.8327 0.147689C15.8288 0.14402 15.8243 0.140901 15.8202 0.137599C15.8107 0.129343 15.8013 0.121087 15.7913 0.113565C15.7837 0.108061 15.7762 0.102924 15.7684 0.0977868C15.761 0.0924663 15.7537 0.0871459 15.7457 0.0823757C15.7361 0.0766883 15.7264 0.0713678 15.7166 0.0662308C15.7102 0.062745 15.704 0.0592592 15.6976 0.0561402C15.687 0.0508198 15.6763 0.0464166 15.6655 0.04183C15.6591 0.039445 15.6529 0.036693 15.6465 0.0341245C15.6359 0.0304552 15.6254 0.0269694 15.6148 0.0238504C15.6075 0.0214654 15.6 0.0192638 15.5928 0.0174292C15.5832 0.0148606 15.5734 0.0128426 15.5638 0.0110079C15.5552 0.00917322 15.5463 0.0073386 15.5371 0.00587088C15.5287 0.00477006 15.5206 0.00385276 15.5122 0.00293544C15.5019 0.00201812 15.4915 0.000917322 15.4812 0.00036693C15.4739 0 15.4663 0.000183465 15.4588 0C15.4476 0 15.4366 0 15.4256 0.00036693C15.418 0.000917322 15.4105 0.00183465 15.4029 0.00256851C15.3924 0.00348584 15.3818 0.00440316 15.3712 0.00623778C15.3621 0.00752205 15.3531 0.00935672 15.3438 0.0113748C15.335 0.0132095 15.3263 0.0146772 15.3174 0.0168788C15.3053 0.0199977 15.2936 0.0238504 15.2819 0.0277032C15.2768 0.0293544 15.2718 0.0304552 15.2666 0.0322898L15.2597 0.0348584C15.2592 0.0350418 15.2587 0.0352253 15.2583 0.0352253L5.34444 3.60325C5.33788 3.60564 5.33185 3.60857 5.32546 3.61114C5.3157 3.61518 5.30576 3.61885 5.29618 3.62343C5.2866 3.62802 5.27737 3.63316 5.26797 3.63811C5.26105 3.64178 5.25413 3.64526 5.24756 3.6493C5.2371 3.65554 5.22716 3.66214 5.21722 3.66893C5.2119 3.6726 5.20658 3.67609 5.20161 3.67976C5.19132 3.68709 5.18174 3.6948 5.17233 3.70287C5.16736 3.70709 5.16257 3.71094 5.15796 3.71516C5.14927 3.72305 5.14093 3.73131 5.13294 3.73957C5.12762 3.7447 5.12229 3.75002 5.11715 3.75553C5.11041 3.76305 5.10384 3.77094 5.09728 3.77883C5.09142 3.78598 5.08574 3.79277 5.08042 3.80011C5.0751 3.80726 5.07031 3.81442 5.06534 3.82176C5.05948 3.83038 5.05363 3.83882 5.04813 3.84799C5.04405 3.8546 5.04032 3.86157 5.03677 3.86836C5.03127 3.8779 5.02595 3.88799 5.02116 3.89808C5.01761 3.90523 5.01441 3.91257 5.0114 3.91973C5.00714 3.92964 5.0027 3.93973 4.99898 3.95C4.99561 3.95899 4.99294 3.96816 4.99011 3.97734C4.98727 3.98596 4.98443 3.99477 4.98194 4.00394C4.97857 4.01623 4.97609 4.02889 4.9736 4.04137C4.97236 4.04669 4.97094 4.05164 4.97006 4.05714C4.9697 4.05806 4.9697 4.05898 4.9697 4.0599C4.96704 4.07512 4.96562 4.09017 4.9642 4.10558C4.96384 4.1098 4.96296 4.1142 4.9626 4.1186C4.96154 4.13273 4.96154 4.14667 4.96154 4.1608C4.96154 4.16667 4.96118 4.17218 4.96136 4.17786C4.96154 4.18759 4.9626 4.19749 4.96349 4.20703C4.9642 4.21712 4.96473 4.22703 4.96597 4.23694C4.96668 4.24244 4.96775 4.24795 4.96864 4.25308C4.97094 4.26739 4.97307 4.28134 4.97609 4.2951C4.97697 4.29913 4.97857 4.30317 4.97946 4.30739C4.98319 4.32243 4.98727 4.33729 4.99206 4.35179C4.99241 4.35271 4.99259 4.35362 4.99294 4.35454L6.93054 10.1102L6.93285 10.1172C6.93302 10.1179 6.9332 10.1185 6.93338 10.1192L8.86814 15.8662L10.618 21.0645L9.72994 21.3841L5.59463 9.10023V9.10004L5.46989 8.72871C5.36591 8.42086 5.04067 8.25831 4.74311 8.36545L1.14082 9.66181C0.997805 9.71337 0.88052 9.82143 0.814514 9.96233C0.748863 10.1032 0.739814 10.2654 0.789496 10.4133L1.53703 12.6339C1.61901 12.8778 1.83991 13.0304 2.07608 13.0304C2.13836 13.0304 2.20171 13.0196 2.26381 12.9974L5.32688 11.8949L8.8126 22.2492C8.81775 22.2769 8.82413 22.3047 8.83336 22.3317L9.2679 23.6229C8.94142 23.6261 8.60997 23.6824 8.28508 23.7994C7.50703 24.0792 6.88104 24.6558 6.52244 25.4229C6.16384 26.1896 6.11522 27.055 6.38617 27.8593C6.82869 29.1742 8.02514 30 9.30161 30C9.63714 30 9.97835 29.9431 10.3128 29.8228C11.0907 29.5428 11.7167 28.9662 12.0755 28.1995C12.4341 27.4324 12.4823 26.5672 12.2116 25.7627C12.046 25.2708 11.7744 24.8481 11.4331 24.5107L13.3122 23.8347C13.3122 23.8347 13.3122 23.8345 13.3124 23.8345L15.3811 23.09V23.0898L17.4493 22.3455H17.4495L19.5182 21.601H19.5184L21.5867 20.8567L23.5744 20.1411C23.8721 20.034 24.0293 19.6975 23.9257 19.3899ZM9.75869 14.921L8.19637 10.2799L17.0406 7.09679L18.6028 11.7379L9.75869 14.921ZM16.5325 5.58761L12.5638 4.8565L15.2356 1.73539L16.5325 5.58761ZM9.34455 8.6168L11.6773 5.89216L15.1417 6.53025L9.34455 8.6168ZM11.2468 4.61378L7.78241 3.97568L13.5794 1.88951L11.2468 4.61378ZM10.3602 5.64962L7.68837 8.77054L6.39149 4.91851L10.3602 5.64962ZM14.556 14.444L18.9782 12.8525L20.5406 17.4934L18.4752 18.2368L17.6574 18.5311H17.6571L15.5885 19.2757L13.5201 20.0201V20.0202L11.6963 20.6765L10.134 16.0356L14.556 14.444ZM10.4714 23.6072L10.1054 22.499L22.2887 18.1175L22.6598 19.2203L10.4714 23.6072ZM2.42758 11.6887L2.05532 10.5826L4.57934 9.67429L4.9516 10.7802L2.42758 11.6887ZM9.93754 28.708C8.92598 29.0722 7.81648 28.5174 7.46427 27.4713C7.11223 26.4254 7.64862 25.2782 8.66036 24.9144C8.87098 24.8382 9.08585 24.8023 9.29718 24.8023C9.50673 24.8023 9.71238 24.8386 9.90773 24.9054C9.92157 24.911 9.93559 24.9166 9.94978 24.9211C10.4848 25.1187 10.9326 25.5539 11.1333 26.1507C11.4855 27.1967 10.9491 28.3439 9.93754 28.708Z" fill="white"/>
<path d="M2.34995 22.2491L2.32352 22.2662C2.05754 22.4412 1.97858 22.8058 2.1475 23.081C2.25627 23.258 2.44116 23.3549 2.62995 23.3549C2.73463 23.3549 2.84039 23.3251 2.93531 23.2628L2.96175 23.2457C3.22773 23.0709 3.30669 22.7061 3.13777 22.4308C2.96867 22.1557 2.61593 22.0745 2.34995 22.2491Z" fill="white"/>
<path d="M1.8891 18.6761C1.95156 18.6761 2.0149 18.6657 2.07683 18.6433L5.11559 17.5497C5.41333 17.4425 5.57036 17.106 5.46691 16.7982C5.36329 16.4905 5.03805 16.3278 4.74014 16.4349L1.70173 17.5286C1.40399 17.6357 1.24661 17.9722 1.35023 18.2799C1.4322 18.5235 1.65329 18.6761 1.8891 18.6761Z" fill="white"/>
<path d="M6.16779 18.8765C6.06417 18.5686 5.73875 18.4059 5.44101 18.5132L0.383212 20.3334C0.0854751 20.4405 -0.0717328 20.777 0.0318896 21.0849C0.113865 21.3285 0.334772 21.4811 0.570939 21.4811C0.633041 21.4811 0.696386 21.4705 0.758666 21.4483L5.81629 19.628C6.11403 19.5208 6.27141 19.1843 6.16779 18.8765Z" fill="white"/>
<path d="M6.86177 21.2368C6.75815 20.9289 6.43273 20.7662 6.13499 20.8735L4.61579 21.4202C4.31805 21.5274 4.16067 21.8639 4.26429 22.1715C4.34609 22.4154 4.567 22.568 4.80334 22.568C4.86544 22.568 4.92879 22.5574 4.99107 22.535L6.51027 21.9882C6.80801 21.8811 6.96539 21.5446 6.86177 21.2368Z" fill="white"/>
</svg>
