<svg width="45" height="25" viewBox="0 0 45 25" fill="none" xmlns="http://www.w3.org/2000/svg">
<path fill-rule="evenodd" clip-rule="evenodd" d="M8.57704 13.7451L11.6383 15.7577V19.492L8.56293 24.9998L8.57704 13.7451Z" fill="#313036"/>
<path fill-rule="evenodd" clip-rule="evenodd" d="M6.03791 12.1538L9.09302 13.9248L0.0247192 19.4317L2.98457 14.0447L6.03791 12.1538Z" fill="#313036"/>
<path fill-rule="evenodd" clip-rule="evenodd" d="M20.2825 7.06537L14.4465 7.03627L11.6357 5.34643L8.58063 0L20.2825 7.06537Z" fill="#313036"/>
<path fill-rule="evenodd" clip-rule="evenodd" d="M8.58053 0L11.6356 5.34643L11.6418 12.7134L8.56201 11.7724L8.58053 0Z" fill="#313036"/>
<path fill-rule="evenodd" clip-rule="evenodd" d="M0 5.37891L2.99425 10.8224L2.98455 14.045L0.0246948 19.432L0 5.37891Z" fill="#313036"/>
<path fill-rule="evenodd" clip-rule="evenodd" d="M0 5.37891L20.2365 17.7607L14.4377 17.8013L2.99425 10.8224L0 5.37891Z" fill="#313036"/>
<path fill-rule="evenodd" clip-rule="evenodd" d="M14.4465 7.03613L20.2824 7.06524L11.6445 12.3755L11.6357 8.7489L14.4465 7.03613Z" fill="#313036"/>
<path fill-rule="evenodd" clip-rule="evenodd" d="M31.276 7.91367C31.986 7.26631 32.9579 6.93998 33.914 6.96997C34.9132 6.94969 35.9195 7.0176 36.9135 6.89941C36.6983 7.55912 36.2617 8.13063 35.9707 8.76211C35.2546 8.77534 34.5375 8.74888 33.8223 8.77358C32.9024 8.84854 32.0257 9.5938 31.9357 10.5313C32.7727 9.69699 34.0824 9.64054 35.1672 9.91483C35.894 10.1618 36.5413 10.7068 36.805 11.4406C37.0485 12.0853 37.0881 12.7935 36.9294 13.463C36.6886 14.3811 35.9504 15.0919 35.0799 15.428C34.0533 15.8143 32.8724 15.8345 31.8502 15.4253C30.88 15.0302 30.1939 14.113 29.9593 13.1066C29.7026 12.2115 29.737 10.8859 29.9998 9.97569C30.2274 9.19074 30.6745 8.46577 31.276 7.91367ZM33.7596 11.4098C33.2137 11.3013 32.599 11.5244 32.3159 12.0042C31.8017 12.8756 32.5081 14.1765 33.6609 14.0124C34.9185 13.8343 35.2457 11.8066 33.7596 11.4098ZM25.6333 9.15635C26.7639 8.87853 28.0569 8.95967 29.0226 9.66435C28.7034 10.1794 28.415 10.7121 28.1222 11.2422C27.6503 11.0852 27.1917 10.8356 26.681 10.8479C26.1395 10.8312 25.553 11.0429 25.2452 11.5085C24.9171 12.0015 24.9012 12.6789 25.2205 13.1816C25.5045 13.6561 26.0628 13.8757 26.5928 13.9251C27.0065 13.8784 27.4272 13.8201 27.8099 13.6446C27.9017 13.5873 28.0075 13.59 28.1116 13.597C28.2985 14.1315 28.7078 14.5733 28.8692 15.114C27.8276 15.6705 26.5858 15.7843 25.4454 15.5073C24.6596 15.2763 23.9108 14.8265 23.461 14.1262C22.7493 13.0343 22.7766 11.49 23.5942 10.4616C24.0872 9.79665 24.8413 9.36361 25.6333 9.15635ZM38.0274 9.18457C40.2244 9.16869 42.4222 9.16781 44.6183 9.18457C44.5989 11.2713 44.6113 13.3598 44.613 15.4465C43.8739 15.45 43.134 15.4518 42.3949 15.4465C42.4293 14.0768 42.3605 12.7089 42.4037 11.3436C42.4072 11.2369 42.3825 11.1381 42.3305 11.0464C41.6558 11.0614 40.9793 11.0623 40.3046 11.0464C40.2623 12.5104 40.2967 13.978 40.2879 15.4438C39.5356 15.4571 38.7833 15.45 38.0318 15.4474C38.0327 13.3598 38.0415 11.273 38.0274 9.18633V9.18457Z" fill="#313036"/>
<path fill-rule="evenodd" clip-rule="evenodd" d="M11.6383 19.492L14.4377 17.8013L20.2365 17.7607L8.56293 24.9999L11.6383 19.492Z" fill="#313036"/>
</svg>
