<svg width="11" height="13" viewBox="0 0 11 13" fill="none" xmlns="http://www.w3.org/2000/svg">
<path d="M9.39172 5.08988C9.39172 2.47528 7.2893 0.355713 4.69586 0.355713C2.1024 0.355713 0 2.47528 0 5.08988C0 7.70449 2.1024 9.82406 4.69586 9.82406C6.18793 9.82406 7.00152 9.20882 7.00152 9.20882L9.37997 11.9246C9.58612 12.16 9.94656 12.177 10.174 11.9621C10.3895 11.7584 10.4054 11.4207 10.21 11.1976L7.89188 8.55149C8.81252 7.6872 9.39172 6.45818 9.39172 5.08988ZM1.08503 5.08988C1.08503 3.10077 2.70482 1.48249 4.69586 1.48249C6.68688 1.48249 8.30669 3.10075 8.30669 5.08988C8.30669 7.07902 6.68688 8.69728 4.69586 8.69728C2.70484 8.69728 1.08503 7.07899 1.08503 5.08988Z" fill="currentColor"/>
</svg>
