<svg xmlns="http://www.w3.org/2000/svg" fill="none" viewBox="0 0 20 20"><path fill="currentColor" d="m10.966 1.037 2.255 4.57c.157.319.46.54.811.59l5.044.733a1.077 1.077 0 0 1 .598 1.837l-3.65 3.558c-.254.247-.37.604-.31.953l.862 5.024c.15.88-.773 1.55-1.563 1.135L10.5 17.066a1.078 1.078 0 0 0-1.002 0l-4.512 2.371a1.077 1.077 0 0 1-1.563-1.135l.862-5.024c.06-.35-.056-.706-.31-.953L.326 8.767A1.077 1.077 0 0 1 .923 6.93l5.045-.733c.35-.05.654-.271.81-.59l2.256-4.57c.395-.8 1.536-.8 1.931 0Z"/></svg>