<svg width="14" height="15" viewBox="0 0 14 15" fill="none" xmlns="http://www.w3.org/2000/svg">
<path fill-rule="evenodd" clip-rule="evenodd" d="M1.71952 2.66677C2.45286 1.87262 2.71202 1.64988 3.02452 1.54622C3.24079 1.48796 3.4676 1.48473 3.68536 1.5368C3.97203 1.62246 4.04786 1.68757 4.98786 2.65049C5.81369 3.49604 5.89619 3.5877 5.97536 3.75304C6.12673 4.04327 6.15038 4.38612 6.04036 4.6954C5.95702 4.93099 5.83869 5.0869 5.33786 5.60349L5.01119 5.94016C4.9254 6.02979 4.90524 6.16589 4.96119 6.2777C5.68697 7.55061 6.71667 8.61211 7.95286 9.36177C8.09515 9.44009 8.27038 9.4148 8.38619 9.29923L8.70036 8.9814C8.89454 8.77678 9.10016 8.58398 9.31619 8.40399C9.65549 8.18983 10.0782 8.17072 10.4345 8.35345C10.6087 8.43912 10.6662 8.49223 11.5179 9.36605C12.3962 10.2664 12.4212 10.2947 12.5179 10.5012C12.6998 10.8429 12.6979 11.2569 12.5129 11.5969C12.4187 11.7888 12.3612 11.8582 11.867 12.3773C11.5687 12.6909 11.2879 12.977 11.2429 13.019C10.8352 13.3659 10.3122 13.5362 9.78452 13.4936C8.81914 13.4031 7.88474 13.0964 7.04702 12.5949C5.1913 11.5842 3.61153 10.1115 2.45202 8.31147C2.19948 7.93476 1.97495 7.53899 1.78036 7.12753C1.25834 6.20777 0.988774 5.15967 1.00036 4.09486C1.04021 3.53781 1.30007 3.02179 1.71952 2.66677Z" stroke="currentColor" stroke-width="1.5" stroke-linecap="round" stroke-linejoin="round"/>
</svg>
