<svg width="23" height="24" viewBox="0 0 23 24" fill="none" xmlns="http://www.w3.org/2000/svg">
<path fill-rule="evenodd" clip-rule="evenodd" d="M23 12.2667C23 18.6179 17.8512 23.7667 11.5 23.7667C5.14872 23.7667 0 18.6179 0 12.2667C0 5.91538 5.14872 0.766663 11.5 0.766663C17.8512 0.766663 23 5.91538 23 12.2667ZM11.9121 9.2565C10.7936 9.7217 8.55802 10.6846 5.20554 12.1453C4.66113 12.3618 4.37598 12.5735 4.35001 12.7807C4.30611 13.1306 4.74446 13.2685 5.34134 13.4561C5.42248 13.4817 5.50654 13.5081 5.59273 13.5361C6.1799 13.727 6.96972 13.9503 7.38035 13.9591C7.75279 13.9672 8.1685 13.8136 8.62747 13.4985C11.7598 11.3841 13.3767 10.3153 13.4782 10.2923C13.5498 10.276 13.6491 10.2556 13.7163 10.3154C13.7836 10.3751 13.777 10.4883 13.7698 10.5187C13.7264 10.7038 12.0054 12.3038 11.1152 13.1314C10.838 13.3892 10.6413 13.572 10.6011 13.6138C10.5109 13.7074 10.419 13.796 10.3307 13.8811C9.78523 14.407 9.37618 14.8013 10.3534 15.4453C10.8233 15.755 11.1993 16.0109 11.5744 16.2664C11.9836 16.5451 12.3918 16.8231 12.9198 17.1692C13.0544 17.2575 13.183 17.349 13.3083 17.4384C13.7847 17.7781 14.2128 18.0832 14.7416 18.0346C15.0488 18.0062 15.3663 17.7174 15.5275 16.8555C15.9085 14.8188 16.6574 10.406 16.8303 8.58761C16.853 8.34933 16.8519 7.98934 16.6476 7.82349C16.5097 7.71168 16.297 7.68808 16.2018 7.68975C15.7694 7.69739 15.1057 7.92816 11.9121 9.2565Z" fill="currentColor"/>
</svg>
