<svg width="20" height="16" viewBox="0 0 20 16" fill="none" xmlns="http://www.w3.org/2000/svg">
<path fill-rule="evenodd" clip-rule="evenodd" d="M17.1914 0.104272C17.4172 0.0110602 17.6637 -0.0204578 17.9056 0.0129455C18.1476 0.0463488 18.3763 0.143473 18.5684 0.294368C18.7605 0.445263 18.909 0.644505 18.9987 0.871681C19.0884 1.09886 19.1161 1.3458 19.079 1.58721C18.5438 5.06792 17.5625 11.4461 17.0416 14.8317C17.0056 15.066 16.9097 15.287 16.7633 15.4734C16.6168 15.6598 16.4248 15.8053 16.2057 15.8957C15.9866 15.9862 15.7478 16.0186 15.5126 15.9898C15.2773 15.961 15.0534 15.872 14.8626 15.7314C13.02 14.3738 10.2573 12.3384 8.85472 11.3046C8.74648 11.2249 8.65707 11.1223 8.59281 11.0042C8.52855 10.8861 8.491 10.7553 8.48282 10.6211C8.47464 10.4869 8.49602 10.3525 8.54545 10.2275C8.59489 10.1025 8.67118 9.9898 8.76893 9.89747C10.0542 8.68365 12.614 6.26612 14.3752 4.60269C14.4167 4.56327 14.4419 4.50977 14.446 4.45269C14.4501 4.3956 14.4327 4.33905 14.3973 4.2941C14.3619 4.24916 14.311 4.21906 14.2545 4.20971C14.198 4.20036 14.1401 4.21243 14.0921 4.24356C11.8339 5.71639 8.37539 7.97181 6.68036 9.07724C6.3627 9.28442 6.00569 9.42378 5.63168 9.48661C5.25767 9.54943 4.87471 9.53437 4.50679 9.44235C3.57344 9.20905 2.22718 8.87241 1.02911 8.57297C0.841541 8.52611 0.67354 8.42125 0.54904 8.27333C0.42454 8.12541 0.34989 7.94198 0.335722 7.74916C0.321554 7.55634 0.368592 7.36397 0.470136 7.19944C0.571679 7.03492 0.722548 6.90663 0.901256 6.83285C5.07186 5.11017 13.2337 1.73923 17.1914 0.104272Z" fill="currentColor"/>
</svg>
