<svg xmlns="http://www.w3.org/2000/svg" fill="none" viewBox="0 0 18 16"><path fill="currentColor" d="M16.977 1.473a.852.852 0 0 0-1.23.084L6.475 12.51 2.232 7.834a.852.852 0 0 0-1.23-.04.922.922 0 0 0-.04 1.272l4.898 5.4a.86.86 0 0 0 .636.284h.015a.857.857 0 0 0 .641-.307l9.907-11.7a.921.921 0 0 0-.082-1.27Z"/><path fill="currentColor" fill-rule="evenodd" d="M17.454.908c.664.6.731 1.642.152 2.328l-9.908 11.7c-.297.35-.723.557-1.177.564h-.025c-.442 0-.861-.188-1.163-.518l-.002-.003-4.9-5.4a1.69 1.69 0 0 1 .074-2.333 1.561 1.561 0 0 1 2.256.074l3.694 4.073 8.746-10.33a1.561 1.561 0 0 1 2.253-.155ZM6.474 12.51 2.232 7.834a.852.852 0 0 0-1.23-.04.922.922 0 0 0-.04 1.272l4.898 5.4a.86.86 0 0 0 .636.284h.015a.857.857 0 0 0 .641-.307l9.907-11.7a.921.921 0 0 0-.082-1.27.852.852 0 0 0-1.23.084L6.475 12.51Z" clip-rule="evenodd"/></svg>