<svg width="24" height="25" viewBox="0 0 24 25" fill="none" xmlns="http://www.w3.org/2000/svg">
<path d="M9.489 0.270151L10.218 0.267151H13.782L14.512 0.270151L15.426 0.280151L15.859 0.287151L16.277 0.298151L16.68 0.312151L17.068 0.328151L17.442 0.349151L17.802 0.374151L18.147 0.404151L18.48 0.437151C20.22 0.633151 21.413 1.05315 22.313 1.95315C23.213 2.85315 23.633 4.04515 23.829 5.78615L23.863 6.11915L23.892 6.46515L23.917 6.82515L23.937 7.19815L23.962 7.78615L23.974 8.19615L23.987 8.84015L23.996 9.75515L24 10.7352L23.999 14.0482L23.996 14.7782L23.986 15.6922L23.979 16.1252L23.968 16.5432L23.954 16.9462L23.938 17.3342L23.917 17.7082L23.892 18.0682L23.862 18.4132L23.829 18.7462C23.633 20.4862 23.213 21.6792 22.313 22.5792C21.413 23.4792 20.221 23.8992 18.48 24.0952L18.147 24.1292L17.801 24.1582L17.441 24.1832L17.068 24.2032L16.48 24.2282L16.07 24.2402L15.426 24.2532L14.511 24.2622L13.531 24.2662L10.218 24.2652L9.488 24.2622L8.574 24.2522L8.141 24.2452L7.723 24.2342L7.32 24.2202L6.932 24.2042L6.558 24.1832L6.198 24.1582L5.853 24.1282L5.52 24.0952C3.78 23.8992 2.587 23.4792 1.687 22.5792C0.787 21.6792 0.367 20.4872 0.171 18.7462L0.137 18.4132L0.108 18.0672L0.083 17.7072L0.063 17.3342L0.038 16.7462L0.026 16.3362L0.013 15.6922L0.004 14.7772L0 13.7972L0.001 10.4842L0.004 9.75415L0.014 8.84015L0.021 8.40715L0.032 7.98915L0.046 7.58615L0.062 7.19815L0.083 6.82415L0.108 6.46415L0.138 6.11915L0.171 5.78615C0.367 4.04615 0.787 2.85315 1.687 1.95315C2.587 1.05315 3.779 0.633151 5.52 0.437151L5.853 0.403151L6.199 0.374151L6.559 0.349151L6.932 0.329151L7.52 0.304151L7.93 0.292151L8.574 0.279151L9.489 0.270151ZM6.79 7.56615H4.05C4.18 13.8062 7.3 17.5562 12.77 17.5562H13.08V13.9862C15.09 14.1862 16.61 15.6562 17.22 17.5562H20.06C19.28 14.7162 17.23 13.1462 15.95 12.5462C17.23 11.8062 19.03 10.0062 19.46 7.56615H16.88C16.32 9.54615 14.66 11.3462 13.08 11.5162V7.56615H10.5V14.4862C8.9 14.0862 6.88 12.1462 6.79 7.56615Z" fill="currentColor"/>
</svg>
