<svg width="23" height="16" viewBox="0 0 23 16" fill="none" xmlns="http://www.w3.org/2000/svg">
<path fill-rule="evenodd" clip-rule="evenodd" d="M4.33325 0.4C4.33325 0.1792 4.15405 0 3.93325 0H0.733252C0.512452 0 0.333252 0.1792 0.333252 0.4C0.333252 0.4 0.332052 4.2736 1.86125 8.1468C3.41325 12.0788 6.52485 16 12.7333 16C12.9541 16 13.1333 15.8208 13.1333 15.6V10.0132C16.1349 10.2112 18.5361 12.62 18.7217 15.6248C18.7349 15.8356 18.9097 16 19.1209 16H22.3333C22.5541 16 22.7333 15.8208 22.7333 15.6C22.7333 12.4444 21.1409 9.6572 18.7169 8C21.1409 6.3428 22.7333 3.5556 22.7333 0.4C22.7333 0.1792 22.5541 0 22.3333 0H19.1209C18.9097 0 18.7349 0.1644 18.7217 0.3752C18.5361 3.38 16.1349 5.7888 13.1333 5.9868V0.4C13.1333 0.1792 12.9541 0 12.7333 0H9.53325C9.31245 0 9.13325 0.1792 9.13325 0.4V10.2796C8.48845 10.0572 7.27285 9.4656 6.23205 7.9788C5.18885 6.4884 4.33325 4.1256 4.33325 0.4Z" fill="currentColor"/>
</svg>
