<svg width="30" height="30" viewBox="0 0 30 30" fill="none" xmlns="http://www.w3.org/2000/svg">
<path d="M12.6233 6.83313C11.478 6.83313 10.3584 7.17275 9.40612 7.80905C8.45383 8.44535 7.71161 9.34975 7.27332 10.4079C6.83503 11.466 6.72035 12.6303 6.94379 13.7536C7.16723 14.8769 7.71875 15.9087 8.5286 16.7186C9.33846 17.5285 10.3703 18.08 11.4936 18.3034C12.6169 18.5269 13.7812 18.4122 14.8393 17.9739C15.8975 17.5356 16.8019 16.7934 17.4382 15.8411C18.0745 14.8888 18.4141 13.7692 18.4141 12.6239C18.4124 11.0886 17.8018 9.61666 16.7162 8.53104C15.6305 7.44542 14.1586 6.83479 12.6233 6.83313ZM12.6233 17.4496C11.6689 17.4496 10.7359 17.1665 9.94231 16.6363C9.14874 16.106 8.53022 15.3524 8.16498 14.4706C7.79974 13.5888 7.70418 12.6186 7.89037 11.6825C8.07657 10.7464 8.53617 9.88654 9.21105 9.21166C9.88593 8.53678 10.7458 8.07718 11.6819 7.89098C12.6179 7.70478 13.5882 7.80035 14.47 8.16559C15.3518 8.53083 16.1054 9.14935 16.6357 9.94292C17.1659 10.7365 17.4489 11.6695 17.4489 12.6239C17.4475 13.9033 16.9387 15.1299 16.034 16.0346C15.1293 16.9393 13.9027 17.4481 12.6233 17.4496Z" fill="white"/>
<path d="M24.5104 16.6079C25.4178 13.9179 25.3891 11.0001 24.4288 8.32847C23.4686 5.65684 21.6332 3.38836 19.221 1.89151C16.8087 0.394652 13.9612 -0.242633 11.141 0.0831698C8.3208 0.408973 5.69361 1.67872 3.68616 3.68616C1.67872 5.69361 0.408973 8.3208 0.0831698 11.141C-0.242633 13.9612 0.394652 16.8087 1.89151 19.221C3.38836 21.6332 5.65684 23.4686 8.32847 24.4288C11.0001 25.3891 13.9179 25.4178 16.6079 24.5104C16.8381 25.7165 17.3926 26.8371 18.2119 27.7517C19.0311 28.6663 20.0842 29.3404 21.2578 29.7014C22.4314 30.0624 23.6812 30.0968 24.8729 29.8007C26.0645 29.5047 27.153 28.8895 28.0212 28.0212C28.8895 27.153 29.5047 26.0645 29.8007 24.8729C30.0968 23.6812 30.0624 22.4314 29.7014 21.2578C29.3404 20.0842 28.6663 19.0311 27.7517 18.2119C26.8371 17.3926 25.7165 16.8381 24.5104 16.6079ZM12.6239 24.2054C10.1569 24.2113 7.75219 23.4311 5.75854 21.978C3.7649 20.5249 2.28599 18.4745 1.5363 16.1242C0.786622 13.7739 0.805156 11.2459 1.58922 8.90679C2.37328 6.56772 3.8821 4.53923 5.89683 3.11554C7.91156 1.69186 10.3274 0.947006 12.7941 0.989024C15.2607 1.03104 17.6498 1.85774 19.6149 3.34922C21.58 4.8407 23.0188 6.9194 23.7228 9.28382C24.4267 11.6482 24.3591 14.1754 23.5298 16.4989C23.4333 16.495 23.3368 16.4844 23.2403 16.4844C22.9913 16.4852 22.7426 16.4997 22.4952 16.5278C23.2537 14.6136 23.438 12.5198 23.0256 10.5025C22.6132 8.48518 21.622 6.63172 20.1731 5.16873C20.1577 5.15184 20.1471 5.13302 20.1311 5.11661C20.1152 5.10021 20.0959 5.09007 20.0795 5.07463C18.0955 3.10976 15.4161 2.0075 12.6239 2.0075C9.8316 2.0075 7.15221 3.10976 5.16825 5.07463C5.15184 5.09055 5.13254 5.10117 5.11613 5.1171C5.09972 5.13302 5.08959 5.15232 5.07415 5.16921C3.10893 7.15299 2.00643 9.83245 2.00643 12.6248C2.00643 15.4172 3.10893 18.0967 5.07415 20.0805C5.08959 20.0974 5.10021 20.1162 5.11613 20.1326C5.13206 20.149 5.15136 20.1591 5.16776 20.1746C6.63087 21.6234 8.4844 22.6147 10.5018 23.0271C12.5192 23.4394 14.613 23.2551 16.5273 22.4967C16.4994 22.7436 16.4851 22.9918 16.4844 23.2403C16.4844 23.3368 16.495 23.4333 16.4989 23.5298C15.2554 23.9754 13.9447 24.2039 12.6239 24.2054ZM16.7604 21.3424C16.0018 21.7041 15.1986 21.9638 14.3717 22.1145C14.5179 21.806 14.5778 21.4636 14.5452 21.1238C14.5126 20.784 14.3886 20.4593 14.1864 20.1842C15.1425 19.9855 16.0518 19.6062 16.8656 19.0666C16.9219 19.4168 17.0744 19.7444 17.3062 20.0129C17.0772 20.4352 16.8942 20.8809 16.7604 21.3424ZM3.14003 14.3765C3.44799 14.5202 3.78894 14.5784 4.12712 14.545C4.4653 14.5115 4.78825 14.3877 5.06208 14.1864C5.26066 15.1423 5.63982 16.0514 6.17922 16.8651C5.84183 16.9151 5.52422 17.0553 5.26002 17.271C4.99582 17.4867 4.79487 17.7698 4.67844 18.0904C3.90913 16.975 3.38482 15.7092 3.14003 14.3765ZM4.67844 7.15738C4.79487 7.47795 4.99582 7.76108 5.26002 7.97677C5.52422 8.19246 5.84183 8.33269 6.17922 8.38261C5.63982 9.19632 5.26066 10.1055 5.06208 11.0613C4.78825 10.8601 4.4653 10.7362 4.12712 10.7028C3.78894 10.6693 3.44799 10.7275 3.14003 10.8712C3.38482 9.53851 3.90913 8.27279 4.67844 7.15738ZM22.1077 10.8731C21.7998 10.7294 21.4588 10.6713 21.1206 10.7047C20.7824 10.7382 20.4595 10.862 20.1857 11.0633C19.9871 10.1074 19.6079 9.19825 19.0685 8.38454C19.4059 8.33462 19.7235 8.19439 19.9877 7.9787C20.2519 7.76301 20.4529 7.47989 20.5693 7.15931C21.3384 8.27415 21.8627 9.53918 22.1077 10.8712V10.8731ZM22.2752 12.6239C22.2752 12.8148 22.2186 13.0014 22.1125 13.1601C22.0065 13.3188 21.8557 13.4425 21.6794 13.5155C21.503 13.5886 21.309 13.6077 21.1217 13.5705C20.9345 13.5332 20.7626 13.4413 20.6276 13.3063C20.4926 13.1713 20.4007 12.9994 20.3635 12.8122C20.3262 12.6249 20.3453 12.4309 20.4184 12.2545C20.4914 12.0782 20.6151 11.9274 20.7738 11.8214C20.9326 11.7153 21.1192 11.6587 21.31 11.6587C21.566 11.6587 21.8115 11.7604 21.9925 11.9414C22.1735 12.1224 22.2752 12.3679 22.2752 12.6239ZM12.6239 19.3798C11.2877 19.3798 9.98149 18.9836 8.87049 18.2412C7.75949 17.4989 6.89357 16.4437 6.38223 15.2092C5.87089 13.9748 5.7371 12.6164 5.99778 11.3059C6.25846 9.99534 6.9019 8.79156 7.84673 7.84673C8.79156 6.9019 9.99534 6.25846 11.3059 5.99778C12.6164 5.7371 13.9748 5.87089 15.2092 6.38223C16.4437 6.89357 17.4989 7.75949 18.2412 8.87049C18.9836 9.98149 19.3798 11.2877 19.3798 12.6239C19.3779 14.4151 18.6655 16.1323 17.3989 17.3989C16.1323 18.6655 14.4151 19.3779 12.6239 19.3798ZM19.4488 7.16462C19.3168 7.29887 19.1486 7.39174 18.9646 7.43188C18.7807 7.47203 18.5891 7.45769 18.4132 7.39064C18.2372 7.32358 18.0847 7.20672 17.9742 7.05433C17.8636 6.90194 17.7999 6.72064 17.7908 6.53261C17.7816 6.34457 17.8275 6.15795 17.9228 5.99557C18.018 5.8332 18.1585 5.7021 18.3271 5.61833C18.4957 5.53455 18.6851 5.50172 18.872 5.52386C19.059 5.546 19.2354 5.62215 19.3798 5.74298C19.4219 5.78448 19.4634 5.82598 19.5043 5.86748C19.658 6.05187 19.7375 6.28693 19.7272 6.52678C19.717 6.76662 19.6177 6.99404 19.4488 7.16462ZM17.4013 5.11661C17.1146 5.40467 16.9272 5.77651 16.8661 6.17826C16.0522 5.6389 15.1429 5.25975 14.1869 5.06112C14.3881 4.78728 14.512 4.46434 14.5454 4.12615C14.5789 3.78797 14.5207 3.44702 14.377 3.13906C15.7104 3.38359 16.9768 3.90792 18.0928 4.67748C17.8334 4.7724 17.5975 4.92219 17.4013 5.11661ZM13.589 3.93771C13.589 4.12859 13.5324 4.31519 13.4263 4.4739C13.3203 4.63262 13.1696 4.75632 12.9932 4.82937C12.8169 4.90242 12.6228 4.92153 12.4356 4.88429C12.2484 4.84705 12.0764 4.75513 11.9414 4.62016C11.8064 4.48518 11.7145 4.31321 11.6773 4.12599C11.64 3.93878 11.6592 3.74472 11.7322 3.56837C11.8053 3.39201 11.929 3.24128 12.0877 3.13523C12.2464 3.02918 12.433 2.97258 12.6239 2.97258C12.8798 2.97258 13.1253 3.07426 13.3063 3.25526C13.4873 3.43625 13.589 3.68174 13.589 3.93771ZM11.0613 5.06208C10.1053 5.26071 9.19603 5.63987 8.38213 6.17922C8.3324 5.84183 8.1923 5.52419 7.97668 5.25997C7.76105 4.99575 7.47795 4.79481 7.15738 4.67844C8.27336 3.90888 9.53977 3.38456 10.8731 3.14003C10.7294 3.44799 10.6713 3.78894 10.7047 4.12712C10.7382 4.4653 10.862 4.78825 11.0633 5.06208H11.0613ZM5.86797 5.74298C6.05885 5.58413 6.30363 5.50497 6.55139 5.52197C6.79914 5.53897 7.03081 5.65082 7.19822 5.83426C7.36562 6.01769 7.45587 6.2586 7.4502 6.50688C7.44453 6.75515 7.34337 6.99168 7.16777 7.16729C6.99217 7.34289 6.75563 7.44404 6.50736 7.44971C6.25908 7.45539 6.01818 7.36514 5.83474 7.19773C5.6513 7.03033 5.53945 6.79866 5.52245 6.5509C5.50545 6.30315 5.58461 6.05837 5.74346 5.86748C5.78432 5.82566 5.82582 5.78416 5.86797 5.74298ZM4.90284 12.6239C4.90284 12.8148 4.84623 13.0014 4.74018 13.1601C4.63413 13.3188 4.4834 13.4425 4.30705 13.5155C4.13069 13.5886 3.93664 13.6077 3.74942 13.5705C3.5622 13.5332 3.39023 13.4413 3.25526 13.3063C3.12028 13.1713 3.02836 12.9994 2.99112 12.8122C2.95388 12.6249 2.973 12.4309 3.04604 12.2545C3.11909 12.0782 3.2428 11.9274 3.40151 11.8214C3.56023 11.7153 3.74682 11.6587 3.93771 11.6587C4.19368 11.6587 4.43916 11.7604 4.62016 11.9414C4.80115 12.1224 4.90284 12.3679 4.90284 12.6239ZM5.79896 18.0831C5.93073 17.95 6.0984 17.8581 6.28151 17.8186C6.46463 17.7791 6.65527 17.7938 6.83019 17.8608C7.00511 17.9278 7.15675 18.0443 7.26661 18.196C7.37647 18.3478 7.4398 18.5282 7.44889 18.7153C7.45797 18.9024 7.41242 19.0881 7.31777 19.2497C7.22313 19.4114 7.08349 19.542 6.91588 19.6256C6.74828 19.7093 6.55995 19.7423 6.37388 19.7208C6.1878 19.6992 6.01202 19.624 5.86797 19.5043C5.82598 19.4633 5.78497 19.4218 5.74395 19.3803C5.59015 19.1959 5.51058 18.9609 5.52075 18.7211C5.53092 18.4812 5.63011 18.2538 5.79896 18.0831ZM7.84648 20.1311C8.13311 19.8431 8.32055 19.4712 8.38165 19.0695C9.19555 19.6088 10.1049 19.988 11.0608 20.1866C10.8596 20.4605 10.7358 20.7834 10.7023 21.1216C10.6688 21.4598 10.727 21.8007 10.8707 22.1087C9.53735 21.8641 8.27095 21.3398 7.15497 20.5703C7.41438 20.4753 7.65026 20.3256 7.84648 20.1311ZM11.6587 21.31C11.6587 21.1192 11.7153 20.9326 11.8214 20.7738C11.9274 20.6151 12.0782 20.4914 12.2545 20.4184C12.4309 20.3453 12.6249 20.3262 12.8122 20.3635C12.9994 20.4007 13.1713 20.4926 13.3063 20.6276C13.4413 20.7626 13.5332 20.9345 13.5705 21.1217C13.6077 21.309 13.5886 21.503 13.5155 21.6794C13.4425 21.8557 13.3188 22.0065 13.1601 22.1125C13.0014 22.2186 12.8148 22.2752 12.6239 22.2752C12.3679 22.2752 12.1224 22.1735 11.9414 21.9925C11.7604 21.8115 11.6587 21.566 11.6587 21.31ZM17.8795 19.1448C17.8044 18.9678 17.784 18.7724 17.8207 18.5837C17.8574 18.395 17.9497 18.2215 18.0856 18.0856C18.2215 17.9497 18.395 17.8574 18.5837 17.8207C18.7724 17.784 18.9678 17.8044 19.1448 17.8795C18.6693 18.2439 18.2439 18.6693 17.8795 19.1448ZM20.0143 17.3048C19.746 17.0731 19.4185 16.9205 19.0685 16.8642C19.6079 16.0505 19.9871 15.1413 20.1857 14.1855C20.4607 14.3876 20.7854 14.5116 21.1252 14.5443C21.4651 14.5769 21.8074 14.5169 22.1159 14.3708C21.9652 15.1976 21.7056 16.0008 21.3438 16.7595C20.8825 16.8934 20.4368 17.0762 20.0143 17.3048ZM23.2403 29.0311C22.095 29.0311 20.9754 28.6914 20.0231 28.0551C19.0708 27.4188 18.3286 26.5145 17.8903 25.4563C17.452 24.3982 17.3373 23.2339 17.5608 22.1106C17.7842 20.9873 18.3357 19.9555 19.1456 19.1456C19.9555 18.3357 20.9873 17.7842 22.1106 17.5608C23.2339 17.3373 24.3982 17.452 25.4563 17.8903C26.5145 18.3286 27.4188 19.0708 28.0551 20.0231C28.6914 20.9754 29.0311 22.095 29.0311 23.2403C29.0294 24.7756 28.4188 26.2475 27.3332 27.3332C26.2475 28.4188 24.7756 29.0294 23.2403 29.0311Z" fill="white"/>
<path d="M23.2402 18.4149C22.2858 18.4149 21.3528 18.6979 20.5592 19.2282C19.7656 19.7584 19.1471 20.5121 18.7819 21.3939C18.4166 22.2756 18.3211 23.2459 18.5073 24.182C18.6935 25.1181 19.1531 25.9779 19.828 26.6528C20.5028 27.3277 21.3627 27.7873 22.2988 27.9735C23.2348 28.1597 24.2051 28.0641 25.0869 27.6989C25.9687 27.3336 26.7223 26.7151 27.2526 25.9215C27.7828 25.128 28.0658 24.195 28.0658 23.2406C28.0644 21.9612 27.5556 20.7345 26.6509 19.8299C25.7462 18.9252 24.5196 18.4163 23.2402 18.4149ZM23.2402 27.1011C22.4767 27.1011 21.7303 26.8747 21.0954 26.4505C20.4606 26.0263 19.9657 25.4233 19.6735 24.7179C19.3814 24.0125 19.3049 23.2363 19.4539 22.4874C19.6028 21.7385 19.9705 21.0507 20.5104 20.5108C21.0503 19.9709 21.7382 19.6032 22.4871 19.4542C23.2359 19.3053 24.0121 19.3817 24.7176 19.6739C25.423 19.9661 26.0259 20.4609 26.4501 21.0958C26.8743 21.7306 27.1007 22.477 27.1007 23.2406C27.0996 24.2641 26.6925 25.2454 25.9687 25.9691C25.245 26.6928 24.2637 27.0999 23.2402 27.1011Z" fill="white"/>
<path d="M23.2401 20.3453C22.6675 20.3453 22.1077 20.5151 21.6315 20.8332C21.1554 21.1514 20.7843 21.6036 20.5651 22.1326C20.346 22.6617 20.2886 23.2439 20.4004 23.8055C20.5121 24.3672 20.7878 24.8831 21.1928 25.288C21.5977 25.6929 22.1136 25.9687 22.6753 26.0804C23.2369 26.1921 23.8191 26.1348 24.3481 25.9157C24.8772 25.6965 25.3294 25.3254 25.6475 24.8493C25.9657 24.3731 26.1355 23.8133 26.1355 23.2407C26.1347 22.473 25.8294 21.737 25.2866 21.1942C24.7438 20.6513 24.0078 20.346 23.2401 20.3453ZM23.2401 25.1709C22.8583 25.1709 22.4852 25.0577 22.1677 24.8456C21.8503 24.6335 21.6029 24.3321 21.4568 23.9793C21.3107 23.6266 21.2725 23.2385 21.3469 22.8641C21.4214 22.4897 21.6053 22.1457 21.8752 21.8758C22.1452 21.6058 22.4891 21.422 22.8635 21.3475C23.238 21.273 23.6261 21.3112 23.9788 21.4573C24.3315 21.6034 24.633 21.8508 24.8451 22.1683C25.0572 22.4857 25.1704 22.8589 25.1704 23.2407C25.1704 23.7526 24.967 24.2436 24.605 24.6056C24.243 24.9676 23.7521 25.1709 23.2401 25.1709Z" fill="white"/>
</svg>
