<svg width="30" height="30" viewBox="0 0 30 30" fill="none" xmlns="http://www.w3.org/2000/svg">
<g clip-path="url(#clip0_108_264)">
<path d="M0 13.7959V16.2042C0.0903039 18.5764 3.49085 18.5746 3.58028 16.2042V13.7959C3.49003 11.4237 0.0894249 11.4255 0 13.7959ZM2.40826 13.7959V16.2042C2.37708 17.0233 1.2029 17.0227 1.17202 16.2042V13.7959C1.17202 13.4551 1.44932 13.1778 1.79014 13.1778C2.13096 13.1778 2.40826 13.4551 2.40826 13.7959Z" fill="white"/>
<path d="M27.3106 12.0057C26.987 12.0057 26.7246 12.2681 26.7246 12.5917V17.4083C26.7246 17.732 26.987 17.9943 27.3106 17.9943H29.4178C30.1945 17.9655 30.194 16.8509 29.4178 16.8223H27.8966V12.5917C27.8966 12.2681 27.6342 12.0057 27.3106 12.0057Z" fill="white"/>
<path d="M20.1017 12.5917V14.9259L18.8036 12.3297C18.682 12.0866 18.4092 11.9589 18.1448 12.0214C17.8802 12.0839 17.6934 12.32 17.6934 12.5917V17.4083C17.7222 18.185 18.8368 18.1844 18.8654 17.4083V15.0741L20.1635 17.6704C20.2845 17.9149 20.5631 18.0413 20.8223 17.9786C21.0868 17.9162 21.2737 17.6801 21.2737 17.4083V12.5917C21.2449 11.815 20.1302 11.8156 20.1017 12.5917Z" fill="white"/>
<path d="M8.0959 13.7958C8.0959 12.8087 7.29284 12.0057 6.30576 12.0057H5.10163C4.77798 12.0057 4.51562 12.268 4.51562 12.5917V17.4083C4.54446 18.185 5.6591 18.1844 5.68764 17.4083V15.586H5.94355L6.98577 17.6704C7.13104 17.9628 7.48868 18.0759 7.77202 17.9324C8.0615 17.7877 8.17882 17.4357 8.03408 17.1462L7.14844 15.3749C7.71183 15.073 8.0959 14.4785 8.0959 13.7958ZM5.68764 13.1777H6.30576C7.12155 13.2084 7.12582 14.3763 6.31133 14.4139C6.30594 14.4138 6.30055 14.4139 6.29522 14.4139H5.68764V13.1777Z" fill="white"/>
<path d="M25.2033 17.9943C25.527 17.9943 25.7893 17.732 25.7893 17.4083V13.7959C25.699 11.4237 22.2985 11.4255 22.209 13.7959V17.4083C22.2378 18.185 23.3525 18.1844 23.381 17.4083V16.188H24.6173V17.4083C24.6173 17.732 24.8797 17.9943 25.2033 17.9943ZM23.381 15.016V13.7959C23.4122 12.9768 24.5864 12.9773 24.6173 13.7959V15.016H23.381Z" fill="white"/>
<path d="M8.96338 12.5918V17.4083C8.99221 18.185 10.1069 18.1845 10.1354 17.4083V12.5918C10.1066 11.8151 8.99192 11.8157 8.96338 12.5918Z" fill="white"/>
<path d="M12.8604 13.1777C13.093 13.1777 13.3043 13.308 13.4116 13.5177C13.559 13.8058 13.912 13.9199 14.2002 13.7725C14.4884 13.625 14.6024 13.2719 14.455 12.9838C13.5944 11.3199 11.0844 11.9255 11.0703 13.7959V16.2042C11.1606 18.5764 14.5612 18.5746 14.6506 16.2042V15.3151C14.6506 14.9914 14.3882 14.7291 14.0646 14.7291H13.4626C12.6859 14.7579 12.6865 15.8725 13.4626 15.9011H13.4786V16.2042C13.4474 17.0233 12.2732 17.0227 12.2423 16.2042V13.7959C12.2423 13.455 12.5196 13.1777 12.8604 13.1777Z" fill="white"/>
<path d="M15.5859 12.5918V17.4083C15.6148 18.185 16.7294 18.1845 16.758 17.4083V12.5918C16.7291 11.8151 15.6145 11.8157 15.5859 12.5918Z" fill="white"/>
<path d="M0.586208 10.6049H29.4179C30.1946 10.5761 30.1941 9.46146 29.4179 9.43292H28.9361C23.8459 -3.1062 6.1537 -3.09957 1.06808 9.43292H0.586208C-0.190487 9.46175 -0.189901 10.5764 0.586208 10.6049ZM5.97315 9.43292C9.93972 2.75922 20.0658 2.76104 24.0311 9.43292H5.97315ZM15.0021 1.17014C20.4815 1.17014 25.4735 4.45958 27.6649 9.43292H25.3823C24.3888 7.58037 22.9179 6.02733 21.1198 4.93443C17.4469 2.65937 12.5572 2.65937 8.88438 4.93443C7.08633 6.02728 5.61539 7.58037 4.62193 9.43292H2.33925C4.53069 4.45958 9.52266 1.17014 15.0021 1.17014Z" fill="white"/>
<path d="M29.4175 19.395H0.58572C-0.190976 19.4239 -0.19039 20.5385 0.58572 20.567H1.06759C6.15766 33.1062 23.8501 33.0995 28.9356 20.567H29.4175C30.1941 20.5383 30.1936 19.4236 29.4175 19.395ZM24.0305 20.567C20.0639 27.2407 9.93783 27.2389 5.9726 20.567H24.0305ZM15.0016 28.8298C9.52211 28.8298 4.53014 25.5404 2.33876 20.567H4.62138C9.04762 28.8211 20.9582 28.8177 25.3817 20.567H27.6644C25.473 25.5404 20.4811 28.8298 15.0016 28.8298Z" fill="white"/>
</g>
<defs>
<clipPath id="clip0_108_264">
<rect width="30" height="30" fill="white"/>
</clipPath>
</defs>
</svg>
