<svg width="30" height="30" viewBox="0 0 30 30" fill="none" xmlns="http://www.w3.org/2000/svg">
<path d="M14.2905 26.2115C13.7089 26.4789 13.1108 26.7089 12.5 26.9C8.85959 25.8135 5.84613 23.2425 4.20002 19.8184C3.90247 19.1864 2.99999 17.2629 2.99999 16V7.87557C7.644 7.39491 10.684 5.63596 12.5 4.11549C14.3161 5.63596 17.3561 7.39491 21.9999 7.87557V16C21.9693 16.6294 21.8411 17.2503 21.62 17.8404C21.539 18.0999 21.6802 18.3767 21.9377 18.4634C22.1954 18.5502 22.4751 18.4151 22.5676 18.1595C22.8241 17.4669 22.9702 16.7381 23.0001 16V7.41986C23.0008 7.15916 22.8012 6.9415 22.5415 6.91998C17.6111 6.50845 14.5416 4.60507 12.833 3.08003C12.6432 2.91066 12.3567 2.91066 12.1669 3.08003C10.4595 4.60507 7.38903 6.50845 2.45845 6.91998C2.19867 6.9415 1.99909 7.15916 2 7.41986V16C2 17.4865 2.93956 19.489 3.30806 20.275C5.09952 23.9902 8.39061 26.7652 12.3551 27.9034C12.4496 27.932 12.5505 27.932 12.6451 27.9034C13.3505 27.6899 14.0401 27.4278 14.7096 27.1195C14.8716 27.0446 14.9817 26.889 14.998 26.7109C15.0142 26.5331 14.9343 26.3601 14.7885 26.2571C14.6425 26.1541 14.4528 26.1367 14.2905 26.2115Z" fill="white"/>
<path d="M28.0646 21.4455C27.8792 21.1672 27.567 21.0001 27.2326 20.9999H26.0001V20.5C26.0001 19.9477 25.5524 19.5 25.0001 19.5H24.2054C24.6824 18.3918 24.9518 17.2055 25.0001 16V5.9951C25.0003 5.45609 24.5737 5.01389 24.0351 4.99489C16.314 4.8365 13.2655 0.718002 12.9604 0.274429C12.873 0.10643 12.6995 0.000686648 12.51 0C12.5054 0 12.4999 0 12.4999 0H12.48C12.418 0.00114441 12.3571 0.0141907 12.3001 0.0384521L12.2921 0.042572C12.1788 0.0883484 12.0868 0.174637 12.0335 0.2845C11.6881 0.780945 8.62793 4.8381 0.967026 4.99489C0.427551 5.01274 -0.00022879 5.4554 9.18036e-08 5.9951V16C9.18036e-08 17.7605 0.858078 19.7706 1.50352 21.1295C3.62457 25.5453 7.59888 28.7894 12.35 29.9831C12.4061 29.994 12.4628 29.9998 12.5201 30C12.5638 29.9998 12.6073 29.994 12.6496 29.9831C14.2806 29.5464 15.8407 28.8787 17.2824 28H17.5001C17.5001 29.1046 18.3955 30 19.5 30C20.6046 30 21.5 29.1046 21.5 28H23.5C23.5 29.1046 24.3954 30 25.5 30C26.6045 30 27.4999 29.1046 27.4999 28H29.4999C29.7762 28 30 27.7762 30 27.4999V24.6499C30.0002 24.4524 29.9419 24.2592 29.832 24.0951L28.0646 21.4455ZM25.0001 24.0001H17V20.5H25.0001V24.0001ZM12.4999 28.9874C8.07861 27.8476 4.38515 24.8151 2.40646 20.7001C1.80244 19.4284 0.999985 17.558 0.999985 16L0.985565 5.9951C8.02757 5.84999 11.4024 2.64542 12.4999 1.32156C13.597 2.64542 16.97 5.85045 24.0001 5.9951V16C23.9353 17.2117 23.6389 18.3998 23.1269 19.5H17C16.4477 19.5 16 19.9477 16 20.5V27.4999C16.003 27.5249 16.008 27.5494 16.0151 27.5734C14.9007 28.1763 13.7215 28.6507 12.4999 28.9874ZM19.5 29C18.9478 29 18.5001 28.5523 18.5001 28C18.5001 27.4477 18.9478 27 19.5 27C20.0523 27 20.5 27.4477 20.5 28C20.5 28.5523 20.0523 29 19.5 29ZM21.2219 27C20.8692 26.3816 20.2119 25.9998 19.5 25.9998C18.788 25.9998 18.1309 26.3816 17.7779 27H17V25.0001H25.0001V26.071C24.4853 26.2058 24.0456 26.5402 23.7781 27H21.2219ZM25.5 29C24.9477 29 24.5 28.5523 24.5 28C24.5 27.4477 24.9477 27 25.5 27C26.0522 27 26.4999 27.4477 26.4999 28C26.4999 28.5523 26.0522 29 25.5 29ZM29 27H27.2221C26.9545 26.5402 26.5146 26.2058 26.0001 26.071V21.9999H27.2326L29 24.6499V27Z" fill="white"/>
<path d="M26.5 24.4999C26.5 24.7761 26.7238 25 27.0001 25H27.5C27.7762 25 28.0001 24.7761 28.0001 24.4999C28.0001 24.2238 27.7762 24 27.5 24H27.0001C26.7238 24 26.5 24.2238 26.5 24.4999Z" fill="white"/>
<path d="M17 14.4999C16.7239 14.4999 16.5001 14.724 16.5001 15C16.5001 17.2092 14.7091 18.9999 12.4999 18.9999C10.2908 18.9999 8.49998 17.2092 8.49998 15C8.49998 12.7908 10.2908 11 12.4999 11C12.7762 11 13 10.7762 13 10.4999C13 10.2239 12.7762 10.0001 12.4999 10.0001C9.73846 10.0001 7.5 12.2385 7.5 15C7.5 17.7614 9.73846 19.9999 12.4999 19.9999C15.2614 19.9999 17.5001 17.7614 17.5001 15C17.5001 14.8675 17.4474 14.7402 17.3536 14.6464C17.2598 14.5528 17.1327 14.4999 17 14.4999Z" fill="white"/>
<path d="M10.8533 14.6466C10.6571 14.4571 10.3451 14.4599 10.1522 14.6526C9.95947 14.8455 9.95673 15.1573 10.1462 15.3534L11.6461 16.8535C11.7397 16.9476 11.867 17.0004 11.9997 17H12.0222C12.1625 16.9936 12.2938 16.9286 12.3842 16.821L17.3842 10.8211C17.4986 10.6838 17.5311 10.4956 17.4695 10.3279C17.4077 10.1599 17.2613 10.0379 17.085 10.0072C16.9088 9.97675 16.7298 10.0427 16.6151 10.18L11.9652 15.7599L10.8533 14.6466Z" fill="white"/>
<path d="M4.99998 9.49994C4.99998 9.22391 4.77614 9.00006 4.50011 9.00006C4.22385 9.00006 4 9.22391 4 9.49994V10C4 10.2761 4.22385 10.4999 4.50011 10.4999C4.77614 10.4999 4.99998 10.2761 4.99998 10V9.49994Z" fill="white"/>
<path d="M4.50011 11.4999C4.22385 11.4999 4 11.7237 4 12V14.4998C4 14.7761 4.22385 14.9999 4.50011 14.9999C4.77614 14.9999 4.99998 14.7761 4.99998 14.4998V12C4.99998 11.7237 4.77614 11.4999 4.50011 11.4999Z" fill="white"/>
</svg>
