<svg width="27" height="30" viewBox="0 0 27 30" fill="none" xmlns="http://www.w3.org/2000/svg">
<path d="M24.5 0H4.5C3.83719 0.000744409 3.20173 0.264376 2.73306 0.733055C2.26438 1.20173 2.00074 1.83719 2 2.5V25H0.5C0.367392 25 0.240215 25.0527 0.146447 25.1464C0.0526785 25.2402 0 25.3674 0 25.5V27.5C0.000744409 28.1628 0.264375 28.7983 0.733055 29.2669C1.20173 29.7356 1.83719 29.9993 2.5 30H20.5C21.1628 29.9993 21.7983 29.7356 22.2669 29.2669C22.7356 28.7983 22.9993 28.1628 23 27.5V5H26.5C26.6326 5 26.7598 4.94732 26.8536 4.85355C26.9473 4.75979 27 4.63261 27 4.5V2.5C26.9993 1.83719 26.7356 1.20173 26.2669 0.733055C25.7983 0.264376 25.1628 0.000744409 24.5 0ZM2.5 29C2.10231 28.9996 1.72104 28.8414 1.43983 28.5602C1.15863 28.279 1.00045 27.8977 1 27.5V26H18V27.5C17.9994 28.0412 18.1754 28.5679 18.5012 29H2.5ZM22 27.5C22 27.8978 21.842 28.2794 21.5607 28.5607C21.2794 28.842 20.8978 29 20.5 29C20.1022 29 19.7206 28.842 19.4393 28.5607C19.158 28.2794 19 27.8978 19 27.5V25.5C19 25.3674 18.9473 25.2402 18.8536 25.1464C18.7598 25.0527 18.6326 25 18.5 25H3V2.5C3.00045 2.10231 3.15863 1.72104 3.43983 1.43983C3.72104 1.15863 4.10231 1.00045 4.5 1H22.5014C22.1755 1.43211 21.9994 1.95876 22 2.5V27.5ZM26 4H23V2.5C23 2.10218 23.158 1.72064 23.4393 1.43934C23.7206 1.15804 24.1022 1 24.5 1C24.8978 1 25.2794 1.15804 25.5607 1.43934C25.842 1.72064 26 2.10218 26 2.5V4Z" fill="white"/>
<path d="M12.3345 11C12.8289 11 13.3123 10.8534 13.7234 10.5787C14.1345 10.304 14.455 9.91353 14.6442 9.45671C14.8334 8.9999 14.8829 8.49723 14.7864 8.01228C14.69 7.52732 14.4519 7.08187 14.1022 6.73223C13.7526 6.3826 13.3072 6.1445 12.8222 6.04804C12.3372 5.95157 11.8346 6.00108 11.3778 6.1903C10.9209 6.37952 10.5305 6.69995 10.2558 7.11108C9.98109 7.5222 9.83447 8.00555 9.83447 8.5C9.83522 9.16281 10.0988 9.79827 10.5675 10.2669C11.0362 10.7356 11.6717 10.9993 12.3345 11ZM12.3345 7C12.6311 7 12.9212 7.08797 13.1678 7.2528C13.4145 7.41762 13.6068 7.65189 13.7203 7.92598C13.8338 8.20007 13.8635 8.50167 13.8057 8.79264C13.7478 9.08361 13.6049 9.35088 13.3951 9.56066C13.1854 9.77044 12.9181 9.9133 12.6271 9.97118C12.3361 10.0291 12.0345 9.99935 11.7604 9.88582C11.4864 9.77229 11.2521 9.58003 11.0873 9.33336C10.9224 9.08668 10.8345 8.79667 10.8345 8.5C10.8349 8.10231 10.9931 7.72104 11.2743 7.43983C11.5555 7.15863 11.9368 7.00045 12.3345 7Z" fill="white"/>
<path d="M17.2682 14.5607C16.8651 14.1597 16.5454 13.6827 16.3278 13.1573C16.1102 12.632 15.999 12.0687 16.0005 11.5C16.0004 11.4619 15.9959 11.4239 15.9872 11.3868C16.0314 11.3416 16.0723 11.2933 16.1095 11.2422C16.2438 11.06 16.3264 10.8449 16.3488 10.6197C16.3711 10.3945 16.3323 10.1674 16.2365 9.96233C16.2083 9.89991 16.2044 9.82921 16.2256 9.76407C16.2468 9.69893 16.2915 9.64404 16.351 9.61014L16.3541 9.60839C16.5502 9.49743 16.7134 9.33638 16.827 9.14171C16.9406 8.94703 17.0005 8.7257 17.0005 8.50032C17.0006 8.27493 16.9408 8.05357 16.8273 7.85884C16.7138 7.66412 16.5507 7.503 16.3546 7.39195L16.351 7.38989C16.2914 7.35586 16.2467 7.3008 16.2255 7.2355C16.2044 7.1702 16.2085 7.09937 16.2369 7.03689C16.331 6.8315 16.3688 6.60476 16.3464 6.37994C16.324 6.15512 16.2421 5.94031 16.1093 5.75756C15.9764 5.57481 15.7974 5.43069 15.5904 5.33999C15.3835 5.24929 15.1562 5.21528 14.9317 5.24145C14.8637 5.24899 14.7953 5.23086 14.7399 5.19061C14.6844 5.15036 14.6461 5.09089 14.6322 5.02382L14.6315 5.02045C14.5866 4.79951 14.4839 4.59444 14.3338 4.42621C14.1837 4.25797 13.9916 4.13259 13.7772 4.06289C13.5628 3.99318 13.3338 3.98164 13.1134 4.02945C12.8931 4.07726 12.6894 4.18271 12.5232 4.33501L12.5226 4.33564L12.5203 4.3377C12.4696 4.38391 12.4034 4.40946 12.3347 4.40934C12.2661 4.40923 12.2 4.38345 12.1494 4.33707C11.9835 4.18442 11.7801 4.07853 11.5599 4.03023C11.3397 3.98193 11.1106 3.99295 10.8961 4.06216C10.6815 4.13137 10.4892 4.25629 10.3387 4.42416C10.1883 4.59203 10.0851 4.79683 10.0397 5.01764L10.0384 5.02389C10.0243 5.09102 9.98575 5.1505 9.9302 5.19071C9.87464 5.23093 9.80609 5.249 9.73793 5.24139C9.51351 5.21535 9.2862 5.24949 9.07932 5.3403C8.87245 5.43111 8.69346 5.57533 8.56072 5.75815C8.42797 5.94097 8.34626 6.15581 8.32396 6.38064C8.30166 6.60546 8.33957 6.83218 8.43381 7.03751C8.46201 7.09993 8.46591 7.17063 8.44473 7.23577C8.42355 7.30091 8.37883 7.3558 8.31931 7.3897L8.31625 7.39145C8.12007 7.50241 7.95686 7.66346 7.84328 7.85813C7.72971 8.05281 7.66984 8.27414 7.66979 8.49952C7.66974 8.72491 7.72951 8.94627 7.84299 9.14099C7.95648 9.33572 8.11962 9.49684 8.31575 9.60789L8.31931 9.60995C8.37891 9.64398 8.42365 9.69904 8.44476 9.76434C8.46587 9.82964 8.46183 9.90047 8.43343 9.96295C8.33776 10.1679 8.2991 10.3949 8.32151 10.62C8.34393 10.8451 8.42659 11.0599 8.56081 11.242C8.67526 11.4007 8.82468 11.5309 8.9975 11.6226C8.96961 12.7281 8.51662 13.7804 7.73275 14.5605L6.64693 15.6463C6.57203 15.7212 6.52285 15.8179 6.50649 15.9226C6.49013 16.0273 6.50743 16.1344 6.5559 16.2286C6.60438 16.3228 6.68151 16.3992 6.77619 16.4467C6.87087 16.4942 6.97819 16.5104 7.08268 16.493L9.60518 16.0726L10.0102 18.0976C10.0301 18.1975 10.0801 18.2889 10.1534 18.3595C10.2267 18.4302 10.3199 18.4768 10.4204 18.4932C10.5209 18.5095 10.624 18.4947 10.7159 18.4508C10.8078 18.4069 10.8841 18.3361 10.9346 18.2476L12.2985 15.861C12.3716 15.7331 12.4385 15.6021 12.5005 15.4691C12.5625 15.6021 12.6294 15.7331 12.7025 15.861L14.0664 18.2476C14.1169 18.3361 14.1932 18.4069 14.2851 18.4508C14.377 18.4947 14.4801 18.5095 14.5806 18.4932C14.6811 18.4768 14.7743 18.4302 14.8476 18.3595C14.9209 18.2889 14.9708 18.1975 14.9908 18.0976L15.3958 16.0726L17.9183 16.493C18.0228 16.5104 18.1301 16.4942 18.2248 16.4467C18.3195 16.3992 18.3966 16.3228 18.4451 16.2286C18.4936 16.1344 18.5109 16.0273 18.4945 15.9226C18.4781 15.8179 18.429 15.7212 18.3541 15.6463L17.2682 14.5607ZM8.80912 8.73826C8.76685 8.71448 8.73167 8.67988 8.70719 8.63801C8.68271 8.59614 8.6698 8.54851 8.6698 8.50001C8.6698 8.45151 8.68271 8.40388 8.70719 8.36202C8.73167 8.32015 8.76685 8.28555 8.80912 8.26176L8.81225 8.25995C9.08871 8.10151 9.29621 7.84573 9.39425 7.54254C9.49229 7.23936 9.47384 6.91052 9.3425 6.6202C9.32224 6.57602 9.31413 6.52724 9.31899 6.47887C9.32385 6.43051 9.34152 6.38432 9.37017 6.34506C9.39882 6.3058 9.43742 6.27488 9.48199 6.25549C9.52656 6.23611 9.57549 6.22895 9.62375 6.23476C9.9399 6.26999 10.2578 6.18623 10.5156 5.99979C10.7733 5.81336 10.9524 5.53762 11.0179 5.22633L11.0192 5.22008C11.0288 5.17246 11.051 5.12825 11.0833 5.09201C11.1156 5.05577 11.1571 5.02879 11.2033 5.01386C11.2495 4.99893 11.2989 4.99658 11.3463 5.00705C11.3938 5.01753 11.4375 5.04044 11.4732 5.07345C11.709 5.28819 12.0165 5.40721 12.3355 5.40721C12.6544 5.40721 12.9619 5.28819 13.1977 5.07345L13.1985 5.07283C13.2342 5.03999 13.278 5.01724 13.3253 5.0069C13.3727 4.99657 13.422 4.99902 13.4681 5.014C13.5142 5.02899 13.5556 5.05597 13.5878 5.09218C13.6201 5.1284 13.6421 5.17253 13.6517 5.22008L13.6524 5.22351C13.7177 5.5354 13.8968 5.81178 14.1549 5.99872C14.4129 6.18567 14.7314 6.26978 15.0481 6.23464C15.0963 6.22902 15.1452 6.23637 15.1897 6.25592C15.2342 6.27547 15.2726 6.30653 15.3011 6.34588C15.3296 6.38524 15.3471 6.43147 15.3518 6.47983C15.3564 6.52819 15.3482 6.57692 15.3277 6.62101C15.1967 6.91119 15.1784 7.23977 15.2765 7.5427C15.3745 7.84562 15.5818 8.10121 15.8579 8.25964L15.8615 8.2617C15.9038 8.28548 15.9389 8.32009 15.9634 8.36195C15.9879 8.40382 16.0008 8.45145 16.0008 8.49995C16.0008 8.54845 15.9879 8.59608 15.9634 8.63795C15.9389 8.67982 15.9038 8.71442 15.8615 8.7382L15.8584 8.74001C15.5819 8.89846 15.3744 9.15423 15.2764 9.45742C15.1783 9.76061 15.1968 10.0894 15.3281 10.3798C15.3484 10.4239 15.3565 10.4727 15.3516 10.5211C15.3468 10.5694 15.3291 10.6156 15.3004 10.6549C15.2718 10.6942 15.2332 10.7251 15.1886 10.7445C15.1441 10.7639 15.0951 10.771 15.0469 10.7652C14.7307 10.7299 14.4127 10.8136 14.155 11.0001C13.8972 11.1865 13.7181 11.4623 13.6527 11.7736L13.6514 11.7799C13.6418 11.8275 13.6197 11.8717 13.5873 11.908C13.555 11.9442 13.5136 11.9712 13.4673 11.9861C13.4211 12.001 13.3717 12.0034 13.3243 11.9929C13.2769 11.9824 13.2331 11.9595 13.1974 11.9265C12.9614 11.7118 12.6538 11.5928 12.3347 11.5929C12.0156 11.593 11.708 11.7122 11.4721 11.9271C11.4364 11.96 11.3927 11.9827 11.3453 11.9931C11.2979 12.0034 11.2486 12.0009 11.2025 11.986C11.1564 11.971 11.1151 11.944 11.0828 11.9078C11.0506 11.8716 11.0285 11.8274 11.0189 11.7799L11.0182 11.7765C10.953 11.4645 10.7739 11.1881 10.5158 11.0012C10.2578 10.8142 9.93928 10.7301 9.62256 10.7653C9.5743 10.7709 9.52542 10.7636 9.48094 10.744C9.43646 10.7245 9.398 10.6934 9.36951 10.6541C9.34103 10.6147 9.32354 10.5685 9.31886 10.5201C9.31417 10.4718 9.32246 10.423 9.34287 10.379C9.47392 10.0888 9.49225 9.76026 9.3943 9.45734C9.29634 9.15441 9.08912 8.89881 8.813 8.74033L8.80912 8.73826ZM11.4302 15.3653L10.7289 16.5925L10.4908 15.402C10.4653 15.2747 10.3914 15.1623 10.2845 15.0885C10.1777 15.0148 10.0464 14.9855 9.91831 15.0068L8.45725 15.2506C9.35964 14.3444 9.90302 13.1419 9.98675 11.8658C10.0122 11.8982 10.0299 11.9361 10.0384 11.9765L10.0391 11.9798C10.0808 12.1852 10.1727 12.3771 10.3064 12.5384C10.4401 12.6998 10.6115 12.8257 10.8056 12.9049C10.9996 12.9841 11.2102 13.0142 11.4186 12.9926C11.627 12.9709 11.8269 12.8981 12.0005 12.7807V13.2178C12.0002 13.971 11.8036 14.7111 11.4302 15.3653ZM15.0827 15.0068C14.9546 14.9855 14.8233 15.0148 14.7165 15.0885C14.6096 15.1623 14.5356 15.2747 14.5102 15.402L14.2721 16.5925L13.5708 15.3653C13.1974 14.7111 13.0008 13.971 13.0005 13.2178V12.9416C13.1223 12.9807 13.2494 13.0007 13.3772 13.001C13.513 13.0008 13.6479 12.9792 13.7769 12.937C13.9917 12.8691 14.1843 12.7446 14.3345 12.5767C14.4847 12.4087 14.587 12.2034 14.6306 11.9824L14.6319 11.9761C14.6458 11.9089 14.6844 11.8494 14.74 11.8091C14.7956 11.7689 14.8642 11.7509 14.9324 11.7586C14.9574 11.7615 14.9824 11.7633 15.0069 11.7649C15.0686 13.0772 15.6164 14.3197 16.5437 15.2503L15.0827 15.0068Z" fill="white"/>
<path d="M12.3125 21.5C12.6577 21.5 12.9375 21.2202 12.9375 20.875C12.9375 20.5298 12.6577 20.25 12.3125 20.25C11.9673 20.25 11.6875 20.5298 11.6875 20.875C11.6875 21.2202 11.9673 21.5 12.3125 21.5Z" fill="white"/>
<path d="M10.1875 21.5C10.5327 21.5 10.8125 21.2202 10.8125 20.875C10.8125 20.5298 10.5327 20.25 10.1875 20.25C9.84232 20.25 9.5625 20.5298 9.5625 20.875C9.5625 21.2202 9.84232 21.5 10.1875 21.5Z" fill="white"/>
<path d="M14.4375 21.5C14.7827 21.5 15.0625 21.2202 15.0625 20.875C15.0625 20.5298 14.7827 20.25 14.4375 20.25C14.0923 20.25 13.8125 20.5298 13.8125 20.875C13.8125 21.2202 14.0923 21.5 14.4375 21.5Z" fill="white"/>
</svg>
