<svg width="1646" height="1596" viewBox="0 0 1646 1596" fill="none" xmlns="http://www.w3.org/2000/svg">
<g filter="url(#filter0_f_2002_11)">
<ellipse cx="987.5" cy="659.5" rx="258.5" ry="259.5" fill="white"/>
</g>
<g filter="url(#filter1_f_2002_11)">
<ellipse cx="614.5" cy="1030" rx="243.5" ry="244" fill="#DB2D2D"/>
</g>
<mask id="path-3-inside-1_2002_11" fill="white">
<path d="M791.631 1277.13C797.246 1286.93 799.594 1297.75 799.288 1308.47C816.847 1294.28 832.875 1278.15 847.167 1260.7H846.146C835.631 1260.7 825.116 1257.94 815.928 1252.63C803.269 1245.18 794.081 1233.74 789.385 1220.06C780.095 1230.99 769.886 1241.2 758.861 1250.49C772.438 1255.29 784.178 1264.47 791.631 1277.13Z"/>
<path d="M653.812 763.118C653.812 778.227 647.993 791.805 638.805 802.32C653.097 804.974 667.083 808.752 680.559 813.652C677.803 799.36 679.946 784.761 687.195 772C692.81 762.302 700.875 754.645 710.471 749.541C689.441 741.476 667.492 735.452 644.726 731.777C650.443 740.965 653.812 751.684 653.812 763.118Z"/>
<path d="M799.39 800.891C799.594 811.814 797.144 822.534 791.631 832.232C784.178 844.891 772.54 854.283 759.065 858.877C769.988 868.167 780.197 878.376 789.487 889.299C794.285 875.619 803.269 863.981 816.03 856.835C825.218 851.527 835.631 848.668 846.248 848.668C846.656 848.668 846.963 848.77 847.371 848.77C832.977 831.211 816.949 815.285 799.39 800.891Z"/>
<path d="M710.369 1359.82C700.977 1354.51 692.81 1346.86 687.195 1337.16C679.64 1324.09 677.905 1309.39 680.559 1295.71C667.083 1300.61 653.199 1304.39 638.805 1307.04C647.993 1317.56 653.812 1331.14 653.812 1346.25C653.812 1357.68 650.443 1368.4 644.93 1377.38C667.492 1373.91 689.543 1367.89 710.369 1359.82Z"/>
<path d="M846.146 873.884C840.021 873.884 833.997 875.517 828.587 878.682C820.522 883.378 814.805 890.831 812.253 899.916C809.905 908.798 811.13 918.394 815.928 926.459C822.053 937.281 833.691 943.916 846.248 943.916C852.271 943.916 858.294 942.283 863.705 939.22C871.77 934.524 877.487 927.072 880.039 917.986C882.387 908.9 881.162 899.508 876.568 891.341C870.239 880.622 858.601 873.884 846.146 873.884Z"/>
<path d="M756.921 771.898C751.51 768.733 745.487 767.1 739.464 767.1C726.907 767.1 715.371 773.735 709.144 784.557C704.346 792.724 703.121 802.116 705.469 811.202C708.021 820.288 713.738 827.842 721.803 832.436C738.137 841.828 760.392 835.703 769.784 819.573C774.276 811.508 775.603 802.116 773.153 793.03C770.805 784.046 764.986 776.492 756.921 771.898Z"/>
<path d="M876.16 960.965C866.972 966.274 856.661 969.03 846.146 969.03C842.267 969.03 838.489 968.52 834.712 967.907C839.612 981.281 843.39 995.165 845.942 1009.56C856.457 1000.37 870.239 994.552 885.246 994.552C896.68 994.552 907.297 997.921 916.383 1003.64C912.708 980.77 906.684 958.719 898.619 937.791C893.515 947.285 885.858 955.452 876.16 960.965Z"/>
<path d="M885.246 1019.67C865.849 1019.67 850.128 1035.39 850.128 1054.58C850.128 1073.98 865.849 1089.7 885.246 1089.7C904.438 1089.7 920.16 1073.98 920.16 1054.58C920.16 1035.39 904.438 1019.67 885.246 1019.67Z"/>
<path d="M898.721 1171.78C906.786 1150.75 912.809 1128.7 916.485 1105.93C907.297 1111.44 896.782 1114.81 885.348 1114.81C870.239 1114.81 856.559 1108.99 846.044 1099.8C843.492 1114.1 839.612 1128.08 834.814 1141.56C838.591 1140.84 842.369 1140.33 846.35 1140.33C856.763 1140.33 867.074 1143.09 876.262 1148.4C886.164 1154.01 893.515 1162.39 898.721 1171.78Z"/>
<path d="M876.466 1217.92C886.165 1201.28 880.346 1179.84 863.603 1170.14C858.295 1167.08 852.271 1165.45 846.248 1165.45C833.691 1165.45 821.951 1172.08 815.826 1182.9C811.028 1191.07 809.803 1200.46 812.151 1209.45C814.703 1218.53 820.42 1226.09 828.485 1230.78C833.895 1233.85 839.919 1235.48 846.044 1235.48C858.601 1235.48 870.239 1228.84 876.466 1217.92Z"/>
<path d="M506.601 1295.71C509.357 1309.9 507.213 1324.5 499.863 1337.16C494.452 1346.86 486.285 1354.62 476.893 1359.82C497.719 1367.89 519.77 1373.91 542.434 1377.38C536.921 1368.3 533.552 1357.68 533.552 1346.25C533.552 1331.14 539.371 1317.56 548.559 1307.04C533.96 1304.39 520.076 1300.61 506.601 1295.71Z"/>
<path d="M447.696 767.1C441.673 767.1 435.65 768.733 430.239 771.898C422.174 776.594 416.253 784.046 413.905 793.132C411.557 802.218 412.782 811.61 417.376 819.777C426.666 835.703 448.921 841.93 465.255 832.436C473.32 827.74 479.037 820.288 481.589 811.202C483.937 802.116 482.712 792.724 478.118 784.659C471.891 773.735 460.355 767.1 447.696 767.1Z"/>
<path d="M310.592 891.443C306.1 899.508 304.773 908.9 307.223 917.986C309.775 927.072 315.492 934.626 323.557 939.22C339.891 948.612 362.146 942.487 371.334 926.561C376.132 918.394 377.357 908.798 375.009 899.814C372.457 890.933 366.74 883.378 358.675 878.682C353.264 875.517 347.241 873.884 341.116 873.884C328.559 873.884 316.921 880.622 310.592 891.443Z"/>
<path d="M395.529 832.334C390.016 822.534 387.464 811.814 387.77 800.891C370.313 815.183 354.183 831.211 339.891 848.77C340.299 848.77 340.606 848.668 341.014 848.668C351.529 848.668 362.044 851.527 371.232 856.835C383.891 864.083 392.977 875.517 397.775 889.299C407.065 878.376 417.274 868.167 428.197 858.877C414.721 854.181 402.981 844.891 395.529 832.334Z"/>
<path d="M476.689 749.541C486.285 754.645 494.452 762.506 499.965 772.204C507.213 784.761 509.357 799.36 506.601 813.652C520.076 808.752 533.96 804.974 548.355 802.32C539.167 791.805 533.348 778.227 533.348 763.118C533.348 751.684 536.717 740.965 542.434 731.777C519.668 735.452 497.617 741.476 476.689 749.541Z"/>
<path d="M593.58 1235.79C693.657 1235.79 774.786 1154.66 774.786 1054.58C774.786 954.502 693.657 873.373 593.58 873.373C493.502 873.373 412.373 954.502 412.373 1054.58C412.373 1154.66 493.502 1235.79 593.58 1235.79Z"/>
<path d="M558.462 1346.25C558.462 1365.64 574.183 1381.36 593.58 1381.36C612.977 1381.36 628.698 1365.64 628.698 1346.25C628.698 1326.85 612.977 1311.13 593.58 1311.13C574.183 1311.23 558.462 1326.95 558.462 1346.25Z"/>
<path d="M825.014 1054.58C825.014 926.97 721.19 823.146 593.58 823.146C465.97 823.146 362.146 926.97 362.146 1054.58C362.146 1182.19 465.97 1286.01 593.58 1286.01C721.19 1286.01 825.014 1182.19 825.014 1054.58ZM593.58 1260.9C479.854 1260.9 387.26 1168.41 387.26 1054.58C387.26 940.854 479.752 848.26 593.58 848.26C707.408 848.26 799.9 940.752 799.9 1054.58C799.9 1168.41 707.306 1260.9 593.58 1260.9Z"/>
<path d="M739.464 1342.26C745.487 1342.26 751.51 1340.63 756.921 1337.57C773.664 1327.87 779.38 1306.43 769.784 1289.69C763.659 1278.87 751.919 1272.23 739.362 1272.23C733.237 1272.23 727.213 1273.87 721.905 1276.93C705.162 1286.63 699.548 1308.06 709.246 1324.71C715.269 1335.63 726.805 1342.26 739.464 1342.26Z"/>
<path d="M430.239 1337.57C435.65 1340.63 441.673 1342.26 447.696 1342.26C460.253 1342.26 471.789 1335.63 478.016 1324.81C482.814 1316.64 484.039 1307.25 481.691 1298.16C479.139 1289.08 473.422 1281.52 465.357 1276.93C460.049 1273.87 454.025 1272.23 447.9 1272.23C435.343 1272.23 423.603 1278.87 417.376 1289.69C407.779 1306.43 413.599 1327.97 430.239 1337.57Z"/>
<path d="M628.698 763.118C628.698 743.824 612.977 728 593.58 728C574.183 728 558.462 743.824 558.462 763.118C558.462 782.515 574.183 798.032 593.58 798.032C612.977 798.032 628.698 782.413 628.698 763.118Z"/>
<path d="M387.872 1308.47C387.668 1297.96 389.914 1287.14 395.529 1277.13C402.981 1264.47 414.619 1255.29 428.197 1250.49C417.172 1241.2 406.963 1230.99 397.673 1220.06C392.977 1233.74 383.891 1245.18 371.13 1252.63C361.942 1257.94 351.529 1260.7 340.912 1260.7H339.891C354.285 1278.15 370.313 1294.28 387.872 1308.47Z"/>
<path d="M301.914 1089.7C321.311 1089.7 337.032 1073.98 337.032 1054.58C337.032 1035.39 321.311 1019.67 301.914 1019.67C282.722 1019.67 267 1035.39 267 1054.58C267 1073.98 282.722 1089.7 301.914 1089.7Z"/>
<path d="M288.438 937.689C280.373 958.719 274.35 980.668 270.675 1003.54C279.863 997.921 290.378 994.45 301.812 994.45C316.921 994.45 330.499 1000.27 341.116 1009.46C343.668 995.165 347.445 981.281 352.346 967.805C348.568 968.418 344.791 968.928 340.912 968.928C330.499 968.928 320.086 966.172 310.898 960.863C301.302 955.452 293.645 947.285 288.438 937.689Z"/>
<path d="M311 1148.4C320.188 1143.09 330.499 1140.33 341.014 1140.33C344.893 1140.33 348.67 1140.84 352.448 1141.56C347.548 1128.08 343.77 1114.2 341.218 1099.8C330.703 1108.99 316.921 1114.81 301.914 1114.81C290.48 1114.81 279.863 1111.44 270.777 1105.93C274.452 1128.7 280.476 1150.85 288.541 1171.78C293.645 1162.39 300.995 1154.01 311 1148.4Z"/>
<path d="M341.014 1235.48C347.139 1235.48 353.162 1233.85 358.573 1230.78C366.638 1225.99 372.355 1218.43 374.907 1209.45C377.255 1200.57 376.03 1191.07 371.436 1183.01C365.107 1172.08 353.469 1165.45 341.014 1165.45C334.889 1165.45 328.865 1167.08 323.557 1170.14C306.814 1179.84 301.097 1201.28 310.694 1217.92C316.921 1228.84 328.559 1235.48 341.014 1235.48Z"/>
</mask>
<path d="M791.631 1277.13C797.246 1286.93 799.594 1297.75 799.288 1308.47C816.847 1294.28 832.875 1278.15 847.167 1260.7H846.146C835.631 1260.7 825.116 1257.94 815.928 1252.63C803.269 1245.18 794.081 1233.74 789.385 1220.06C780.095 1230.99 769.886 1241.2 758.861 1250.49C772.438 1255.29 784.178 1264.47 791.631 1277.13Z" stroke="url(#paint0_linear_2002_11)" stroke-width="14" mask="url(#path-3-inside-1_2002_11)"/>
<path d="M653.812 763.118C653.812 778.227 647.993 791.805 638.805 802.32C653.097 804.974 667.083 808.752 680.559 813.652C677.803 799.36 679.946 784.761 687.195 772C692.81 762.302 700.875 754.645 710.471 749.541C689.441 741.476 667.492 735.452 644.726 731.777C650.443 740.965 653.812 751.684 653.812 763.118Z" stroke="url(#paint1_linear_2002_11)" stroke-width="14" mask="url(#path-3-inside-1_2002_11)"/>
<path d="M799.39 800.891C799.594 811.814 797.144 822.534 791.631 832.232C784.178 844.891 772.54 854.283 759.065 858.877C769.988 868.167 780.197 878.376 789.487 889.299C794.285 875.619 803.269 863.981 816.03 856.835C825.218 851.527 835.631 848.668 846.248 848.668C846.656 848.668 846.963 848.77 847.371 848.77C832.977 831.211 816.949 815.285 799.39 800.891Z" stroke="url(#paint2_linear_2002_11)" stroke-width="14" mask="url(#path-3-inside-1_2002_11)"/>
<path d="M710.369 1359.82C700.977 1354.51 692.81 1346.86 687.195 1337.16C679.64 1324.09 677.905 1309.39 680.559 1295.71C667.083 1300.61 653.199 1304.39 638.805 1307.04C647.993 1317.56 653.812 1331.14 653.812 1346.25C653.812 1357.68 650.443 1368.4 644.93 1377.38C667.492 1373.91 689.543 1367.89 710.369 1359.82Z" stroke="url(#paint3_linear_2002_11)" stroke-width="14" mask="url(#path-3-inside-1_2002_11)"/>
<path d="M846.146 873.884C840.021 873.884 833.997 875.517 828.587 878.682C820.522 883.378 814.805 890.831 812.253 899.916C809.905 908.798 811.13 918.394 815.928 926.459C822.053 937.281 833.691 943.916 846.248 943.916C852.271 943.916 858.294 942.283 863.705 939.22C871.77 934.524 877.487 927.072 880.039 917.986C882.387 908.9 881.162 899.508 876.568 891.341C870.239 880.622 858.601 873.884 846.146 873.884Z" stroke="url(#paint4_linear_2002_11)" stroke-width="14" mask="url(#path-3-inside-1_2002_11)"/>
<path d="M756.921 771.898C751.51 768.733 745.487 767.1 739.464 767.1C726.907 767.1 715.371 773.735 709.144 784.557C704.346 792.724 703.121 802.116 705.469 811.202C708.021 820.288 713.738 827.842 721.803 832.436C738.137 841.828 760.392 835.703 769.784 819.573C774.276 811.508 775.603 802.116 773.153 793.03C770.805 784.046 764.986 776.492 756.921 771.898Z" stroke="url(#paint5_linear_2002_11)" stroke-width="14" mask="url(#path-3-inside-1_2002_11)"/>
<path d="M876.16 960.965C866.972 966.274 856.661 969.03 846.146 969.03C842.267 969.03 838.489 968.52 834.712 967.907C839.612 981.281 843.39 995.165 845.942 1009.56C856.457 1000.37 870.239 994.552 885.246 994.552C896.68 994.552 907.297 997.921 916.383 1003.64C912.708 980.77 906.684 958.719 898.619 937.791C893.515 947.285 885.858 955.452 876.16 960.965Z" stroke="url(#paint6_linear_2002_11)" stroke-width="14" mask="url(#path-3-inside-1_2002_11)"/>
<path d="M885.246 1019.67C865.849 1019.67 850.128 1035.39 850.128 1054.58C850.128 1073.98 865.849 1089.7 885.246 1089.7C904.438 1089.7 920.16 1073.98 920.16 1054.58C920.16 1035.39 904.438 1019.67 885.246 1019.67Z" stroke="url(#paint7_linear_2002_11)" stroke-width="14" mask="url(#path-3-inside-1_2002_11)"/>
<path d="M898.721 1171.78C906.786 1150.75 912.809 1128.7 916.485 1105.93C907.297 1111.44 896.782 1114.81 885.348 1114.81C870.239 1114.81 856.559 1108.99 846.044 1099.8C843.492 1114.1 839.612 1128.08 834.814 1141.56C838.591 1140.84 842.369 1140.33 846.35 1140.33C856.763 1140.33 867.074 1143.09 876.262 1148.4C886.164 1154.01 893.515 1162.39 898.721 1171.78Z" stroke="url(#paint8_linear_2002_11)" stroke-width="14" mask="url(#path-3-inside-1_2002_11)"/>
<path d="M876.466 1217.92C886.165 1201.28 880.346 1179.84 863.603 1170.14C858.295 1167.08 852.271 1165.45 846.248 1165.45C833.691 1165.45 821.951 1172.08 815.826 1182.9C811.028 1191.07 809.803 1200.46 812.151 1209.45C814.703 1218.53 820.42 1226.09 828.485 1230.78C833.895 1233.85 839.919 1235.48 846.044 1235.48C858.601 1235.48 870.239 1228.84 876.466 1217.92Z" stroke="url(#paint9_linear_2002_11)" stroke-width="14" mask="url(#path-3-inside-1_2002_11)"/>
<path d="M506.601 1295.71C509.357 1309.9 507.213 1324.5 499.863 1337.16C494.452 1346.86 486.285 1354.62 476.893 1359.82C497.719 1367.89 519.77 1373.91 542.434 1377.38C536.921 1368.3 533.552 1357.68 533.552 1346.25C533.552 1331.14 539.371 1317.56 548.559 1307.04C533.96 1304.39 520.076 1300.61 506.601 1295.71Z" stroke="url(#paint10_linear_2002_11)" stroke-width="14" mask="url(#path-3-inside-1_2002_11)"/>
<path d="M447.696 767.1C441.673 767.1 435.65 768.733 430.239 771.898C422.174 776.594 416.253 784.046 413.905 793.132C411.557 802.218 412.782 811.61 417.376 819.777C426.666 835.703 448.921 841.93 465.255 832.436C473.32 827.74 479.037 820.288 481.589 811.202C483.937 802.116 482.712 792.724 478.118 784.659C471.891 773.735 460.355 767.1 447.696 767.1Z" stroke="url(#paint11_linear_2002_11)" stroke-width="14" mask="url(#path-3-inside-1_2002_11)"/>
<path d="M310.592 891.443C306.1 899.508 304.773 908.9 307.223 917.986C309.775 927.072 315.492 934.626 323.557 939.22C339.891 948.612 362.146 942.487 371.334 926.561C376.132 918.394 377.357 908.798 375.009 899.814C372.457 890.933 366.74 883.378 358.675 878.682C353.264 875.517 347.241 873.884 341.116 873.884C328.559 873.884 316.921 880.622 310.592 891.443Z" stroke="url(#paint12_linear_2002_11)" stroke-width="14" mask="url(#path-3-inside-1_2002_11)"/>
<path d="M395.529 832.334C390.016 822.534 387.464 811.814 387.77 800.891C370.313 815.183 354.183 831.211 339.891 848.77C340.299 848.77 340.606 848.668 341.014 848.668C351.529 848.668 362.044 851.527 371.232 856.835C383.891 864.083 392.977 875.517 397.775 889.299C407.065 878.376 417.274 868.167 428.197 858.877C414.721 854.181 402.981 844.891 395.529 832.334Z" stroke="url(#paint13_linear_2002_11)" stroke-width="14" mask="url(#path-3-inside-1_2002_11)"/>
<path d="M476.689 749.541C486.285 754.645 494.452 762.506 499.965 772.204C507.213 784.761 509.357 799.36 506.601 813.652C520.076 808.752 533.96 804.974 548.355 802.32C539.167 791.805 533.348 778.227 533.348 763.118C533.348 751.684 536.717 740.965 542.434 731.777C519.668 735.452 497.617 741.476 476.689 749.541Z" stroke="url(#paint14_linear_2002_11)" stroke-width="14" mask="url(#path-3-inside-1_2002_11)"/>
<path d="M593.58 1235.79C693.657 1235.79 774.786 1154.66 774.786 1054.58C774.786 954.502 693.657 873.373 593.58 873.373C493.502 873.373 412.373 954.502 412.373 1054.58C412.373 1154.66 493.502 1235.79 593.58 1235.79Z" stroke="url(#paint15_linear_2002_11)" stroke-width="14" mask="url(#path-3-inside-1_2002_11)"/>
<path d="M558.462 1346.25C558.462 1365.64 574.183 1381.36 593.58 1381.36C612.977 1381.36 628.698 1365.64 628.698 1346.25C628.698 1326.85 612.977 1311.13 593.58 1311.13C574.183 1311.23 558.462 1326.95 558.462 1346.25Z" stroke="url(#paint16_linear_2002_11)" stroke-width="14" mask="url(#path-3-inside-1_2002_11)"/>
<path d="M825.014 1054.58C825.014 926.97 721.19 823.146 593.58 823.146C465.97 823.146 362.146 926.97 362.146 1054.58C362.146 1182.19 465.97 1286.01 593.58 1286.01C721.19 1286.01 825.014 1182.19 825.014 1054.58ZM593.58 1260.9C479.854 1260.9 387.26 1168.41 387.26 1054.58C387.26 940.854 479.752 848.26 593.58 848.26C707.408 848.26 799.9 940.752 799.9 1054.58C799.9 1168.41 707.306 1260.9 593.58 1260.9Z" stroke="url(#paint17_linear_2002_11)" stroke-width="14" mask="url(#path-3-inside-1_2002_11)"/>
<path d="M739.464 1342.26C745.487 1342.26 751.51 1340.63 756.921 1337.57C773.664 1327.87 779.38 1306.43 769.784 1289.69C763.659 1278.87 751.919 1272.23 739.362 1272.23C733.237 1272.23 727.213 1273.87 721.905 1276.93C705.162 1286.63 699.548 1308.06 709.246 1324.71C715.269 1335.63 726.805 1342.26 739.464 1342.26Z" stroke="url(#paint18_linear_2002_11)" stroke-width="14" mask="url(#path-3-inside-1_2002_11)"/>
<path d="M430.239 1337.57C435.65 1340.63 441.673 1342.26 447.696 1342.26C460.253 1342.26 471.789 1335.63 478.016 1324.81C482.814 1316.64 484.039 1307.25 481.691 1298.16C479.139 1289.08 473.422 1281.52 465.357 1276.93C460.049 1273.87 454.025 1272.23 447.9 1272.23C435.343 1272.23 423.603 1278.87 417.376 1289.69C407.779 1306.43 413.599 1327.97 430.239 1337.57Z" stroke="url(#paint19_linear_2002_11)" stroke-width="14" mask="url(#path-3-inside-1_2002_11)"/>
<path d="M628.698 763.118C628.698 743.824 612.977 728 593.58 728C574.183 728 558.462 743.824 558.462 763.118C558.462 782.515 574.183 798.032 593.58 798.032C612.977 798.032 628.698 782.413 628.698 763.118Z" stroke="url(#paint20_linear_2002_11)" stroke-width="14" mask="url(#path-3-inside-1_2002_11)"/>
<path d="M387.872 1308.47C387.668 1297.96 389.914 1287.14 395.529 1277.13C402.981 1264.47 414.619 1255.29 428.197 1250.49C417.172 1241.2 406.963 1230.99 397.673 1220.06C392.977 1233.74 383.891 1245.18 371.13 1252.63C361.942 1257.94 351.529 1260.7 340.912 1260.7H339.891C354.285 1278.15 370.313 1294.28 387.872 1308.47Z" stroke="url(#paint21_linear_2002_11)" stroke-width="14" mask="url(#path-3-inside-1_2002_11)"/>
<path d="M301.914 1089.7C321.311 1089.7 337.032 1073.98 337.032 1054.58C337.032 1035.39 321.311 1019.67 301.914 1019.67C282.722 1019.67 267 1035.39 267 1054.58C267 1073.98 282.722 1089.7 301.914 1089.7Z" stroke="url(#paint22_linear_2002_11)" stroke-width="14" mask="url(#path-3-inside-1_2002_11)"/>
<path d="M288.438 937.689C280.373 958.719 274.35 980.668 270.675 1003.54C279.863 997.921 290.378 994.45 301.812 994.45C316.921 994.45 330.499 1000.27 341.116 1009.46C343.668 995.165 347.445 981.281 352.346 967.805C348.568 968.418 344.791 968.928 340.912 968.928C330.499 968.928 320.086 966.172 310.898 960.863C301.302 955.452 293.645 947.285 288.438 937.689Z" stroke="url(#paint23_linear_2002_11)" stroke-width="14" mask="url(#path-3-inside-1_2002_11)"/>
<path d="M311 1148.4C320.188 1143.09 330.499 1140.33 341.014 1140.33C344.893 1140.33 348.67 1140.84 352.448 1141.56C347.548 1128.08 343.77 1114.2 341.218 1099.8C330.703 1108.99 316.921 1114.81 301.914 1114.81C290.48 1114.81 279.863 1111.44 270.777 1105.93C274.452 1128.7 280.476 1150.85 288.541 1171.78C293.645 1162.39 300.995 1154.01 311 1148.4Z" stroke="url(#paint24_linear_2002_11)" stroke-width="14" mask="url(#path-3-inside-1_2002_11)"/>
<path d="M341.014 1235.48C347.139 1235.48 353.162 1233.85 358.573 1230.78C366.638 1225.99 372.355 1218.43 374.907 1209.45C377.255 1200.57 376.03 1191.07 371.436 1183.01C365.107 1172.08 353.469 1165.45 341.014 1165.45C334.889 1165.45 328.865 1167.08 323.557 1170.14C306.814 1179.84 301.097 1201.28 310.694 1217.92C316.921 1228.84 328.559 1235.48 341.014 1235.48Z" stroke="url(#paint25_linear_2002_11)" stroke-width="14" mask="url(#path-3-inside-1_2002_11)"/>
<mask id="path-4-inside-2_2002_11" fill="white">
<path d="M1396.63 748.132C1402.25 757.933 1404.59 768.754 1404.29 779.473C1421.85 765.283 1437.87 749.153 1452.17 731.696H1451.15C1440.63 731.696 1430.12 728.939 1420.93 723.631C1408.27 716.178 1399.08 704.745 1394.38 691.065C1385.09 701.988 1374.89 712.197 1363.86 721.487C1377.44 726.285 1389.18 735.473 1396.63 748.132Z"/>
<path d="M1258.81 234.118C1258.81 249.227 1252.99 262.805 1243.8 273.32C1258.1 275.974 1272.08 279.752 1285.56 284.652C1282.8 270.36 1284.95 255.761 1292.19 243C1297.81 233.302 1305.87 225.645 1315.47 220.541C1294.44 212.476 1272.49 206.452 1249.73 202.777C1255.44 211.965 1258.81 222.684 1258.81 234.118Z"/>
<path d="M1404.39 271.891C1404.59 282.814 1402.14 293.534 1396.63 303.232C1389.18 315.891 1377.54 325.283 1364.06 329.877C1374.99 339.167 1385.2 349.376 1394.49 360.299C1399.29 346.619 1408.27 334.981 1421.03 327.835C1430.22 322.527 1440.63 319.668 1451.25 319.668C1451.66 319.668 1451.96 319.77 1452.37 319.77C1437.98 302.211 1421.95 286.285 1404.39 271.891Z"/>
<path d="M1315.37 830.823C1305.98 825.515 1297.81 817.858 1292.19 808.16C1284.64 795.093 1282.9 780.392 1285.56 766.712C1272.08 771.612 1258.2 775.39 1243.8 778.044C1252.99 788.559 1258.81 802.137 1258.81 817.246C1258.81 828.68 1255.44 839.399 1249.93 848.383C1272.49 844.912 1294.54 838.888 1315.37 830.823Z"/>
<path d="M1451.15 344.884C1445.02 344.884 1439 346.517 1433.59 349.682C1425.52 354.378 1419.8 361.831 1417.25 370.916C1414.9 379.798 1416.13 389.394 1420.93 397.459C1427.05 408.281 1438.69 414.916 1451.25 414.916C1457.27 414.916 1463.29 413.283 1468.71 410.22C1476.77 405.524 1482.49 398.072 1485.04 388.986C1487.39 379.9 1486.16 370.508 1481.57 362.341C1475.24 351.622 1463.6 344.884 1451.15 344.884Z"/>
<path d="M1361.92 242.898C1356.51 239.733 1350.49 238.1 1344.46 238.1C1331.91 238.1 1320.37 244.735 1314.14 255.557C1309.35 263.724 1308.12 273.116 1310.47 282.202C1313.02 291.288 1318.74 298.842 1326.8 303.436C1343.14 312.828 1365.39 306.703 1374.78 290.573C1379.28 282.508 1380.6 273.116 1378.15 264.03C1375.81 255.046 1369.99 247.492 1361.92 242.898Z"/>
<path d="M1481.16 431.965C1471.97 437.274 1461.66 440.03 1451.15 440.03C1447.27 440.03 1443.49 439.52 1439.71 438.907C1444.61 452.281 1448.39 466.165 1450.94 480.559C1461.46 471.371 1475.24 465.552 1490.25 465.552C1501.68 465.552 1512.3 468.921 1521.38 474.638C1517.71 451.77 1511.68 429.719 1503.62 408.791C1498.51 418.285 1490.86 426.452 1481.16 431.965Z"/>
<path d="M1490.25 490.666C1470.85 490.666 1455.13 506.387 1455.13 525.58C1455.13 544.977 1470.85 560.698 1490.25 560.698C1509.44 560.698 1525.16 544.977 1525.16 525.58C1525.16 506.387 1509.44 490.666 1490.25 490.666Z"/>
<path d="M1503.72 642.777C1511.79 621.747 1517.81 599.696 1521.48 576.93C1512.3 582.443 1501.78 585.812 1490.35 585.812C1475.24 585.812 1461.56 579.993 1451.04 570.805C1448.49 585.097 1444.61 599.083 1439.81 612.559C1443.59 611.844 1447.37 611.334 1451.35 611.334C1461.76 611.334 1472.07 614.09 1481.26 619.399C1491.16 625.014 1498.51 633.385 1503.72 642.777Z"/>
<path d="M1481.47 688.921C1491.16 672.281 1485.35 650.842 1468.6 641.144C1463.29 638.081 1457.27 636.448 1451.25 636.448C1438.69 636.448 1426.95 643.083 1420.83 653.905C1416.03 662.072 1414.8 671.464 1417.15 680.448C1419.7 689.533 1425.42 697.088 1433.48 701.784C1438.9 704.847 1444.92 706.48 1451.04 706.48C1463.6 706.48 1475.24 699.844 1481.47 688.921Z"/>
<path d="M1111.6 766.712C1114.36 780.902 1112.21 795.501 1104.86 808.16C1099.45 817.858 1091.29 825.617 1081.89 830.823C1102.72 838.888 1124.77 844.912 1147.43 848.383C1141.92 839.297 1138.55 828.68 1138.55 817.246C1138.55 802.137 1144.37 788.559 1153.56 778.044C1138.96 775.39 1125.08 771.612 1111.6 766.712Z"/>
<path d="M1052.7 238.1C1046.67 238.1 1040.65 239.733 1035.24 242.898C1027.17 247.594 1021.25 255.046 1018.9 264.132C1016.56 273.218 1017.78 282.61 1022.38 290.777C1031.67 306.703 1053.92 312.93 1070.26 303.436C1078.32 298.74 1084.04 291.288 1086.59 282.202C1088.94 273.116 1087.71 263.724 1083.12 255.659C1076.89 244.735 1065.35 238.1 1052.7 238.1Z"/>
<path d="M915.592 362.443C911.1 370.508 909.773 379.9 912.223 388.986C914.775 398.072 920.492 405.626 928.557 410.22C944.891 419.612 967.146 413.487 976.334 397.561C981.132 389.394 982.357 379.798 980.009 370.814C977.457 361.933 971.74 354.378 963.675 349.682C958.264 346.517 952.241 344.884 946.116 344.884C933.559 344.884 921.921 351.622 915.592 362.443Z"/>
<path d="M1000.53 303.334C995.016 293.534 992.464 282.814 992.77 271.891C975.313 286.183 959.183 302.211 944.891 319.77C945.299 319.77 945.606 319.668 946.014 319.668C956.529 319.668 967.044 322.527 976.232 327.835C988.891 335.083 997.977 346.517 1002.77 360.299C1012.06 349.376 1022.27 339.167 1033.2 329.877C1019.72 325.181 1007.98 315.891 1000.53 303.334Z"/>
<path d="M1081.69 220.541C1091.29 225.645 1099.45 233.506 1104.97 243.204C1112.21 255.761 1114.36 270.36 1111.6 284.652C1125.08 279.752 1138.96 275.974 1153.35 273.32C1144.17 262.805 1138.35 249.227 1138.35 234.118C1138.35 222.684 1141.72 211.965 1147.43 202.777C1124.67 206.452 1102.62 212.476 1081.69 220.541Z"/>
<path d="M1198.58 706.786C1298.66 706.786 1379.79 625.657 1379.79 525.58C1379.79 425.502 1298.66 344.373 1198.58 344.373C1098.5 344.373 1017.37 425.502 1017.37 525.58C1017.37 625.657 1098.5 706.786 1198.58 706.786Z"/>
<path d="M1163.46 817.246C1163.46 836.643 1179.18 852.364 1198.58 852.364C1217.98 852.364 1233.7 836.643 1233.7 817.246C1233.7 797.849 1217.98 782.127 1198.58 782.127C1179.18 782.23 1163.46 797.951 1163.46 817.246Z"/>
<path d="M1430.01 525.58C1430.01 397.97 1326.19 294.146 1198.58 294.146C1070.97 294.146 967.146 397.97 967.146 525.58C967.146 653.19 1070.97 757.014 1198.58 757.014C1326.19 757.014 1430.01 653.19 1430.01 525.58ZM1198.58 731.9C1084.85 731.9 992.26 639.408 992.26 525.58C992.26 411.854 1084.75 319.26 1198.58 319.26C1312.41 319.26 1404.9 411.752 1404.9 525.58C1404.9 639.408 1312.31 731.9 1198.58 731.9Z"/>
<path d="M1344.46 813.264C1350.49 813.264 1356.51 811.631 1361.92 808.568C1378.66 798.87 1384.38 777.431 1374.78 760.689C1368.66 749.868 1356.92 743.232 1344.36 743.232C1338.24 743.232 1332.21 744.865 1326.9 747.928C1310.16 757.626 1304.55 779.065 1314.25 795.705C1320.27 806.629 1331.81 813.264 1344.46 813.264Z"/>
<path d="M1035.24 808.568C1040.65 811.631 1046.67 813.264 1052.7 813.264C1065.25 813.264 1076.79 806.629 1083.02 795.807C1087.81 787.64 1089.04 778.248 1086.69 769.162C1084.14 760.076 1078.42 752.522 1070.36 747.928C1065.05 744.865 1059.03 743.232 1052.9 743.232C1040.34 743.232 1028.6 749.868 1022.38 760.689C1012.78 777.431 1018.6 798.972 1035.24 808.568Z"/>
<path d="M1233.7 234.118C1233.7 214.824 1217.98 199 1198.58 199C1179.18 199 1163.46 214.824 1163.46 234.118C1163.46 253.515 1179.18 269.032 1198.58 269.032C1217.98 269.032 1233.7 253.413 1233.7 234.118Z"/>
<path d="M992.872 779.473C992.668 768.958 994.914 758.137 1000.53 748.132C1007.98 735.473 1019.62 726.285 1033.2 721.487C1022.17 712.197 1011.96 701.988 1002.67 691.065C997.977 704.745 988.891 716.178 976.13 723.631C966.942 728.939 956.529 731.696 945.912 731.696H944.891C959.285 749.153 975.313 765.283 992.872 779.473Z"/>
<path d="M906.914 560.698C926.311 560.698 942.032 544.977 942.032 525.58C942.032 506.387 926.311 490.666 906.914 490.666C887.722 490.666 872 506.387 872 525.58C872 544.977 887.722 560.698 906.914 560.698Z"/>
<path d="M893.438 408.689C885.373 429.719 879.35 451.668 875.675 474.536C884.863 468.921 895.378 465.45 906.812 465.45C921.921 465.45 935.499 471.269 946.116 480.457C948.668 466.165 952.445 452.281 957.346 438.805C953.568 439.418 949.791 439.928 945.912 439.928C935.499 439.928 925.086 437.172 915.898 431.863C906.302 426.452 898.645 418.285 893.438 408.689Z"/>
<path d="M916 619.399C925.188 614.09 935.499 611.334 946.014 611.334C949.893 611.334 953.67 611.844 957.448 612.559C952.548 599.083 948.77 585.199 946.218 570.805C935.703 579.993 921.921 585.812 906.914 585.812C895.48 585.812 884.863 582.443 875.777 576.93C879.452 599.696 885.476 621.849 893.541 642.777C898.645 633.385 905.995 625.014 916 619.399Z"/>
<path d="M946.014 706.48C952.139 706.48 958.162 704.847 963.573 701.784C971.638 696.986 977.355 689.431 979.907 680.448C982.255 671.566 981.03 662.072 976.436 654.007C970.107 643.083 958.469 636.448 946.014 636.448C939.889 636.448 933.865 638.081 928.557 641.144C911.814 650.842 906.097 672.281 915.694 688.921C921.921 699.844 933.559 706.48 946.014 706.48Z"/>
</mask>
<path d="M1396.63 748.132C1402.25 757.933 1404.59 768.754 1404.29 779.473C1421.85 765.283 1437.87 749.153 1452.17 731.696H1451.15C1440.63 731.696 1430.12 728.939 1420.93 723.631C1408.27 716.178 1399.08 704.745 1394.38 691.065C1385.09 701.988 1374.89 712.197 1363.86 721.487C1377.44 726.285 1389.18 735.473 1396.63 748.132Z" stroke="url(#paint26_linear_2002_11)" stroke-width="14" mask="url(#path-4-inside-2_2002_11)"/>
<path d="M1258.81 234.118C1258.81 249.227 1252.99 262.805 1243.8 273.32C1258.1 275.974 1272.08 279.752 1285.56 284.652C1282.8 270.36 1284.95 255.761 1292.19 243C1297.81 233.302 1305.87 225.645 1315.47 220.541C1294.44 212.476 1272.49 206.452 1249.73 202.777C1255.44 211.965 1258.81 222.684 1258.81 234.118Z" stroke="url(#paint27_linear_2002_11)" stroke-width="14" mask="url(#path-4-inside-2_2002_11)"/>
<path d="M1404.39 271.891C1404.59 282.814 1402.14 293.534 1396.63 303.232C1389.18 315.891 1377.54 325.283 1364.06 329.877C1374.99 339.167 1385.2 349.376 1394.49 360.299C1399.29 346.619 1408.27 334.981 1421.03 327.835C1430.22 322.527 1440.63 319.668 1451.25 319.668C1451.66 319.668 1451.96 319.77 1452.37 319.77C1437.98 302.211 1421.95 286.285 1404.39 271.891Z" stroke="url(#paint28_linear_2002_11)" stroke-width="14" mask="url(#path-4-inside-2_2002_11)"/>
<path d="M1315.37 830.823C1305.98 825.515 1297.81 817.858 1292.19 808.16C1284.64 795.093 1282.9 780.392 1285.56 766.712C1272.08 771.612 1258.2 775.39 1243.8 778.044C1252.99 788.559 1258.81 802.137 1258.81 817.246C1258.81 828.68 1255.44 839.399 1249.93 848.383C1272.49 844.912 1294.54 838.888 1315.37 830.823Z" stroke="url(#paint29_linear_2002_11)" stroke-width="14" mask="url(#path-4-inside-2_2002_11)"/>
<path d="M1451.15 344.884C1445.02 344.884 1439 346.517 1433.59 349.682C1425.52 354.378 1419.8 361.831 1417.25 370.916C1414.9 379.798 1416.13 389.394 1420.93 397.459C1427.05 408.281 1438.69 414.916 1451.25 414.916C1457.27 414.916 1463.29 413.283 1468.71 410.22C1476.77 405.524 1482.49 398.072 1485.04 388.986C1487.39 379.9 1486.16 370.508 1481.57 362.341C1475.24 351.622 1463.6 344.884 1451.15 344.884Z" stroke="url(#paint30_linear_2002_11)" stroke-width="14" mask="url(#path-4-inside-2_2002_11)"/>
<path d="M1361.92 242.898C1356.51 239.733 1350.49 238.1 1344.46 238.1C1331.91 238.1 1320.37 244.735 1314.14 255.557C1309.35 263.724 1308.12 273.116 1310.47 282.202C1313.02 291.288 1318.74 298.842 1326.8 303.436C1343.14 312.828 1365.39 306.703 1374.78 290.573C1379.28 282.508 1380.6 273.116 1378.15 264.03C1375.81 255.046 1369.99 247.492 1361.92 242.898Z" stroke="url(#paint31_linear_2002_11)" stroke-width="14" mask="url(#path-4-inside-2_2002_11)"/>
<path d="M1481.16 431.965C1471.97 437.274 1461.66 440.03 1451.15 440.03C1447.27 440.03 1443.49 439.52 1439.71 438.907C1444.61 452.281 1448.39 466.165 1450.94 480.559C1461.46 471.371 1475.24 465.552 1490.25 465.552C1501.68 465.552 1512.3 468.921 1521.38 474.638C1517.71 451.77 1511.68 429.719 1503.62 408.791C1498.51 418.285 1490.86 426.452 1481.16 431.965Z" stroke="url(#paint32_linear_2002_11)" stroke-width="14" mask="url(#path-4-inside-2_2002_11)"/>
<path d="M1490.25 490.666C1470.85 490.666 1455.13 506.387 1455.13 525.58C1455.13 544.977 1470.85 560.698 1490.25 560.698C1509.44 560.698 1525.16 544.977 1525.16 525.58C1525.16 506.387 1509.44 490.666 1490.25 490.666Z" stroke="url(#paint33_linear_2002_11)" stroke-width="14" mask="url(#path-4-inside-2_2002_11)"/>
<path d="M1503.72 642.777C1511.79 621.747 1517.81 599.696 1521.48 576.93C1512.3 582.443 1501.78 585.812 1490.35 585.812C1475.24 585.812 1461.56 579.993 1451.04 570.805C1448.49 585.097 1444.61 599.083 1439.81 612.559C1443.59 611.844 1447.37 611.334 1451.35 611.334C1461.76 611.334 1472.07 614.09 1481.26 619.399C1491.16 625.014 1498.51 633.385 1503.72 642.777Z" stroke="url(#paint34_linear_2002_11)" stroke-width="14" mask="url(#path-4-inside-2_2002_11)"/>
<path d="M1481.47 688.921C1491.16 672.281 1485.35 650.842 1468.6 641.144C1463.29 638.081 1457.27 636.448 1451.25 636.448C1438.69 636.448 1426.95 643.083 1420.83 653.905C1416.03 662.072 1414.8 671.464 1417.15 680.448C1419.7 689.533 1425.42 697.088 1433.48 701.784C1438.9 704.847 1444.92 706.48 1451.04 706.48C1463.6 706.48 1475.24 699.844 1481.47 688.921Z" stroke="url(#paint35_linear_2002_11)" stroke-width="14" mask="url(#path-4-inside-2_2002_11)"/>
<path d="M1111.6 766.712C1114.36 780.902 1112.21 795.501 1104.86 808.16C1099.45 817.858 1091.29 825.617 1081.89 830.823C1102.72 838.888 1124.77 844.912 1147.43 848.383C1141.92 839.297 1138.55 828.68 1138.55 817.246C1138.55 802.137 1144.37 788.559 1153.56 778.044C1138.96 775.39 1125.08 771.612 1111.6 766.712Z" stroke="url(#paint36_linear_2002_11)" stroke-width="14" mask="url(#path-4-inside-2_2002_11)"/>
<path d="M1052.7 238.1C1046.67 238.1 1040.65 239.733 1035.24 242.898C1027.17 247.594 1021.25 255.046 1018.9 264.132C1016.56 273.218 1017.78 282.61 1022.38 290.777C1031.67 306.703 1053.92 312.93 1070.26 303.436C1078.32 298.74 1084.04 291.288 1086.59 282.202C1088.94 273.116 1087.71 263.724 1083.12 255.659C1076.89 244.735 1065.35 238.1 1052.7 238.1Z" stroke="url(#paint37_linear_2002_11)" stroke-width="14" mask="url(#path-4-inside-2_2002_11)"/>
<path d="M915.592 362.443C911.1 370.508 909.773 379.9 912.223 388.986C914.775 398.072 920.492 405.626 928.557 410.22C944.891 419.612 967.146 413.487 976.334 397.561C981.132 389.394 982.357 379.798 980.009 370.814C977.457 361.933 971.74 354.378 963.675 349.682C958.264 346.517 952.241 344.884 946.116 344.884C933.559 344.884 921.921 351.622 915.592 362.443Z" stroke="url(#paint38_linear_2002_11)" stroke-width="14" mask="url(#path-4-inside-2_2002_11)"/>
<path d="M1000.53 303.334C995.016 293.534 992.464 282.814 992.77 271.891C975.313 286.183 959.183 302.211 944.891 319.77C945.299 319.77 945.606 319.668 946.014 319.668C956.529 319.668 967.044 322.527 976.232 327.835C988.891 335.083 997.977 346.517 1002.77 360.299C1012.06 349.376 1022.27 339.167 1033.2 329.877C1019.72 325.181 1007.98 315.891 1000.53 303.334Z" stroke="url(#paint39_linear_2002_11)" stroke-width="14" mask="url(#path-4-inside-2_2002_11)"/>
<path d="M1081.69 220.541C1091.29 225.645 1099.45 233.506 1104.97 243.204C1112.21 255.761 1114.36 270.36 1111.6 284.652C1125.08 279.752 1138.96 275.974 1153.35 273.32C1144.17 262.805 1138.35 249.227 1138.35 234.118C1138.35 222.684 1141.72 211.965 1147.43 202.777C1124.67 206.452 1102.62 212.476 1081.69 220.541Z" stroke="url(#paint40_linear_2002_11)" stroke-width="14" mask="url(#path-4-inside-2_2002_11)"/>
<path d="M1198.58 706.786C1298.66 706.786 1379.79 625.657 1379.79 525.58C1379.79 425.502 1298.66 344.373 1198.58 344.373C1098.5 344.373 1017.37 425.502 1017.37 525.58C1017.37 625.657 1098.5 706.786 1198.58 706.786Z" stroke="url(#paint41_linear_2002_11)" stroke-width="14" mask="url(#path-4-inside-2_2002_11)"/>
<path d="M1163.46 817.246C1163.46 836.643 1179.18 852.364 1198.58 852.364C1217.98 852.364 1233.7 836.643 1233.7 817.246C1233.7 797.849 1217.98 782.127 1198.58 782.127C1179.18 782.23 1163.46 797.951 1163.46 817.246Z" stroke="url(#paint42_linear_2002_11)" stroke-width="14" mask="url(#path-4-inside-2_2002_11)"/>
<path d="M1430.01 525.58C1430.01 397.97 1326.19 294.146 1198.58 294.146C1070.97 294.146 967.146 397.97 967.146 525.58C967.146 653.19 1070.97 757.014 1198.58 757.014C1326.19 757.014 1430.01 653.19 1430.01 525.58ZM1198.58 731.9C1084.85 731.9 992.26 639.408 992.26 525.58C992.26 411.854 1084.75 319.26 1198.58 319.26C1312.41 319.26 1404.9 411.752 1404.9 525.58C1404.9 639.408 1312.31 731.9 1198.58 731.9Z" stroke="url(#paint43_linear_2002_11)" stroke-width="14" mask="url(#path-4-inside-2_2002_11)"/>
<path d="M1344.46 813.264C1350.49 813.264 1356.51 811.631 1361.92 808.568C1378.66 798.87 1384.38 777.431 1374.78 760.689C1368.66 749.868 1356.92 743.232 1344.36 743.232C1338.24 743.232 1332.21 744.865 1326.9 747.928C1310.16 757.626 1304.55 779.065 1314.25 795.705C1320.27 806.629 1331.81 813.264 1344.46 813.264Z" stroke="url(#paint44_linear_2002_11)" stroke-width="14" mask="url(#path-4-inside-2_2002_11)"/>
<path d="M1035.24 808.568C1040.65 811.631 1046.67 813.264 1052.7 813.264C1065.25 813.264 1076.79 806.629 1083.02 795.807C1087.81 787.64 1089.04 778.248 1086.69 769.162C1084.14 760.076 1078.42 752.522 1070.36 747.928C1065.05 744.865 1059.03 743.232 1052.9 743.232C1040.34 743.232 1028.6 749.868 1022.38 760.689C1012.78 777.431 1018.6 798.972 1035.24 808.568Z" stroke="url(#paint45_linear_2002_11)" stroke-width="14" mask="url(#path-4-inside-2_2002_11)"/>
<path d="M1233.7 234.118C1233.7 214.824 1217.98 199 1198.58 199C1179.18 199 1163.46 214.824 1163.46 234.118C1163.46 253.515 1179.18 269.032 1198.58 269.032C1217.98 269.032 1233.7 253.413 1233.7 234.118Z" stroke="url(#paint46_linear_2002_11)" stroke-width="14" mask="url(#path-4-inside-2_2002_11)"/>
<path d="M992.872 779.473C992.668 768.958 994.914 758.137 1000.53 748.132C1007.98 735.473 1019.62 726.285 1033.2 721.487C1022.17 712.197 1011.96 701.988 1002.67 691.065C997.977 704.745 988.891 716.178 976.13 723.631C966.942 728.939 956.529 731.696 945.912 731.696H944.891C959.285 749.153 975.313 765.283 992.872 779.473Z" stroke="url(#paint47_linear_2002_11)" stroke-width="14" mask="url(#path-4-inside-2_2002_11)"/>
<path d="M906.914 560.698C926.311 560.698 942.032 544.977 942.032 525.58C942.032 506.387 926.311 490.666 906.914 490.666C887.722 490.666 872 506.387 872 525.58C872 544.977 887.722 560.698 906.914 560.698Z" stroke="url(#paint48_linear_2002_11)" stroke-width="14" mask="url(#path-4-inside-2_2002_11)"/>
<path d="M893.438 408.689C885.373 429.719 879.35 451.668 875.675 474.536C884.863 468.921 895.378 465.45 906.812 465.45C921.921 465.45 935.499 471.269 946.116 480.457C948.668 466.165 952.445 452.281 957.346 438.805C953.568 439.418 949.791 439.928 945.912 439.928C935.499 439.928 925.086 437.172 915.898 431.863C906.302 426.452 898.645 418.285 893.438 408.689Z" stroke="url(#paint49_linear_2002_11)" stroke-width="14" mask="url(#path-4-inside-2_2002_11)"/>
<path d="M916 619.399C925.188 614.09 935.499 611.334 946.014 611.334C949.893 611.334 953.67 611.844 957.448 612.559C952.548 599.083 948.77 585.199 946.218 570.805C935.703 579.993 921.921 585.812 906.914 585.812C895.48 585.812 884.863 582.443 875.777 576.93C879.452 599.696 885.476 621.849 893.541 642.777C898.645 633.385 905.995 625.014 916 619.399Z" stroke="url(#paint50_linear_2002_11)" stroke-width="14" mask="url(#path-4-inside-2_2002_11)"/>
<path d="M946.014 706.48C952.139 706.48 958.162 704.847 963.573 701.784C971.638 696.986 977.355 689.431 979.907 680.448C982.255 671.566 981.03 662.072 976.436 654.007C970.107 643.083 958.469 636.448 946.014 636.448C939.889 636.448 933.865 638.081 928.557 641.144C911.814 650.842 906.097 672.281 915.694 688.921C921.921 699.844 933.559 706.48 946.014 706.48Z" stroke="url(#paint51_linear_2002_11)" stroke-width="14" mask="url(#path-4-inside-2_2002_11)"/>
<g filter="url(#filter2_f_2002_11)">
<ellipse cx="406.5" cy="751" rx="84.5" ry="85" fill="#80828F"/>
</g>
<defs>
<filter id="filter0_f_2002_11" x="329" y="0" width="1317" height="1319" filterUnits="userSpaceOnUse" color-interpolation-filters="sRGB">
<feFlood flood-opacity="0" result="BackgroundImageFix"/>
<feBlend mode="normal" in="SourceGraphic" in2="BackgroundImageFix" result="shape"/>
<feGaussianBlur stdDeviation="200" result="effect1_foregroundBlur_2002_11"/>
</filter>
<filter id="filter1_f_2002_11" x="49" y="464" width="1131" height="1132" filterUnits="userSpaceOnUse" color-interpolation-filters="sRGB">
<feFlood flood-opacity="0" result="BackgroundImageFix"/>
<feBlend mode="normal" in="SourceGraphic" in2="BackgroundImageFix" result="shape"/>
<feGaussianBlur stdDeviation="161" result="effect1_foregroundBlur_2002_11"/>
</filter>
<filter id="filter2_f_2002_11" x="0" y="344" width="813" height="814" filterUnits="userSpaceOnUse" color-interpolation-filters="sRGB">
<feFlood flood-opacity="0" result="BackgroundImageFix"/>
<feBlend mode="normal" in="SourceGraphic" in2="BackgroundImageFix" result="shape"/>
<feGaussianBlur stdDeviation="161" result="effect1_foregroundBlur_2002_11"/>
</filter>
<linearGradient id="paint0_linear_2002_11" x1="280.5" y1="949.5" x2="788.5" y2="866" gradientUnits="userSpaceOnUse">
<stop stop-color="white"/>
<stop offset="1" stop-color="white" stop-opacity="0"/>
</linearGradient>
<linearGradient id="paint1_linear_2002_11" x1="280.5" y1="949.5" x2="788.5" y2="866" gradientUnits="userSpaceOnUse">
<stop stop-color="white"/>
<stop offset="1" stop-color="white" stop-opacity="0"/>
</linearGradient>
<linearGradient id="paint2_linear_2002_11" x1="280.5" y1="949.5" x2="788.5" y2="866" gradientUnits="userSpaceOnUse">
<stop stop-color="white"/>
<stop offset="1" stop-color="white" stop-opacity="0"/>
</linearGradient>
<linearGradient id="paint3_linear_2002_11" x1="280.5" y1="949.5" x2="788.5" y2="866" gradientUnits="userSpaceOnUse">
<stop stop-color="white"/>
<stop offset="1" stop-color="white" stop-opacity="0"/>
</linearGradient>
<linearGradient id="paint4_linear_2002_11" x1="280.5" y1="949.5" x2="788.5" y2="866" gradientUnits="userSpaceOnUse">
<stop stop-color="white"/>
<stop offset="1" stop-color="white" stop-opacity="0"/>
</linearGradient>
<linearGradient id="paint5_linear_2002_11" x1="280.5" y1="949.5" x2="788.5" y2="866" gradientUnits="userSpaceOnUse">
<stop stop-color="white"/>
<stop offset="1" stop-color="white" stop-opacity="0"/>
</linearGradient>
<linearGradient id="paint6_linear_2002_11" x1="280.5" y1="949.5" x2="788.5" y2="866" gradientUnits="userSpaceOnUse">
<stop stop-color="white"/>
<stop offset="1" stop-color="white" stop-opacity="0"/>
</linearGradient>
<linearGradient id="paint7_linear_2002_11" x1="280.5" y1="949.5" x2="788.5" y2="866" gradientUnits="userSpaceOnUse">
<stop stop-color="white"/>
<stop offset="1" stop-color="white" stop-opacity="0"/>
</linearGradient>
<linearGradient id="paint8_linear_2002_11" x1="280.5" y1="949.5" x2="788.5" y2="866" gradientUnits="userSpaceOnUse">
<stop stop-color="white"/>
<stop offset="1" stop-color="white" stop-opacity="0"/>
</linearGradient>
<linearGradient id="paint9_linear_2002_11" x1="280.5" y1="949.5" x2="788.5" y2="866" gradientUnits="userSpaceOnUse">
<stop stop-color="white"/>
<stop offset="1" stop-color="white" stop-opacity="0"/>
</linearGradient>
<linearGradient id="paint10_linear_2002_11" x1="280.5" y1="949.5" x2="788.5" y2="866" gradientUnits="userSpaceOnUse">
<stop stop-color="white"/>
<stop offset="1" stop-color="white" stop-opacity="0"/>
</linearGradient>
<linearGradient id="paint11_linear_2002_11" x1="280.5" y1="949.5" x2="788.5" y2="866" gradientUnits="userSpaceOnUse">
<stop stop-color="white"/>
<stop offset="1" stop-color="white" stop-opacity="0"/>
</linearGradient>
<linearGradient id="paint12_linear_2002_11" x1="280.5" y1="949.5" x2="788.5" y2="866" gradientUnits="userSpaceOnUse">
<stop stop-color="white"/>
<stop offset="1" stop-color="white" stop-opacity="0"/>
</linearGradient>
<linearGradient id="paint13_linear_2002_11" x1="280.5" y1="949.5" x2="788.5" y2="866" gradientUnits="userSpaceOnUse">
<stop stop-color="white"/>
<stop offset="1" stop-color="white" stop-opacity="0"/>
</linearGradient>
<linearGradient id="paint14_linear_2002_11" x1="280.5" y1="949.5" x2="788.5" y2="866" gradientUnits="userSpaceOnUse">
<stop stop-color="white"/>
<stop offset="1" stop-color="white" stop-opacity="0"/>
</linearGradient>
<linearGradient id="paint15_linear_2002_11" x1="280.5" y1="949.5" x2="788.5" y2="866" gradientUnits="userSpaceOnUse">
<stop stop-color="white"/>
<stop offset="1" stop-color="white" stop-opacity="0"/>
</linearGradient>
<linearGradient id="paint16_linear_2002_11" x1="280.5" y1="949.5" x2="788.5" y2="866" gradientUnits="userSpaceOnUse">
<stop stop-color="white"/>
<stop offset="1" stop-color="white" stop-opacity="0"/>
</linearGradient>
<linearGradient id="paint17_linear_2002_11" x1="280.5" y1="949.5" x2="788.5" y2="866" gradientUnits="userSpaceOnUse">
<stop stop-color="white"/>
<stop offset="1" stop-color="white" stop-opacity="0"/>
</linearGradient>
<linearGradient id="paint18_linear_2002_11" x1="280.5" y1="949.5" x2="788.5" y2="866" gradientUnits="userSpaceOnUse">
<stop stop-color="white"/>
<stop offset="1" stop-color="white" stop-opacity="0"/>
</linearGradient>
<linearGradient id="paint19_linear_2002_11" x1="280.5" y1="949.5" x2="788.5" y2="866" gradientUnits="userSpaceOnUse">
<stop stop-color="white"/>
<stop offset="1" stop-color="white" stop-opacity="0"/>
</linearGradient>
<linearGradient id="paint20_linear_2002_11" x1="280.5" y1="949.5" x2="788.5" y2="866" gradientUnits="userSpaceOnUse">
<stop stop-color="white"/>
<stop offset="1" stop-color="white" stop-opacity="0"/>
</linearGradient>
<linearGradient id="paint21_linear_2002_11" x1="280.5" y1="949.5" x2="788.5" y2="866" gradientUnits="userSpaceOnUse">
<stop stop-color="white"/>
<stop offset="1" stop-color="white" stop-opacity="0"/>
</linearGradient>
<linearGradient id="paint22_linear_2002_11" x1="280.5" y1="949.5" x2="788.5" y2="866" gradientUnits="userSpaceOnUse">
<stop stop-color="white"/>
<stop offset="1" stop-color="white" stop-opacity="0"/>
</linearGradient>
<linearGradient id="paint23_linear_2002_11" x1="280.5" y1="949.5" x2="788.5" y2="866" gradientUnits="userSpaceOnUse">
<stop stop-color="white"/>
<stop offset="1" stop-color="white" stop-opacity="0"/>
</linearGradient>
<linearGradient id="paint24_linear_2002_11" x1="280.5" y1="949.5" x2="788.5" y2="866" gradientUnits="userSpaceOnUse">
<stop stop-color="white"/>
<stop offset="1" stop-color="white" stop-opacity="0"/>
</linearGradient>
<linearGradient id="paint25_linear_2002_11" x1="280.5" y1="949.5" x2="788.5" y2="866" gradientUnits="userSpaceOnUse">
<stop stop-color="white"/>
<stop offset="1" stop-color="white" stop-opacity="0"/>
</linearGradient>
<linearGradient id="paint26_linear_2002_11" x1="1030" y1="775.5" x2="1220.5" y2="389" gradientUnits="userSpaceOnUse">
<stop stop-color="white"/>
<stop offset="1" stop-color="white" stop-opacity="0"/>
</linearGradient>
<linearGradient id="paint27_linear_2002_11" x1="1030" y1="775.5" x2="1220.5" y2="389" gradientUnits="userSpaceOnUse">
<stop stop-color="white"/>
<stop offset="1" stop-color="white" stop-opacity="0"/>
</linearGradient>
<linearGradient id="paint28_linear_2002_11" x1="1030" y1="775.5" x2="1220.5" y2="389" gradientUnits="userSpaceOnUse">
<stop stop-color="white"/>
<stop offset="1" stop-color="white" stop-opacity="0"/>
</linearGradient>
<linearGradient id="paint29_linear_2002_11" x1="1030" y1="775.5" x2="1220.5" y2="389" gradientUnits="userSpaceOnUse">
<stop stop-color="white"/>
<stop offset="1" stop-color="white" stop-opacity="0"/>
</linearGradient>
<linearGradient id="paint30_linear_2002_11" x1="1030" y1="775.5" x2="1220.5" y2="389" gradientUnits="userSpaceOnUse">
<stop stop-color="white"/>
<stop offset="1" stop-color="white" stop-opacity="0"/>
</linearGradient>
<linearGradient id="paint31_linear_2002_11" x1="1030" y1="775.5" x2="1220.5" y2="389" gradientUnits="userSpaceOnUse">
<stop stop-color="white"/>
<stop offset="1" stop-color="white" stop-opacity="0"/>
</linearGradient>
<linearGradient id="paint32_linear_2002_11" x1="1030" y1="775.5" x2="1220.5" y2="389" gradientUnits="userSpaceOnUse">
<stop stop-color="white"/>
<stop offset="1" stop-color="white" stop-opacity="0"/>
</linearGradient>
<linearGradient id="paint33_linear_2002_11" x1="1030" y1="775.5" x2="1220.5" y2="389" gradientUnits="userSpaceOnUse">
<stop stop-color="white"/>
<stop offset="1" stop-color="white" stop-opacity="0"/>
</linearGradient>
<linearGradient id="paint34_linear_2002_11" x1="1030" y1="775.5" x2="1220.5" y2="389" gradientUnits="userSpaceOnUse">
<stop stop-color="white"/>
<stop offset="1" stop-color="white" stop-opacity="0"/>
</linearGradient>
<linearGradient id="paint35_linear_2002_11" x1="1030" y1="775.5" x2="1220.5" y2="389" gradientUnits="userSpaceOnUse">
<stop stop-color="white"/>
<stop offset="1" stop-color="white" stop-opacity="0"/>
</linearGradient>
<linearGradient id="paint36_linear_2002_11" x1="1030" y1="775.5" x2="1220.5" y2="389" gradientUnits="userSpaceOnUse">
<stop stop-color="white"/>
<stop offset="1" stop-color="white" stop-opacity="0"/>
</linearGradient>
<linearGradient id="paint37_linear_2002_11" x1="1030" y1="775.5" x2="1220.5" y2="389" gradientUnits="userSpaceOnUse">
<stop stop-color="white"/>
<stop offset="1" stop-color="white" stop-opacity="0"/>
</linearGradient>
<linearGradient id="paint38_linear_2002_11" x1="1030" y1="775.5" x2="1220.5" y2="389" gradientUnits="userSpaceOnUse">
<stop stop-color="white"/>
<stop offset="1" stop-color="white" stop-opacity="0"/>
</linearGradient>
<linearGradient id="paint39_linear_2002_11" x1="1030" y1="775.5" x2="1220.5" y2="389" gradientUnits="userSpaceOnUse">
<stop stop-color="white"/>
<stop offset="1" stop-color="white" stop-opacity="0"/>
</linearGradient>
<linearGradient id="paint40_linear_2002_11" x1="1030" y1="775.5" x2="1220.5" y2="389" gradientUnits="userSpaceOnUse">
<stop stop-color="white"/>
<stop offset="1" stop-color="white" stop-opacity="0"/>
</linearGradient>
<linearGradient id="paint41_linear_2002_11" x1="1030" y1="775.5" x2="1220.5" y2="389" gradientUnits="userSpaceOnUse">
<stop stop-color="white"/>
<stop offset="1" stop-color="white" stop-opacity="0"/>
</linearGradient>
<linearGradient id="paint42_linear_2002_11" x1="1030" y1="775.5" x2="1220.5" y2="389" gradientUnits="userSpaceOnUse">
<stop stop-color="white"/>
<stop offset="1" stop-color="white" stop-opacity="0"/>
</linearGradient>
<linearGradient id="paint43_linear_2002_11" x1="1030" y1="775.5" x2="1220.5" y2="389" gradientUnits="userSpaceOnUse">
<stop stop-color="white"/>
<stop offset="1" stop-color="white" stop-opacity="0"/>
</linearGradient>
<linearGradient id="paint44_linear_2002_11" x1="1030" y1="775.5" x2="1220.5" y2="389" gradientUnits="userSpaceOnUse">
<stop stop-color="white"/>
<stop offset="1" stop-color="white" stop-opacity="0"/>
</linearGradient>
<linearGradient id="paint45_linear_2002_11" x1="1030" y1="775.5" x2="1220.5" y2="389" gradientUnits="userSpaceOnUse">
<stop stop-color="white"/>
<stop offset="1" stop-color="white" stop-opacity="0"/>
</linearGradient>
<linearGradient id="paint46_linear_2002_11" x1="1030" y1="775.5" x2="1220.5" y2="389" gradientUnits="userSpaceOnUse">
<stop stop-color="white"/>
<stop offset="1" stop-color="white" stop-opacity="0"/>
</linearGradient>
<linearGradient id="paint47_linear_2002_11" x1="1030" y1="775.5" x2="1220.5" y2="389" gradientUnits="userSpaceOnUse">
<stop stop-color="white"/>
<stop offset="1" stop-color="white" stop-opacity="0"/>
</linearGradient>
<linearGradient id="paint48_linear_2002_11" x1="1030" y1="775.5" x2="1220.5" y2="389" gradientUnits="userSpaceOnUse">
<stop stop-color="white"/>
<stop offset="1" stop-color="white" stop-opacity="0"/>
</linearGradient>
<linearGradient id="paint49_linear_2002_11" x1="1030" y1="775.5" x2="1220.5" y2="389" gradientUnits="userSpaceOnUse">
<stop stop-color="white"/>
<stop offset="1" stop-color="white" stop-opacity="0"/>
</linearGradient>
<linearGradient id="paint50_linear_2002_11" x1="1030" y1="775.5" x2="1220.5" y2="389" gradientUnits="userSpaceOnUse">
<stop stop-color="white"/>
<stop offset="1" stop-color="white" stop-opacity="0"/>
</linearGradient>
<linearGradient id="paint51_linear_2002_11" x1="1030" y1="775.5" x2="1220.5" y2="389" gradientUnits="userSpaceOnUse">
<stop stop-color="white"/>
<stop offset="1" stop-color="white" stop-opacity="0"/>
</linearGradient>
</defs>
</svg>
