<svg xmlns="http://www.w3.org/2000/svg" display="block" preserveAspectRatio="xMidYMid" viewBox="0 0 100 100"><g data-idx="1"><g data-idx="2"><rect width="8" height="31" x="46" y="-.5" fill="#a80000" data-idx="3" opacity=".765" rx="3.72" ry="3.72"/></g><g data-idx="5"><rect width="8" height="31" x="46" y="-.5" fill="#a80000" data-idx="6" opacity=".89" rx="3.72" ry="3.72" transform="rotate(45 50 50)"/></g><g data-idx="8"><rect width="8" height="31" x="46" y="-.5" fill="#a80000" data-idx="9" opacity=".015" rx="3.72" ry="3.72" transform="rotate(90 50 50)"/></g><g data-idx="11"><rect width="8" height="31" x="46" y="-.5" fill="#a80000" data-idx="12" opacity=".14" rx="3.72" ry="3.72" transform="rotate(135 50 50)"/></g><g data-idx="14"><rect width="8" height="31" x="46" y="-.5" fill="#a80000" data-idx="15" opacity=".265" rx="3.72" ry="3.72" transform="rotate(180 50 50)"/></g><g data-idx="17"><rect width="8" height="31" x="46" y="-.5" fill="#a80000" data-idx="18" opacity=".39" rx="3.72" ry="3.72" transform="rotate(-135 50 50)"/></g><g data-idx="20"><rect width="8" height="31" x="46" y="-.5" fill="#a80000" data-idx="21" opacity=".515" rx="3.72" ry="3.72" transform="rotate(-90 50 50)"/></g><g data-idx="23"><rect width="8" height="31" x="46" y="-.5" fill="#a80000" data-idx="24" opacity=".64" rx="3.72" ry="3.72" transform="rotate(-45 50 50)"/></g></g></svg>