<svg width="271" height="213" viewBox="0 0 271 213" fill="none" xmlns="http://www.w3.org/2000/svg">
<path d="M260.693 0H10C4.47715 0 0 4.47716 0 10V202.74C0 208.263 4.47715 212.74 10 212.74H260.693C266.216 212.74 270.693 208.263 270.693 202.74V10C270.693 4.47715 266.216 0 260.693 0Z" fill="#A80000"/>
<path d="M270.693 24.0892H0V202.74C0 208.263 4.47715 212.74 10 212.74H260.693C266.216 212.74 270.693 208.263 270.693 202.74V24.0892Z" fill="white"/>
<path d="M13.6456 11.5905C13.6456 13.7653 11.8772 15.5337 9.70246 15.5337C7.52774 15.5337 5.75928 13.7653 5.75928 11.5905C5.75928 9.41582 7.52774 7.64737 9.70246 7.64737C11.8772 7.64737 13.6456 9.41582 13.6456 11.5905Z" fill="white"/>
<path d="M30.4459 11.5905C30.4459 13.7653 28.6775 15.5337 26.5028 15.5337C24.328 15.5337 22.5596 13.7653 22.5596 11.5905C22.5596 9.41582 24.328 7.64737 26.5028 7.64737C28.6775 7.64737 30.4459 9.41582 30.4459 11.5905Z" fill="white"/>
<path d="M47.2465 11.5905C47.2465 13.7653 45.478 15.5337 43.3033 15.5337C41.1286 15.5337 39.3601 13.7653 39.3601 11.5905C39.3601 9.41582 41.1286 7.64737 43.3033 7.64737C45.478 7.64737 47.2465 9.41582 47.2465 11.5905Z" fill="white"/>
<path d="M177.563 18.6883H66.1499C62.4218 18.6883 59.4106 15.6771 59.4106 11.949C59.4106 8.22091 62.4218 5.20975 66.1499 5.20975H177.563C181.291 5.20975 184.302 8.22091 184.302 11.949C184.302 15.6771 181.291 18.6883 177.563 18.6883Z" fill="white"/>
<path d="M254.203 18.6883H201.46C197.732 18.6883 194.721 15.6771 194.721 11.949C194.721 8.22091 197.732 5.20975 201.46 5.20975H254.203C257.932 5.20975 260.943 8.22091 260.943 11.949C260.943 15.6771 257.932 18.6883 254.203 18.6883Z" fill="white"/>
</svg>
