<svg width="590" height="133" viewBox="0 0 590 133" fill="none" xmlns="http://www.w3.org/2000/svg">
<path d="M1.97253 95.8992C16.1136 110.991 41.1433 119.775 59.4938 117.072C77.8444 114.369 88.419 108.864 99.8711 97.7126C88.5627 92.3252 77.7385 87.1678 66.4263 81.7804C78.8731 74.8737 90.1739 72.8945 90.1739 72.8945C93.5096 79.1829 98.2145 87.3827 101.656 93.6108C101.834 93.9351 102.118 94.199 102.352 94.4968C110.34 84.6834 119.216 69.6145 117.303 49.6974C116.773 44.1932 115.729 38.0103 113.244 31.8387C130.755 59.5033 125.729 78.3196 122.548 88.1744C117.942 101.456 112.102 107.813 104.345 115.537C94.7729 124.623 70.5979 137.268 42.1909 129.871C33.1442 127.515 23.8442 122.614 16.6885 115.96C9.44587 110.097 2.4226 97.2828 1.96875 95.8955L1.97253 95.8992Z" fill="white"/>
<path d="M0 38.3342C13.7705 7.24646 40.2449 1.84022 46.4512 0.931645C57.8428 -0.734712 65.4371 -0.308698 77.1615 3.3784C97.9401 9.85155 112.255 29.6744 114.521 38.8545C118.095 51.65 116.484 64.3588 116.291 65.0072C110.818 37.8403 90.7883 18.4963 68.3304 12.5471C43.5769 7.12205 22.5486 14.549 0 38.3342Z" fill="white"/>
<path d="M43.0424 22.8318C23.8598 28.0609 16.3071 40.1099 12.5023 47.4313C7.29441 58.0364 7.67262 69.5954 11.0954 79.356C12.8767 84.4305 16.8857 88.9093 16.8857 88.9093C14.6732 82.8395 13.3646 77.324 13.3079 71.9705C14.7224 73.3428 16.6512 74.1873 18.7805 74.1873C20.3917 74.1873 22.2714 73.6067 23.5156 72.7773C23.5156 72.7773 23.6215 73.7726 23.7161 74.4437C24.4007 79.3824 26.0232 84.0158 28.3453 88.4795C27.9482 85.3692 27.6343 75.9818 28.8143 69.9611C30.2515 62.6208 40.3723 48.4078 50.5763 46.485C50.5763 46.485 59.8234 29.3653 63.0154 22.1721C63.0154 22.1721 52.9325 20.1287 43.05 22.8243L43.0424 22.8318ZM24.7373 61.2711C23.2963 59.5972 21.1632 58.5341 18.7805 58.5341C18.0771 58.5341 17.3963 58.6359 16.7458 58.8093C18.0922 54.2626 20.8493 49.9987 23.9846 46.4549C24.359 49.3277 27.2107 51.9516 29.8582 52.83C27.7062 55.3635 25.9059 58.1043 24.7373 61.2711ZM41.4048 43.19C41.0606 42.1947 40.5992 41.256 39.9298 40.4266C39.1734 39.1448 37.6643 37.7913 36.3709 37.0486C40.2323 34.1382 46.0264 31.9892 52.5505 31.8347C51.6504 33.0788 50.8372 35.1071 50.8032 36.7508C50.8032 36.7885 50.7994 36.8262 50.7956 36.8639C50.7956 36.879 50.7956 36.8941 50.7956 36.9091C50.7956 36.928 50.7956 36.9506 50.7956 36.9695C50.7881 37.2748 50.7956 37.5915 50.8145 37.9082C50.8372 38.4662 50.8902 39.0091 50.9809 39.5218C47.354 40.0798 43.6929 41.8102 41.4048 43.1863V43.19Z" fill="white"/>
<path d="M65.694 16.8528C67.6834 20.6304 82.9478 51.081 88.4204 61.935C88.4204 61.935 98.0117 63.5862 108.17 69.8935C107.531 69.8935 106.888 69.8935 106.249 69.8935C92.2667 69.9388 78.6816 72.2837 65.5616 77.0943C50.2935 81.9765 29.825 95.0434 22.7109 100.721C23.0135 99.952 63.6139 21.3279 65.694 16.8566V16.8528ZM53.1489 68.001C55.3576 66.5118 66.0571 63.3337 76.4161 61.5542C73.122 55.2431 69.7484 49.6899 66.0722 42.6474C61.7342 50.9453 57.2146 60.2234 53.1489 68.001Z" fill="white"/>
<path d="M304.213 22.7039H316.943V51.4278H324.965V22.734H338.021V51.4693H345.997V22.734H358.883V61.5956H304.217V22.7039H304.213Z" fill="white"/>
<path d="M294.23 22.7227V51.5145H299.464C299.464 52.8303 299.464 53.9387 299.464 55.0471C299.464 59.3072 299.43 63.5636 299.483 67.8237C299.498 69.0037 299.188 69.5127 297.902 69.4788C294.88 69.4034 291.858 69.4147 288.836 69.475C287.69 69.4976 287.267 69.1093 287.308 67.9594C287.376 65.9726 287.327 63.9783 287.327 61.8671H264.919V69.2865H252.865V51.703C257.271 51.8237 258.716 48.7586 259.177 45.2374C259.904 39.6653 260.278 34.0442 260.713 28.4344C260.857 26.5757 260.736 24.6982 260.736 22.7227H294.23ZM269.177 51.4693H281.068V32.9245H272.12C271.734 39.2317 271.821 45.4598 269.177 51.4693Z" fill="white"/>
<path d="M542.452 61.6785H529.555V42.1007C529.408 42.0668 529.26 42.0366 529.112 42.0027C526.934 45.26 524.748 48.5135 522.573 51.7746C520.592 54.7454 518.648 57.7426 516.613 60.6795C516.28 61.162 515.588 61.6785 515.051 61.6936C511.276 61.7803 507.502 61.7388 503.572 61.7388V22.7491H516.458V42.8396C517.127 41.9424 517.498 41.4937 517.819 41.0112C521.571 35.375 525.338 29.7463 529.041 24.0799C529.718 23.0432 530.425 22.5417 531.741 22.5832C535.258 22.6888 538.783 22.6171 542.444 22.6171V61.6823L542.452 61.6785Z" fill="white"/>
<path d="M379.116 22.768V42.2818C379.237 42.3195 379.362 42.3572 379.487 42.3911C379.831 41.9123 380.187 41.4373 380.512 40.9472C384.305 35.2657 388.118 29.5956 391.858 23.8802C392.49 22.9189 393.155 22.5645 394.294 22.5871C397.811 22.6549 401.332 22.6135 405.027 22.6135V61.607H392.248V42.0367C392.115 41.999 391.979 41.9613 391.843 41.9236C391.121 42.983 390.387 44.0311 389.676 45.1018C386.276 50.2177 382.857 55.3186 379.506 60.4684C378.882 61.426 378.201 61.7917 377.063 61.7729C373.492 61.705 369.918 61.7502 366.242 61.7502V22.7756H379.113L379.116 22.768Z" fill="white"/>
<path d="M230.374 62.7417C220.514 62.4476 213.127 59.4165 209.043 51.1413C202.674 38.2515 211.229 23.3863 225.631 21.9046C232.469 21.1996 238.876 22.2326 244.28 26.7227C250.445 31.8462 252.533 38.5946 251.058 46.3006C249.537 54.2365 244.416 59.1865 236.799 61.5617C234.424 62.3006 231.875 62.4778 230.374 62.7417ZM238.112 42.1874C238.104 38.8623 236.913 36.0008 234.833 34.3231C230.347 30.7077 224.012 32.0687 221.422 37.2072C219.425 41.1695 220.185 46.6738 223.142 49.6295C225.502 51.9895 229.417 52.7247 232.59 51.409C236.122 49.9424 238.123 46.6022 238.116 42.1912L238.112 42.1874Z" fill="white"/>
<path d="M470.732 47.4654V61.637H457.635V22.7754H470.706V36.3815H482.978V22.7302H496.144V61.6257H483.099V47.4616H470.732V47.4654Z" fill="white"/>
<path d="M202 61.6635H189.183V32.8792H177.122V61.5768H164.127V22.7831H202V61.6635Z" fill="white"/>
<path d="M450.373 22.7795V61.5882H437.518V32.8832H425.362V61.641H412.416V22.7795H450.373Z" fill="white"/>
<path d="M562.533 47.9026V61.618H549.5V22.7263H562.522V36.9092C565.82 37.8329 566.497 37.5614 567.998 34.9375C570.082 31.2994 572.219 27.6877 574.242 24.0194C574.794 23.0204 575.377 22.5604 576.568 22.5831C580.52 22.6547 584.473 22.6094 588.803 22.6094C586.791 25.9045 584.949 28.928 583.096 31.9478C581.394 34.7226 579.719 37.5199 577.952 40.2532C577.332 41.2146 577.291 41.9309 577.896 42.9563C581.209 48.5624 584.435 54.2212 587.687 59.865C587.99 60.3928 588.262 60.9356 588.682 61.7274C583.796 61.7274 579.163 61.7651 574.533 61.667C574.064 61.6557 573.471 60.9093 573.176 60.3701C571.251 56.8565 569.382 53.3089 567.518 49.7613C566.213 47.273 565.763 47.077 562.533 47.8951V47.9026Z" fill="white"/>
<path d="M181.791 83.4638V103.266H179.726V85.2743H167.194V103.266H165.129V83.4638H181.791Z" fill="white"/>
<path d="M195.659 88.273C197.054 88.273 198.318 88.5936 199.449 89.2348C200.581 89.8572 201.467 90.7436 202.109 91.894C202.75 93.0445 203.071 94.3552 203.071 95.8263C203.071 97.3162 202.75 98.6364 202.109 99.7868C201.467 100.937 200.581 101.833 199.449 102.474C198.337 103.097 197.073 103.408 195.659 103.408C194.452 103.408 193.358 103.163 192.377 102.672C191.415 102.163 190.623 101.428 190.001 100.466V108.755H187.992V88.3862H189.916V91.3283C190.519 90.3476 191.312 89.5932 192.292 89.0651C193.292 88.537 194.414 88.273 195.659 88.273ZM195.517 101.626C196.555 101.626 197.498 101.39 198.346 100.918C199.195 100.428 199.855 99.7396 200.326 98.8532C200.817 97.9668 201.062 96.9579 201.062 95.8263C201.062 94.6947 200.817 93.6951 200.326 92.8276C199.855 91.9412 199.195 91.2528 198.346 90.7625C197.498 90.2721 196.555 90.0269 195.517 90.0269C194.461 90.0269 193.509 90.2721 192.66 90.7625C191.83 91.2528 191.17 91.9412 190.68 92.8276C190.208 93.6951 189.973 94.6947 189.973 95.8263C189.973 96.9579 190.208 97.9668 190.68 98.8532C191.17 99.7396 191.83 100.428 192.66 100.918C193.509 101.39 194.461 101.626 195.517 101.626Z" fill="white"/>
<path d="M213.525 103.408C212.091 103.408 210.8 103.087 209.649 102.446C208.499 101.786 207.593 100.881 206.933 99.7302C206.273 98.5798 205.943 97.2785 205.943 95.8263C205.943 94.3741 206.273 93.0728 206.933 91.9223C207.593 90.7719 208.499 89.8761 209.649 89.2348C210.8 88.5936 212.091 88.273 213.525 88.273C214.958 88.273 216.25 88.5936 217.4 89.2348C218.551 89.8761 219.447 90.7719 220.088 91.9223C220.748 93.0728 221.078 94.3741 221.078 95.8263C221.078 97.2785 220.748 98.5798 220.088 99.7302C219.447 100.881 218.551 101.786 217.4 102.446C216.25 103.087 214.958 103.408 213.525 103.408ZM213.525 101.626C214.581 101.626 215.524 101.39 216.354 100.918C217.202 100.428 217.863 99.7396 218.334 98.8532C218.805 97.9668 219.041 96.9579 219.041 95.8263C219.041 94.6947 218.805 93.6857 218.334 92.7993C217.863 91.9129 217.202 91.234 216.354 90.7625C215.524 90.2721 214.581 90.0269 213.525 90.0269C212.469 90.0269 211.516 90.2721 210.668 90.7625C209.838 91.234 209.178 91.9129 208.687 92.7993C208.216 93.6857 207.98 94.6947 207.98 95.8263C207.98 96.9579 208.216 97.9668 208.687 98.8532C209.178 99.7396 209.838 100.428 210.668 100.918C211.516 101.39 212.469 101.626 213.525 101.626Z" fill="white"/>
<path d="M225.371 88.3862H227.379V100.211L237.309 88.3862H239.091V103.266H237.083V91.4414L227.181 103.266H225.371V88.3862Z" fill="white"/>
<path d="M251.786 95.5151C252.842 95.7603 253.653 96.1846 254.218 96.7881C254.803 97.3916 255.095 98.1271 255.095 98.9947C255.095 99.8622 254.794 100.635 254.19 101.314C253.606 101.993 252.804 102.521 251.786 102.899C250.767 103.257 249.645 103.436 248.419 103.436C247.344 103.436 246.288 103.285 245.251 102.983C244.213 102.663 243.308 102.201 242.535 101.597L243.214 100.098C243.893 100.607 244.685 101.003 245.59 101.286C246.495 101.569 247.41 101.71 248.334 101.71C249.711 101.71 250.833 101.456 251.701 100.947C252.587 100.419 253.03 99.7114 253.03 98.825C253.03 98.0328 252.672 97.4199 251.955 96.9861C251.239 96.5335 250.258 96.3072 249.013 96.3072H246.467V94.8361H248.9C250.013 94.8361 250.909 94.6287 251.588 94.2138C252.267 93.78 252.606 93.2048 252.606 92.4881C252.606 91.696 252.219 91.0737 251.446 90.621C250.692 90.1684 249.702 89.9421 248.476 89.9421C246.873 89.9421 245.288 90.3476 243.723 91.1585L243.157 89.6026C244.93 88.6785 246.769 88.2164 248.674 88.2164C249.805 88.2164 250.824 88.3862 251.729 88.7256C252.653 89.0462 253.37 89.5083 253.879 90.1118C254.407 90.7153 254.671 91.4131 254.671 92.2052C254.671 92.9596 254.407 93.6291 253.879 94.2138C253.37 94.7984 252.672 95.2322 251.786 95.5151Z" fill="white"/>
<path d="M269.132 95.5717C271.15 96.0432 272.159 97.2596 272.159 99.221C272.159 100.522 271.678 101.522 270.716 102.22C269.754 102.917 268.321 103.266 266.416 103.266H259.655V88.3862H266.218C267.916 88.3862 269.245 88.7162 270.207 89.3763C271.169 90.0364 271.65 90.9794 271.65 92.2052C271.65 93.0162 271.424 93.714 270.971 94.2986C270.537 94.8644 269.924 95.2888 269.132 95.5717ZM261.607 95.0059H266.077C267.227 95.0059 268.104 94.789 268.708 94.3552C269.33 93.9215 269.641 93.2897 269.641 92.4598C269.641 91.63 269.33 91.0076 268.708 90.5927C268.104 90.1778 267.227 89.9704 266.077 89.9704H261.607V95.0059ZM266.331 101.682C267.614 101.682 268.576 101.475 269.217 101.06C269.858 100.645 270.179 99.9942 270.179 99.1078C270.179 98.2214 269.886 97.5708 269.302 97.1559C268.717 96.7221 267.793 96.5052 266.529 96.5052H261.607V101.682H266.331Z" fill="white"/>
<path d="M283.005 103.408C281.572 103.408 280.28 103.087 279.13 102.446C277.979 101.786 277.074 100.881 276.414 99.7302C275.754 98.5798 275.424 97.2785 275.424 95.8263C275.424 94.3741 275.754 93.0728 276.414 91.9223C277.074 90.7719 277.979 89.8761 279.13 89.2348C280.28 88.5936 281.572 88.273 283.005 88.273C284.438 88.273 285.73 88.5936 286.881 89.2348C288.031 89.8761 288.927 90.7719 289.568 91.9223C290.228 93.0728 290.558 94.3741 290.558 95.8263C290.558 97.2785 290.228 98.5798 289.568 99.7302C288.927 100.881 288.031 101.786 286.881 102.446C285.73 103.087 284.438 103.408 283.005 103.408ZM283.005 101.626C284.061 101.626 285.004 101.39 285.834 100.918C286.683 100.428 287.343 99.7396 287.814 98.8532C288.286 97.9668 288.522 96.9579 288.522 95.8263C288.522 94.6947 288.286 93.6857 287.814 92.7993C287.343 91.9129 286.683 91.234 285.834 90.7625C285.004 90.2721 284.061 90.0269 283.005 90.0269C281.949 90.0269 280.997 90.2721 280.148 90.7625C279.318 91.234 278.658 91.9129 278.168 92.7993C277.696 93.6857 277.46 94.6947 277.46 95.8263C277.46 96.9579 277.696 97.9668 278.168 98.8532C278.658 99.7396 279.318 100.428 280.148 100.918C280.997 101.39 281.949 101.626 283.005 101.626Z" fill="white"/>
<path d="M309.281 101.512V106.859H307.385V103.266H294.061V106.859H292.166V101.512H293.014C294.014 101.456 294.693 100.72 295.051 99.3059C295.409 97.8914 295.655 95.9111 295.787 93.3651L295.985 88.3862H306.961V101.512H309.281ZM297.625 93.4783C297.531 95.5905 297.352 97.335 297.088 98.7118C296.824 100.07 296.352 101.003 295.674 101.512H304.952V90.1684H297.795L297.625 93.4783Z" fill="white"/>
<path d="M319.419 103.408C317.948 103.408 316.628 103.087 315.458 102.446C314.308 101.805 313.403 100.909 312.742 99.7585C312.082 98.5892 311.752 97.2785 311.752 95.8263C311.752 94.3741 312.082 93.0728 312.742 91.9223C313.403 90.7719 314.308 89.8761 315.458 89.2348C316.628 88.5936 317.948 88.273 319.419 88.273C320.701 88.273 321.842 88.5276 322.842 89.0368C323.86 89.5272 324.662 90.2533 325.246 91.2151L323.747 92.2335C323.257 91.498 322.634 90.9511 321.88 90.5927C321.126 90.2155 320.305 90.0269 319.419 90.0269C318.344 90.0269 317.372 90.2721 316.505 90.7625C315.656 91.234 314.987 91.9129 314.496 92.7993C314.025 93.6857 313.789 94.6947 313.789 95.8263C313.789 96.9767 314.025 97.9951 314.496 98.8815C314.987 99.7491 315.656 100.428 316.505 100.918C317.372 101.39 318.344 101.626 319.419 101.626C320.305 101.626 321.126 101.446 321.88 101.088C322.634 100.73 323.257 100.183 323.747 99.4473L325.246 100.466C324.662 101.428 323.86 102.163 322.842 102.672C321.823 103.163 320.682 103.408 319.419 103.408Z" fill="white"/>
<path d="M339.326 90.1684H333.697V103.266H331.688V90.1684H326.059V88.3862H339.326V90.1684Z" fill="white"/>
<path d="M351.707 95.5717C353.725 96.0432 354.734 97.2596 354.734 99.221C354.734 100.522 354.253 101.522 353.292 102.22C352.33 102.917 350.896 103.266 348.992 103.266H342.23V88.3862H348.794C350.491 88.3862 351.82 88.7162 352.782 89.3763C353.744 90.0364 354.225 90.9794 354.225 92.2052C354.225 93.0162 353.999 93.714 353.546 94.2986C353.112 94.8644 352.499 95.2888 351.707 95.5717ZM344.182 95.0059H348.652C349.803 95.0059 350.679 94.789 351.283 94.3552C351.905 93.9215 352.217 93.2897 352.217 92.4598C352.217 91.63 351.905 91.0076 351.283 90.5927C350.679 90.1778 349.803 89.9704 348.652 89.9704H344.182V95.0059ZM348.907 101.682C350.189 101.682 351.151 101.475 351.792 101.06C352.433 100.645 352.754 99.9942 352.754 99.1078C352.754 98.2214 352.462 97.5708 351.877 97.1559C351.292 96.7221 350.368 96.5052 349.105 96.5052H344.182V101.682H348.907Z" fill="white"/>
<path d="M365.58 103.408C364.147 103.408 362.855 103.087 361.705 102.446C360.554 101.786 359.649 100.881 358.989 99.7302C358.329 98.5798 357.999 97.2785 357.999 95.8263C357.999 94.3741 358.329 93.0728 358.989 91.9223C359.649 90.7719 360.554 89.8761 361.705 89.2348C362.855 88.5936 364.147 88.273 365.58 88.273C367.014 88.273 368.306 88.5936 369.456 89.2348C370.607 89.8761 371.502 90.7719 372.144 91.9223C372.804 93.0728 373.134 94.3741 373.134 95.8263C373.134 97.2785 372.804 98.5798 372.144 99.7302C371.502 100.881 370.607 101.786 369.456 102.446C368.306 103.087 367.014 103.408 365.58 103.408ZM365.58 101.626C366.637 101.626 367.58 101.39 368.409 100.918C369.258 100.428 369.918 99.7396 370.39 98.8532C370.861 97.9668 371.097 96.9579 371.097 95.8263C371.097 94.6947 370.861 93.6857 370.39 92.7993C369.918 91.9129 369.258 91.234 368.409 90.7625C367.58 90.2721 366.637 90.0269 365.58 90.0269C364.524 90.0269 363.572 90.2721 362.723 90.7625C361.893 91.234 361.233 91.9129 360.743 92.7993C360.271 93.6857 360.036 94.6947 360.036 95.8263C360.036 96.9579 360.271 97.9668 360.743 98.8532C361.233 99.7396 361.893 100.428 362.723 100.918C363.572 101.39 364.524 101.626 365.58 101.626Z" fill="white"/>
<path d="M398.183 88.3862V103.266H396.174V90.1684H386.839V103.266H384.83V88.3862H398.183Z" fill="white"/>
<path d="M410.031 103.408C408.598 103.408 407.306 103.087 406.156 102.446C405.005 101.786 404.1 100.881 403.44 99.7302C402.78 98.5798 402.45 97.2785 402.45 95.8263C402.45 94.3741 402.78 93.0728 403.44 91.9223C404.1 90.7719 405.005 89.8761 406.156 89.2348C407.306 88.5936 408.598 88.273 410.031 88.273C411.465 88.273 412.756 88.5936 413.907 89.2348C415.057 89.8761 415.953 90.7719 416.594 91.9223C417.254 93.0728 417.585 94.3741 417.585 95.8263C417.585 97.2785 417.254 98.5798 416.594 99.7302C415.953 100.881 415.057 101.786 413.907 102.446C412.756 103.087 411.465 103.408 410.031 103.408ZM410.031 101.626C411.087 101.626 412.03 101.39 412.86 100.918C413.709 100.428 414.369 99.7396 414.84 98.8532C415.312 97.9668 415.548 96.9579 415.548 95.8263C415.548 94.6947 415.312 93.6857 414.84 92.7993C414.369 91.9129 413.709 91.234 412.86 90.7625C412.03 90.2721 411.087 90.0269 410.031 90.0269C408.975 90.0269 408.023 90.2721 407.174 90.7625C406.344 91.234 405.684 91.9129 405.194 92.7993C404.722 93.6857 404.487 94.6947 404.487 95.8263C404.487 96.9579 404.722 97.9668 405.194 98.8532C405.684 99.7396 406.344 100.428 407.174 100.918C408.023 101.39 408.975 101.626 410.031 101.626Z" fill="white"/>
<path d="M436.307 101.512V106.859H434.411V103.266H421.087V106.859H419.192V101.512H420.04C421.04 101.456 421.719 100.72 422.077 99.3059C422.436 97.8914 422.681 95.9111 422.813 93.3651L423.011 88.3862H433.987V101.512H436.307ZM424.652 93.4783C424.557 95.5905 424.378 97.335 424.114 98.7118C423.85 100.07 423.379 101.003 422.7 101.512H431.979V90.1684H424.821L424.652 93.4783Z" fill="white"/>
<path d="M460.759 88.3862V103.266H440.221V88.3862H442.23V101.512H449.528V88.3862H451.537V101.512H458.751V88.3862H460.759Z" fill="white"/>
<path d="M466.494 88.3862H468.502V100.211L478.432 88.3862H480.214V103.266H478.206V91.4414L468.304 103.266H466.494V88.3862Z" fill="white"/>
<path d="M499.323 88.3862V103.266H497.315V90.1684H487.979V103.266H485.97V88.3862H499.323Z" fill="white"/>
<path d="M505.033 88.3862H507.041V94.9776H516.405V88.3862H518.414V103.266H516.405V96.7032H507.041V103.266H505.033V88.3862Z" fill="white"/>
<path d="M524.122 88.3862H526.131V100.211L536.061 88.3862H537.843V103.266H535.834V91.4414L525.933 103.266H524.122V88.3862Z" fill="white"/>
<path d="M549.002 96.6467H545.608V103.266H543.599V88.3862H545.608V94.921H549.031L554.264 88.3862H556.442L550.587 95.6L556.867 103.266H554.491L549.002 96.6467Z" fill="white"/>
<path d="M565.651 103.408C564.217 103.408 562.925 103.087 561.775 102.446C560.625 101.786 559.719 100.881 559.059 99.7302C558.399 98.5798 558.069 97.2785 558.069 95.8263C558.069 94.3741 558.399 93.0728 559.059 91.9223C559.719 90.7719 560.625 89.8761 561.775 89.2348C562.925 88.5936 564.217 88.273 565.651 88.273C567.084 88.273 568.376 88.5936 569.526 89.2348C570.677 89.8761 571.573 90.7719 572.214 91.9223C572.874 93.0728 573.204 94.3741 573.204 95.8263C573.204 97.2785 572.874 98.5798 572.214 99.7302C571.573 100.881 570.677 101.786 569.526 102.446C568.376 103.087 567.084 103.408 565.651 103.408ZM565.651 101.626C566.707 101.626 567.65 101.39 568.48 100.918C569.328 100.428 569.988 99.7396 570.46 98.8532C570.931 97.9668 571.167 96.9579 571.167 95.8263C571.167 94.6947 570.931 93.6857 570.46 92.7993C569.988 91.9129 569.328 91.234 568.48 90.7625C567.65 90.2721 566.707 90.0269 565.651 90.0269C564.595 90.0269 563.642 90.2721 562.793 90.7625C561.964 91.234 561.304 91.9129 560.813 92.7993C560.342 93.6857 560.106 94.6947 560.106 95.8263C560.106 96.9579 560.342 97.9668 560.813 98.8532C561.304 99.7396 561.964 100.428 562.793 100.918C563.642 101.39 564.595 101.626 565.651 101.626Z" fill="white"/>
<path d="M586.974 95.5717C588.992 96.0432 590.001 97.2596 590.001 99.221C590.001 100.522 589.52 101.522 588.558 102.22C587.596 102.917 586.163 103.266 584.258 103.266H577.497V88.3862H584.06C585.757 88.3862 587.087 88.7162 588.049 89.3763C589.01 90.0364 589.491 90.9794 589.491 92.2052C589.491 93.0162 589.265 93.714 588.812 94.2986C588.379 94.8644 587.766 95.2888 586.974 95.5717ZM579.449 95.0059H583.918C585.069 95.0059 585.946 94.789 586.549 94.3552C587.172 93.9215 587.483 93.2897 587.483 92.4598C587.483 91.63 587.172 91.0076 586.549 90.5927C585.946 90.1778 585.069 89.9704 583.918 89.9704H579.449V95.0059ZM584.173 101.682C585.455 101.682 586.417 101.475 587.058 101.06C587.7 100.645 588.02 99.9942 588.02 99.1078C588.02 98.2214 587.728 97.5708 587.143 97.1559C586.559 96.7221 585.635 96.5052 584.371 96.5052H579.449V101.682H584.173Z" fill="white"/>
</svg>
