<svg width="621" height="652" viewBox="0 0 621 652" fill="none" xmlns="http://www.w3.org/2000/svg">
<path d="M9.73156 473.332C79.5281 547.82 203.068 591.176 293.641 577.834C384.214 564.492 436.407 537.325 492.931 482.283C437.117 455.692 383.691 430.236 327.858 403.646C389.291 369.556 445.069 359.787 445.069 359.787C461.533 390.825 484.755 431.297 501.742 462.037C502.62 463.638 504.02 464.94 505.177 466.41C544.602 417.974 588.414 343.598 578.968 245.293C576.355 218.125 571.203 187.609 558.939 157.147C645.368 293.692 620.559 386.564 604.86 435.205C582.123 500.76 553.301 532.133 515.015 570.261C467.768 615.106 348.448 677.516 208.238 641.008C163.586 629.378 117.684 605.188 82.3655 572.345C46.6179 543.409 11.953 480.161 9.71289 473.314L9.73156 473.332Z" fill="#F2F2F2"/>
<path d="M0 189.207C67.9672 35.7665 198.637 9.08284 229.27 4.59834C285.496 -3.62633 322.98 -1.52365 380.848 16.6748C483.405 48.6245 554.061 146.465 565.242 191.775C582.883 254.93 574.93 317.657 573.978 320.858C546.967 186.769 448.106 91.2924 337.26 61.9292C215.083 35.1524 111.294 71.8099 0 189.207Z" fill="#F2F2F2"/>
<path d="M212.445 112.692C117.765 138.501 80.4869 197.971 61.7077 234.108C36.003 286.452 37.8697 343.504 54.7635 391.679C63.5558 416.725 83.343 438.832 83.343 438.832C72.4227 408.873 65.9638 381.65 65.6838 355.226C72.6653 362 82.1856 366.168 92.6952 366.168C100.647 366.168 109.925 363.302 116.067 359.209C116.067 359.209 116.589 364.121 117.056 367.433C120.435 391.81 128.443 414.679 139.905 436.71C137.944 421.359 136.395 375.025 142.219 345.308C149.313 309.079 199.266 238.927 249.63 229.437C249.63 229.437 295.271 144.939 311.027 109.435C311.027 109.435 261.26 99.3498 212.483 112.654L212.445 112.692ZM122.096 302.417C114.984 294.155 104.456 288.908 92.6952 288.908C89.2231 288.908 85.863 289.41 82.6523 290.266C89.2978 267.825 102.906 246.78 118.381 229.288C120.229 243.468 134.304 256.419 147.371 260.754C136.75 273.259 127.864 286.787 122.096 302.417ZM204.362 213.174C202.664 208.262 200.386 203.628 197.082 199.534C193.349 193.208 185.9 186.528 179.516 182.862C198.575 168.497 227.174 157.89 259.374 157.127C254.932 163.268 250.918 173.279 250.75 181.392C250.75 181.578 250.732 181.764 250.713 181.95C250.713 182.024 250.713 182.099 250.713 182.173C250.713 182.266 250.713 182.378 250.713 182.471C250.676 183.978 250.713 185.541 250.806 187.104C250.918 189.858 251.18 192.538 251.628 195.069C233.726 197.823 215.656 206.364 204.362 213.155V213.174Z" fill="#F2F2F2"/>
<path d="M324.252 83.1812C334.071 101.826 409.412 252.122 436.423 305.694C436.423 305.694 483.763 313.844 533.903 344.975C530.748 344.975 527.575 344.975 524.42 344.975C455.408 345.198 388.355 356.773 323.599 380.516C248.239 404.613 147.213 469.108 112.1 497.132C113.593 493.336 313.985 105.269 324.252 83.1998V83.1812ZM262.333 335.634C273.235 328.284 326.044 312.597 377.174 303.815C360.914 272.665 344.263 245.256 326.119 210.496C304.708 251.452 282.4 297.246 262.333 335.634Z" fill="#F2F2F2"/>
</svg>
