<svg width="624" height="140" viewBox="0 0 624 140" fill="none" xmlns="http://www.w3.org/2000/svg">
<g clip-path="url(#clip0_195_402)">
<mask id="mask0_195_402" style="mask-type:luminance" maskUnits="userSpaceOnUse" x="0" y="0" width="624" height="140">
<path d="M624 0H0V140H624V0Z" fill="white"/>
</mask>
<g mask="url(#mask0_195_402)">
<path d="M2.08984 101.63C17.0798 117.62 43.5998 126.93 63.0498 124.07C82.4998 121.21 93.6998 115.37 105.84 103.55C93.8598 97.84 82.3799 92.38 70.3998 86.67C83.5899 79.35 95.5698 77.25 95.5698 77.25C99.1098 83.91 104.09 92.6 107.74 99.2C107.93 99.54 108.23 99.82 108.48 100.14C116.94 89.74 126.35 73.77 124.32 52.66C123.76 46.83 122.65 40.27 120.02 33.73C138.58 63.05 133.25 82.99 129.88 93.43C125 107.51 118.81 114.24 110.59 122.43C100.45 132.06 74.8298 145.46 44.7198 137.62C35.1298 135.12 25.2798 129.93 17.6898 122.88C10.0098 116.67 2.56984 103.09 2.08984 101.62V101.63Z" fill="white"/>
<path d="M123.01 54.5C122.64 51.39 122.01 45.9 120.79 41.05C117.54 28.06 103.1 10.28 81.78 3.57999C70.51 0.0399914 59.58 -0.370009 49.23 0.989991C39.71 2.22999 10.76 10.67 1.72998 43.14C1.74998 43.06 3.23998 41.37 3.27998 41.3C24.51 13.5 49.92 9.36999 73.31 14.75C90.45 18.69 113.23 34.23 123 54.5H123.01Z" fill="white"/>
<path d="M45.62 24.2C25.29 29.74 17.29 42.51 13.25 50.27C7.73002 61.51 8.13002 73.76 11.76 84.1C13.45 88.57 17.9 94.22 17.9 94.22C15.56 87.79 14.17 81.94 14.11 76.27C15.61 77.72 17.65 78.62 19.91 78.62C21.62 78.62 23.61 78 24.93 77.13C24.93 77.13 25.04 78.18 25.14 78.9C25.87 84.13 27.58 89.04 30.05 93.78C29.63 90.48 29.3 80.54 30.55 74.15C32.07 66.37 42.8 51.31 53.61 49.27C53.61 49.27 63.41 31.13 66.79 23.5C66.79 23.5 56.65 21.55 45.63 24.19L45.62 24.2ZM26.22 64.93C24.69 63.16 22.43 62.03 19.91 62.03C19.16 62.03 18.44 62.14 17.75 62.32C19.18 57.5 22.1 52.98 25.42 49.23C25.82 52.27 28.84 55.06 31.64 55.99C29.36 58.67 27.45 61.58 26.21 64.94L26.22 64.93ZM43.88 45.77C43.52 44.72 43.03 43.72 42.32 42.84C41.52 41.48 39.92 40.05 38.55 39.26C42.64 36.18 48.78 33.9 55.7 33.73C54.75 35.05 53.88 37.2 53.85 38.94C53.85 38.98 53.85 39.02 53.85 39.06V39.17C53.85 39.49 53.85 39.83 53.87 40.16C53.89 40.75 53.95 41.33 54.05 41.87C50.21 42.46 46.33 44.3 43.9 45.75L43.88 45.77Z" fill="white"/>
<path d="M130.7 56.82C130.66 56.66 130.51 56.53 130.54 56.39C109.35 57.31 90.8698 60 90.8698 60C85.0698 48.5 71.7298 21.85 69.6198 17.85C67.4198 22.59 24.3898 105.92 24.0698 106.73C60.9798 82.71 103 70.09 132.17 63.7C131.79 61.39 131.21 59.1 130.7 56.81V56.82ZM56.3298 72.07C60.6398 63.83 65.4298 53.99 70.0298 45.2C73.9298 52.66 76.0898 55.9 79.5898 62.59C65.3698 66.77 58.6798 70.49 56.3398 72.07H56.3298Z" fill="white"/>
<path d="M133.79 56.6522C134.65 59.3622 134.99 60.7922 135.5 63.1622C156.06 58.7522 168.23 57.67 168.51 57.67C157.87 56 133.78 56.6422 133.79 56.6522Z" fill="white"/>
<path d="M312.4 46.61H325.89V77.05H334.39V46.64H348.23V77.09H356.68V46.64H370.33V87.82H312.4V46.6V46.61Z" fill="white"/>
<path d="M301.82 46.63V77.14H307.37V80.88C307.37 85.39 307.33 89.91 307.39 94.42C307.41 95.67 307.08 96.21 305.72 96.17C302.52 96.09 299.32 96.1 296.11 96.17C294.9 96.19 294.45 95.78 294.49 94.56C294.56 92.45 294.51 90.34 294.51 88.1H270.76V95.96H257.99V77.33C262.66 77.46 264.19 74.21 264.68 70.48C265.45 64.57 265.85 58.62 266.31 52.67C266.46 50.7 266.33 48.71 266.33 46.62H301.83L301.82 46.63ZM275.27 77.09H287.87V57.44H278.39C277.98 64.12 278.07 70.72 275.27 77.09Z" fill="white"/>
<path d="M564.88 87.91H551.21V67.16C551.05 67.12 550.9 67.09 550.74 67.06C548.43 70.51 546.12 73.96 543.81 77.42C541.71 80.57 539.65 83.74 537.49 86.86C537.14 87.37 536.4 87.92 535.84 87.93C531.84 88.02 527.84 87.98 523.68 87.98V46.66H537.34V67.95C538.05 67 538.44 66.52 538.78 66.01C542.76 60.04 546.75 54.07 550.67 48.07C551.39 46.97 552.14 46.44 553.53 46.48C557.26 46.59 560.99 46.52 564.87 46.52V87.92L564.88 87.91Z" fill="white"/>
<path d="M391.78 46.67V67.35C391.91 67.39 392.04 67.43 392.17 67.47C392.53 66.96 392.91 66.46 393.26 65.94C397.28 59.92 401.32 53.91 405.28 47.85C405.95 46.83 406.65 46.46 407.86 46.48C411.59 46.55 415.32 46.51 419.24 46.51V87.83H405.7V67.09C405.56 67.05 405.42 67.01 405.27 66.97C404.5 68.09 403.73 69.2 402.97 70.34C399.37 75.76 395.74 81.17 392.19 86.63C391.53 87.64 390.81 88.03 389.6 88.01C385.82 87.94 382.03 87.99 378.13 87.99V46.69H391.77L391.78 46.67Z" fill="white"/>
<path d="M234.15 89.04C223.7 88.73 215.87 85.52 211.54 76.75C204.79 63.09 213.86 47.34 229.12 45.77C236.37 45.02 243.16 46.12 248.88 50.88C255.41 56.31 257.63 63.46 256.06 71.63C254.45 80.04 249.02 85.29 240.95 87.8C238.43 88.58 235.73 88.77 234.14 89.05L234.15 89.04ZM242.35 67.26C242.35 63.74 241.08 60.7 238.88 58.93C234.13 55.1 227.41 56.54 224.67 61.99C222.55 66.19 223.36 72.02 226.49 75.15C228.99 77.65 233.14 78.43 236.5 77.04C240.24 75.49 242.36 71.95 242.36 67.27L242.35 67.26Z" fill="white"/>
<path d="M488.87 72.85V87.87H474.99V46.68H488.84V61.1H501.85V46.63H515.8V87.85H501.98V72.84H488.87V72.85Z" fill="white"/>
<path d="M204.08 87.9H190.5V57.39H177.72V87.8H163.95V46.69H204.09V87.9H204.08Z" fill="white"/>
<path d="M467.3 46.69V87.82H453.68V57.4H440.8V87.88H427.08V46.7H467.31L467.3 46.69Z" fill="white"/>
<path d="M586.16 73.31V87.85H572.35V46.63H586.15V61.66C589.64 62.64 590.36 62.35 591.95 59.57C594.16 55.71 596.42 51.89 598.57 48C599.16 46.94 599.77 46.45 601.04 46.48C605.23 46.56 609.42 46.51 614.01 46.51C611.88 50 609.93 53.21 607.96 56.41C606.16 59.35 604.38 62.32 602.51 65.21C601.85 66.23 601.81 66.99 602.45 68.07C605.96 74.01 609.38 80.01 612.83 85.99C613.15 86.55 613.44 87.12 613.88 87.96C608.7 87.96 603.79 88 598.89 87.9C598.39 87.89 597.76 87.1 597.45 86.53C595.41 82.81 593.43 79.05 591.45 75.29C590.07 72.65 589.59 72.45 586.17 73.31H586.16Z" fill="white"/>
</g>
</g>
<defs>
<clipPath id="clip0_195_402">
<rect width="624" height="140" fill="white"/>
</clipPath>
</defs>
</svg>
