<svg width="624" height="140" viewBox="0 0 624 140" fill="none" xmlns="http://www.w3.org/2000/svg">
<path d="M2.08848 101.633C17.075 117.626 43.6011 126.936 63.0488 124.071C82.4964 121.206 93.7032 115.373 105.84 103.554C93.8556 97.8449 82.3842 92.3792 70.3957 86.6697C83.5866 79.3501 95.563 77.2525 95.563 77.2525C99.0982 83.9169 104.084 92.6069 107.732 99.2074C107.92 99.551 108.221 99.8307 108.469 100.146C116.935 89.7462 126.342 73.7764 124.314 52.6686C123.752 46.8352 122.646 40.2827 120.013 33.7422C138.571 63.0607 133.244 83.0019 129.873 93.446C124.991 107.522 118.802 114.258 110.582 122.445C100.437 132.074 74.8167 145.475 44.7114 137.635C35.1238 135.138 25.2677 129.944 17.6843 122.892C10.0086 116.679 2.56545 103.099 2.08447 101.629L2.08848 101.633Z" fill="white"/>
<path d="M0 40.626C14.5937 7.6797 42.6509 1.95024 49.2284 0.987344C61.301 -0.778637 69.3494 -0.327153 81.7747 3.58038C103.796 10.4405 118.967 31.4485 121.367 41.1774C125.155 54.7379 123.448 68.2065 123.243 68.8937C117.443 40.1026 96.2161 19.6021 72.4156 13.2973C46.1821 7.54785 23.8967 15.4189 0 40.626Z" fill="white"/>
<path d="M45.6167 24.197C25.2873 29.7387 17.283 42.5081 13.2508 50.2672C7.7315 61.5064 8.13232 73.7564 11.7597 84.1005C13.6476 89.4784 17.8962 94.225 17.8962 94.225C15.5514 87.7923 14.1646 81.947 14.1045 76.2735C15.6036 77.7278 17.6477 78.6228 19.9043 78.6228C21.6118 78.6228 23.6039 78.0075 24.9225 77.1285C24.9225 77.1285 25.0348 78.1833 25.135 78.8945C25.8605 84.1285 27.58 89.0389 30.041 93.7695C29.6201 90.4733 29.2874 80.5246 30.538 74.1439C32.0611 66.3648 42.787 51.302 53.601 49.2644C53.601 49.2644 63.401 31.1211 66.7839 23.4978C66.7839 23.4978 56.0981 21.3323 45.6248 24.189L45.6167 24.197ZM26.2172 64.9344C24.6901 63.1605 22.4295 62.0338 19.9043 62.0338C19.1588 62.0338 18.4373 62.1416 17.7479 62.3254C19.1748 57.5069 22.0968 52.9881 25.4196 49.2324C25.8164 52.2769 28.8385 55.0577 31.6442 55.9887C29.3636 58.6736 27.4557 61.5783 26.2172 64.9344ZM43.8812 45.7723C43.5165 44.7175 43.0275 43.7227 42.318 42.8437C41.5164 41.4852 39.9171 40.0509 38.5463 39.2638C42.6387 36.1793 48.7792 33.9019 55.6933 33.7381C54.7393 35.0566 53.8776 37.2061 53.8415 38.9481C53.8415 38.9881 53.8375 39.028 53.8335 39.068C53.8335 39.084 53.8335 39.1 53.8335 39.1159C53.8335 39.1359 53.8335 39.1599 53.8335 39.1799C53.8255 39.5035 53.8335 39.8391 53.8535 40.1747C53.8776 40.7661 53.9337 41.3414 54.0299 41.8848C50.1861 42.4761 46.3061 44.31 43.8812 45.7683V45.7723Z" fill="white"/>
<path d="M69.6217 17.8602C71.73 21.8637 87.907 54.1348 93.7068 65.6376C93.7068 65.6376 103.872 67.3876 114.637 74.072C113.96 74.072 113.279 74.072 112.601 74.072C97.7831 74.1199 83.3858 76.6051 69.4814 81.7033C53.3004 86.8774 31.6082 100.726 24.0688 106.743C24.3895 105.928 67.4172 22.6028 69.6217 17.8642V17.8602ZM56.3266 72.0663C58.6674 70.4881 70.0065 67.1199 80.9849 65.2341C77.4938 58.5457 73.9185 52.6605 70.0225 45.197C65.4252 53.9909 60.6354 63.8237 56.3266 72.0663Z" fill="white"/>
<path d="M322.401 46.6074H335.893V77.0486H344.394V46.6394H358.23V77.0926H366.683V46.6394H380.339V87.8243H322.405V46.6074H322.401Z" fill="white"/>
<path d="M311.82 46.6274V77.1406H317.367C317.367 78.535 317.367 79.7096 317.367 80.8843C317.367 85.3991 317.331 89.91 317.387 94.4248C317.403 95.6754 317.074 96.2148 315.712 96.1788C312.509 96.0989 309.307 96.1109 306.104 96.1748C304.89 96.1988 304.441 95.7873 304.485 94.5687C304.557 92.4631 304.505 90.3495 304.505 88.112H280.756V95.975H267.982V77.3403C272.652 77.4682 274.183 74.2199 274.672 70.4882C275.442 64.5829 275.838 58.6257 276.299 52.6805C276.452 50.7108 276.323 48.721 276.323 46.6274H311.82ZM285.27 77.0926H297.871V57.4391H288.388C287.979 64.1234 288.071 70.7239 285.27 77.0926Z" fill="white"/>
<path d="M574.88 87.9122H561.212V67.1639C561.056 67.128 560.899 67.096 560.743 67.06C558.434 70.5121 556.118 73.9602 553.813 77.4162C551.713 80.5646 549.652 83.741 547.496 86.8534C547.143 87.3648 546.41 87.9122 545.841 87.9282C541.84 88.0201 537.84 87.9761 533.676 87.9761V46.6554H547.332V67.947C548.041 66.9961 548.434 66.5207 548.775 66.0093C552.751 60.0361 556.743 54.0709 560.667 48.0658C561.384 46.967 562.134 46.4356 563.529 46.4796C567.256 46.5914 570.992 46.5155 574.872 46.5155V87.9162L574.88 87.9122Z" fill="white"/>
<path d="M401.783 46.6754V67.3558C401.911 67.3957 402.044 67.4357 402.176 67.4716C402.541 66.9642 402.917 66.4608 403.262 65.9414C407.282 59.9203 411.322 53.9111 415.286 47.8541C415.956 46.8352 416.661 46.4596 417.868 46.4836C421.595 46.5555 425.327 46.5116 429.243 46.5116V87.8364H415.699V67.0961C415.559 67.0561 415.415 67.0162 415.27 66.9762C414.505 68.0989 413.727 69.2096 412.974 70.3443C409.37 75.7662 405.747 81.172 402.196 86.6297C401.534 87.6446 400.813 88.0321 399.607 88.0122C395.823 87.9402 392.035 87.9882 388.139 87.9882V46.6834H401.779L401.783 46.6754Z" fill="white"/>
<path d="M244.146 89.0389C233.697 88.7273 225.869 85.515 221.54 76.745C214.79 63.0846 223.856 47.3306 239.12 45.7604C246.366 45.0133 253.156 46.108 258.884 50.8666C265.417 56.2964 267.63 63.4482 266.067 71.6149C264.455 80.0252 259.028 85.2712 250.956 87.7884C248.439 88.5715 245.737 88.7593 244.146 89.0389ZM252.347 67.2558C252.339 63.7319 251.076 60.6993 248.871 58.9214C244.118 55.0897 237.404 56.5321 234.659 61.9779C232.542 66.1771 233.348 72.0104 236.482 75.1428C238.983 77.644 243.132 78.4231 246.495 77.0287C250.238 75.4744 252.359 71.9345 252.351 67.2598L252.347 67.2558Z" fill="white"/>
<path d="M498.873 72.8494V87.8683H484.993V46.6833H498.845V61.1028H511.851V46.6354H525.804V87.8563H511.98V72.8454H498.873V72.8494Z" fill="white"/>
<path d="M214.076 87.8962H200.493V57.3911H187.711V87.8043H173.938V46.6913H214.076V87.8962Z" fill="white"/>
<path d="M477.297 46.6874V87.8164H463.673V57.3951H450.791V87.8723H437.071V46.6874H477.297Z" fill="white"/>
<path d="M596.163 73.3129V87.8483H582.351V46.6314H596.151V61.6622C599.646 62.6411 600.364 62.3535 601.955 59.5726C604.164 55.717 606.428 51.8894 608.572 48.0019C609.158 46.9431 609.775 46.4556 611.038 46.4796C615.226 46.5555 619.415 46.5076 624.004 46.5076C621.872 49.9996 619.92 53.2039 617.956 56.4043C616.152 59.3449 614.376 62.3095 612.505 65.2062C611.847 66.225 611.803 66.9842 612.444 68.0709C615.956 74.0121 619.375 80.0093 622.822 85.9904C623.142 86.5498 623.431 87.1251 623.876 87.9642C618.697 87.9642 613.787 88.0041 608.881 87.9003C608.384 87.8883 607.755 87.0972 607.442 86.5258C605.402 82.8021 603.422 79.0424 601.446 75.2827C600.063 72.6457 599.586 72.4379 596.163 73.3049V73.3129Z" fill="white"/>
</svg>
