<svg width="64" height="64" viewBox="0 0 64 64" fill="none" xmlns="http://www.w3.org/2000/svg">
<g filter="url(#filter0_d_441_4875)">
<circle cx="26" cy="28" r="20" fill="#A80000"/>
</g>
<path d="M13.4325 34.0531C16.5369 37.3662 22.0318 39.2947 26.0604 38.7012C30.0889 38.1078 32.4104 36.8994 34.9245 34.4512C32.442 33.2685 30.0657 32.1363 27.5823 30.9536C30.3148 29.4373 32.7957 29.0028 32.7957 29.0028C33.528 30.3833 34.5609 32.1835 35.3164 33.5508C35.3554 33.6219 35.4177 33.6799 35.4692 33.7453C37.2228 31.5909 39.1715 28.2828 38.7513 23.9103C38.6351 22.7019 38.4059 21.3446 37.8604 19.9897C41.7047 26.063 40.6012 30.1938 39.9029 32.3573C38.8916 35.2731 37.6097 36.6685 35.9068 38.3644C33.8053 40.359 28.4981 43.135 22.2618 41.5111C20.2757 40.9938 18.234 39.9179 16.6631 38.4571C15.0731 37.1701 13.5313 34.3569 13.4316 34.0523L13.4325 34.0531Z" fill="white"/>
<path d="M13 21.4157C16.0231 14.5908 21.8351 13.404 23.1976 13.2045C25.6985 12.8387 27.3657 12.9322 29.9396 13.7417C34.5012 15.1628 37.6438 19.5145 38.1412 21.5299C38.9258 24.3389 38.5721 27.1289 38.5298 27.2713C37.3283 21.3072 32.9311 17.0606 28.0008 15.7545C22.5666 14.5635 17.9502 16.194 13 21.4157Z" fill="white"/>
<path d="M22.449 18.0124C18.2378 19.1604 16.5797 21.8055 15.7444 23.4128C14.6011 25.741 14.6842 28.2786 15.4356 30.4214C15.8266 31.5354 16.7068 32.5187 16.7068 32.5187C16.221 31.1862 15.9338 29.9753 15.9213 28.8C16.2318 29.1013 16.6553 29.2867 17.1227 29.2867C17.4764 29.2867 17.8891 29.1592 18.1623 28.9771C18.1623 28.9771 18.1855 29.1957 18.2063 29.343C18.3565 30.4272 18.7127 31.4444 19.2225 32.4243C19.1353 31.7415 19.0664 29.6807 19.3255 28.3589C19.641 26.7475 21.8629 23.6272 24.103 23.2051C24.103 23.2051 26.133 19.4467 26.8338 17.8676C26.8338 17.8676 24.6202 17.419 22.4507 18.0108L22.449 18.0124ZM18.4304 26.4512C18.1141 26.0837 17.6458 25.8503 17.1227 25.8503C16.9683 25.8503 16.8188 25.8726 16.676 25.9107C16.9716 24.9126 17.5769 23.9765 18.2652 23.1985C18.3474 23.8292 18.9734 24.4052 19.5546 24.598C19.0822 25.1542 18.687 25.7559 18.4304 26.4512ZM22.0895 22.4817C22.014 22.2632 21.9127 22.0572 21.7657 21.8751C21.5997 21.5937 21.2684 21.2965 20.9844 21.1335C21.8321 20.4945 23.1041 20.0228 24.5364 19.9889C24.3388 20.262 24.1603 20.7073 24.1528 21.0681C24.1528 21.0764 24.152 21.0847 24.1511 21.0929C24.1511 21.0963 24.1511 21.0996 24.1511 21.1029C24.1511 21.107 24.1511 21.112 24.1511 21.1161C24.1495 21.1832 24.1511 21.2527 24.1553 21.3222C24.1603 21.4447 24.1719 21.5639 24.1918 21.6764C23.3956 21.7989 22.5918 22.1788 22.0895 22.4809V22.4817Z" fill="white"/>
<path d="M27.4226 16.6998C27.8593 17.5291 31.2104 24.2141 32.4118 26.5969C32.4118 26.5969 34.5174 26.9594 36.7476 28.3441C36.6072 28.3441 36.4661 28.3441 36.3258 28.3441C33.2562 28.354 30.2738 28.8688 27.3935 29.9249C24.0416 30.9967 19.5481 33.8653 17.9863 35.1118C18.0528 34.9429 26.9659 17.6823 27.4226 16.7007V16.6998ZM24.6685 27.9286C25.1534 27.6017 27.5023 26.9039 29.7764 26.5133C29.0533 25.1278 28.3126 23.9087 27.5056 22.3626C26.5533 24.1843 25.5611 26.2211 24.6685 27.9286Z" fill="white"/>
<defs>
<filter id="filter0_d_441_4875" x="0.1" y="0.1" width="63.8" height="63.8" filterUnits="userSpaceOnUse" color-interpolation-filters="sRGB">
<feFlood flood-opacity="0" result="BackgroundImageFix"/>
<feColorMatrix in="SourceAlpha" type="matrix" values="0 0 0 0 0 0 0 0 0 0 0 0 0 0 0 0 0 0 127 0" result="hardAlpha"/>
<feOffset dx="6" dy="4"/>
<feGaussianBlur stdDeviation="5.95"/>
<feComposite in2="hardAlpha" operator="out"/>
<feColorMatrix type="matrix" values="0 0 0 0 0 0 0 0 0 0 0 0 0 0 0 0 0 0 0.35 0"/>
<feBlend mode="normal" in2="BackgroundImageFix" result="effect1_dropShadow_441_4875"/>
<feBlend mode="normal" in="SourceGraphic" in2="effect1_dropShadow_441_4875" result="shape"/>
</filter>
</defs>
</svg>
