<svg width="40" height="40" viewBox="0 0 40 40" fill="none" xmlns="http://www.w3.org/2000/svg">
<g clip-path="url(#clip0_444_995)">
<path d="M30.666 20.6667H22.666V14C22.666 12.8665 21.7995 12 20.666 12H19.9993C18.8659 12 17.9993 12.8665 17.9993 14V22.6667H16.666C15.5326 22.6667 14.666 23.5332 14.666 24.6667V29.5332L18.666 36.8665V40H30.666V36.8001L32.666 32.1335V22.6667C32.666 21.5332 31.7995 20.6667 30.666 20.6667ZM19.9993 38.6667V37.3333H29.3327V38.6667H19.9993ZM31.3327 31.8665L29.5326 36H19.7327L15.9993 29.1335V24.6667C15.9993 24.2666 16.266 24 16.666 24H17.9993V26.6667H19.3327V14C19.3327 13.5999 19.5993 13.3333 19.9993 13.3333H20.666C21.0661 13.3333 21.3327 13.5999 21.3327 14V25.3333H22.666V22H24.666V25.3333H25.9993V22H27.9993V25.3333H29.3327V22H30.666C31.0661 22 31.3327 22.2666 31.3327 22.6667V31.8665Z" fill="white"/>
<path d="M28.0007 32.4668L26.8008 34.2666L27.8672 35.0667L29.334 32.8665V30H28.0007V32.4668Z" fill="white"/>
<path d="M33.1341 0H6.86719L3.33398 9.19987V34H15.334V32.6667H4.66732V10H12.6673V8.66667H5.00065L6.73405 4H14.6673V2.66667H7.26725L7.80078 1.33333H32.2005L32.734 2.66667H25.334V4H33.2673L35.0006 8.66667H27.334V10H35.334V32.6667H34.0006V34H36.6673V9.19987L33.1341 0Z" fill="white"/>
<path d="M17.8008 8.19989L16.8672 9.13348L18.6673 10.9333L22.4674 7.13348L21.5339 6.19989L18.6673 9.06675L17.8008 8.19989Z" fill="white"/>
<path d="M24.5335 12.6666C26.7337 10.1998 26.4671 6.40004 24.0003 4.19984C21.4671 1.99997 17.6669 2.19984 15.4671 4.66664C13.2669 7.13343 13.5335 10.9332 16.0003 13.1334L16.8668 12.1334C14.9335 10.4 14.7337 7.46677 16.4671 5.53317C18.2001 3.59991 21.1337 3.40004 23.067 5.13343C25.0003 6.86651 25.2001 9.8001 23.4671 11.7334L24.5335 12.6666Z" fill="white"/>
</g>
<defs>
<clipPath id="clip0_444_995">
<rect width="40" height="40" fill="white"/>
</clipPath>
</defs>
</svg>
