<svg width="40" height="38" viewBox="0 0 40 38" fill="none" xmlns="http://www.w3.org/2000/svg">
<path d="M17.5007 23.3334C17.334 23.3334 17.334 23.3334 17.1673 23.3334L14.834 22.3334C14.0007 22 13.334 21 13.334 20V18.1667C13.334 17.6667 13.6673 17.3334 14.1673 17.3334C14.6673 17.3334 15.0007 17.6667 15.0007 18.1667V20C15.0007 20.3334 15.1673 20.6667 15.5007 20.8334L17.834 21.6667C18.334 21.8334 18.5007 22.3334 18.334 22.6667C18.1673 23.1667 17.834 23.3334 17.5007 23.3334Z" fill="white"/>
<path d="M7.49935 14C6.99935 14 6.66602 13.6667 6.66602 13.1667V11.5C6.66602 11 6.99935 10.6667 7.49935 10.6667C7.99935 10.6667 8.33268 11 8.33268 11.5V13.1667C8.33268 13.6667 7.99935 14 7.49935 14Z" fill="white"/>
<path d="M14.166 37.3334H10.8327C10.4993 37.3334 10.166 37.1667 9.99935 36.8334L5.16602 23.1667L6.66602 22.6667L11.4993 35.6667H13.166L9.99935 23.3334L11.666 23L14.9993 36.3334C14.9993 36.5 14.9993 36.8334 14.8327 37C14.666 37.1667 14.4993 37.3334 14.166 37.3334Z" fill="white"/>
<path d="M39.1667 16.5H35.8333C35.3333 16.5 35 16.1667 35 15.6667C35 15.1667 35.3333 14.8334 35.8333 14.8334H39.1667C39.6667 14.8334 40 15.1667 40 15.6667C40 16.1667 39.6667 16.5 39.1667 16.5Z" fill="white"/>
<path d="M36.8327 9.66667C36.666 9.66667 36.3327 9.66667 36.166 9.5C35.8327 9.16667 35.8327 8.66667 36.166 8.33333L38.4993 6C38.8327 5.66667 39.3327 5.66667 39.666 6C39.9993 6.33333 39.9993 6.83333 39.666 7.16667L37.3327 9.5C37.166 9.66667 36.9993 9.66667 36.8327 9.66667Z" fill="white"/>
<path d="M39.166 25.6667C38.9993 25.6667 38.666 25.6667 38.4993 25.5L36.166 23.1667C35.8327 22.8333 35.8327 22.3333 36.166 22C36.4993 21.6667 36.9993 21.6667 37.3327 22L39.666 24.3333C39.9993 24.6667 39.9993 25.1667 39.666 25.5C39.666 25.6667 39.3327 25.6667 39.166 25.6667Z" fill="white"/>
<path d="M14.1673 15.6667C14.6276 15.6667 15.0007 15.2936 15.0007 14.8333C15.0007 14.3731 14.6276 14 14.1673 14C13.7071 14 13.334 14.3731 13.334 14.8333C13.334 15.2936 13.7071 15.6667 14.1673 15.6667Z" fill="white"/>
<path d="M29.1667 0.666687H27.5C27.3333 0.666687 27.3333 0.666687 27.1667 0.666687L10.6667 7.33335H7.5C5.5 7.33335 3.83333 8.83335 3.5 10.6667H0.833333C0.333333 10.6667 0 11 0 11.5V19.8334C0 20.3334 0.333333 20.6667 0.833333 20.6667H3.5C3.83333 22.5 5.5 24 7.5 24H10.6667L27.1667 30.6667H27.5H29.1667C31.5 30.6667 33.3333 28.8334 33.3333 26.5V4.83335C33.3333 2.50002 31.5 0.666687 29.1667 0.666687ZM1.66667 12.3334H3.33333V19H1.66667V12.3334ZM5 19.8334V11.5C5 10.1667 6.16667 9.00002 7.5 9.00002H10V22.3334H7.5C6.16667 22.3334 5 21.1667 5 19.8334ZM11.6667 8.66669L26.6667 2.66669V28.5L11.6667 22.5V8.66669ZM31.6667 26.5C31.6667 27.8334 30.5 29 29.1667 29H28.3333V2.33335H29.1667C30.5 2.33335 31.6667 3.50002 31.6667 4.83335V26.5Z" fill="white"/>
</svg>
