<svg width="922" height="922" viewBox="0 0 922 922" fill="none" xmlns="http://www.w3.org/2000/svg">
<path d="M459.836 0C205.994 0 0 206.805 0 460.647C0 714.49 205.994 921.294 460.647 921.294C715.301 921.294 921.294 715.301 921.294 460.647C919.672 206.805 713.679 0.810998 459.836 0ZM459.836 892.098C221.403 892.098 27.5739 699.081 27.5739 459.836C27.5739 220.592 221.403 28.3849 459.836 28.3849C698.27 28.3849 892.098 221.403 892.098 460.647C891.287 699.081 698.27 892.098 459.836 892.098Z" fill="white"/>
<path d="M459.837 297.636C369.816 297.636 296.826 370.626 296.826 460.647C296.826 550.668 369.816 623.658 459.837 623.658C549.858 623.658 622.848 550.668 622.848 460.647C622.848 370.626 549.858 297.636 459.837 297.636ZM459.837 595.273C385.225 595.273 325.211 535.259 325.211 460.647C325.211 386.035 385.225 326.021 459.837 326.021C534.449 326.021 594.463 386.035 594.463 460.647C594.463 535.259 534.449 595.273 459.837 595.273Z" fill="white"/>
<path d="M459.836 60.0139C239.245 60.0139 59.2031 240.056 59.2031 460.647C59.2031 677.995 235.19 861.28 459.836 861.28C679.617 861.28 860.47 682.861 860.47 460.647C860.47 243.3 684.483 60.0139 459.836 60.0139ZM755.04 377.114C719.356 397.389 673.129 385.224 652.854 349.54C632.579 313.856 644.744 267.63 680.428 247.355C715.301 227.08 759.095 238.434 780.992 271.685C804.511 312.234 789.102 356.839 755.04 377.114ZM780.181 649.61C757.473 684.483 711.246 695.026 676.373 672.318C641.5 649.61 630.957 603.383 653.665 568.51C676.373 533.637 722.6 523.094 757.473 545.802C789.913 566.888 804.511 609.871 780.181 649.61ZM459.836 654.476C352.785 654.476 266.008 567.699 266.008 460.647C266.008 353.595 352.785 266.819 459.836 266.819C566.888 266.819 653.665 353.595 653.665 460.647C653.665 567.699 566.888 654.476 459.836 654.476ZM535.259 758.284C535.259 799.644 502.008 833.706 459.836 833.706C417.664 833.706 384.413 800.455 384.413 758.284C384.413 716.112 417.664 682.861 459.836 682.861C501.197 682.861 534.448 716.923 535.259 758.284ZM135.437 643.933C116.784 607.438 131.382 562.022 167.877 543.369C204.372 524.716 249.788 539.314 268.441 575.809C287.094 612.304 272.496 657.72 236.001 676.373C203.561 693.404 158.956 684.483 135.437 643.933ZM135.437 277.362C176.798 204.372 277.362 237.623 277.362 311.423C277.362 352.784 244.111 386.846 201.939 386.846C145.98 386.846 110.296 327.643 135.437 277.362ZM385.224 163.011C385.224 121.65 418.475 87.5879 460.647 87.5879C502.819 87.5879 536.07 120.839 536.07 163.011C536.07 205.183 502.819 238.434 460.647 238.434C418.475 238.434 385.224 204.372 385.224 163.011ZM734.765 210.049C676.373 199.506 620.414 241.678 613.926 300.88C587.163 274.928 555.534 256.276 519.85 246.544C568.51 211.671 576.62 141.925 538.503 96.5088C614.737 113.54 682.861 153.279 734.765 210.049ZM380.358 96.5088C341.431 142.736 350.352 211.671 399.011 246.544C363.328 256.276 331.699 275.739 304.936 300.88C299.259 240.867 243.3 199.506 184.097 210.049C236.812 153.279 304.936 113.54 380.358 96.5088ZM105.43 347.107C120.028 387.657 158.956 415.231 202.75 415.231C217.348 415.231 231.946 411.987 244.922 406.31C236.001 441.994 236.001 479.3 244.922 514.984C189.774 490.654 125.705 518.228 106.241 574.187C81.9111 500.386 81.9111 420.908 105.43 347.107ZM184.097 711.246C242.489 721.789 298.448 680.428 304.936 620.414C331.699 646.366 363.328 665.019 399.011 674.751C350.352 709.624 342.242 779.37 380.358 824.785C304.936 807.755 236.812 768.016 184.097 711.246ZM539.314 824.785C578.242 778.559 569.321 709.624 520.661 674.751C556.345 665.019 587.974 645.555 614.737 620.414C621.225 682.05 677.184 722.6 735.576 711.246C682.861 768.016 614.737 807.755 539.314 824.785ZM814.243 574.187C793.968 517.417 729.899 490.654 675.562 514.984C684.483 479.3 684.483 441.994 675.562 406.31C730.71 430.64 793.968 403.877 814.243 347.107C837.762 420.908 837.762 500.386 814.243 574.187Z" fill="white"/>
</svg>
