<svg width="1440" height="367" viewBox="0 0 1440 367" fill="none" xmlns="http://www.w3.org/2000/svg">
<mask id="mask0_2035_2" style="mask-type:alpha" maskUnits="userSpaceOnUse" x="0" y="0" width="1440" height="367">
<rect width="1440" height="367" fill="#A80000"/>
</mask>
<g mask="url(#mask0_2035_2)">
<g filter="url(#filter0_f_2035_2)">
<ellipse cx="1059.02" cy="287.5" rx="258.698" ry="259.5" fill="white"/>
</g>
<g filter="url(#filter1_f_2035_2)">
<ellipse cx="732.775" cy="435" rx="243.687" ry="244" fill="#DB2D2D"/>
</g>
<mask id="path-4-inside-1_2035_2" fill="white">
<path d="M900.034 638.132C905.653 647.933 908.003 658.754 907.696 669.473C925.269 655.283 941.309 639.153 955.612 621.696H954.59C944.067 621.696 933.544 618.939 924.349 613.631C911.68 606.178 902.486 594.745 897.786 581.065C888.489 591.988 878.272 602.197 867.238 611.487C880.826 616.285 892.575 625.473 900.034 638.132Z"/>
<path d="M762.109 124.118C762.109 139.227 756.285 152.805 747.09 163.32C761.394 165.974 775.39 169.752 788.876 174.652C786.118 160.36 788.263 145.761 795.517 133C801.136 123.302 809.208 115.645 818.811 110.541C797.765 102.476 775.799 96.4524 753.016 92.7773C758.737 101.965 762.109 112.684 762.109 124.118Z"/>
<path d="M907.798 161.891C908.002 172.814 905.55 183.534 900.033 193.232C892.575 205.891 880.928 215.283 867.442 219.877C878.374 229.167 888.591 239.376 897.888 250.299C902.69 236.619 911.68 224.981 924.451 217.835C933.646 212.527 944.067 209.668 954.693 209.668C955.101 209.668 955.408 209.77 955.816 209.77C941.411 192.211 925.371 176.285 907.798 161.891Z"/>
<path d="M818.709 720.823C809.31 715.515 801.136 707.858 795.517 698.16C787.957 685.093 786.22 670.392 788.876 656.712C775.39 661.612 761.496 665.39 747.09 668.044C756.285 678.559 762.109 692.137 762.109 707.246C762.109 718.68 758.737 729.399 753.22 738.383C775.799 734.912 797.867 728.888 818.709 720.823Z"/>
<path d="M954.59 234.884C948.46 234.884 942.433 236.517 937.018 239.682C928.947 244.378 923.225 251.831 920.671 260.916C918.321 269.798 919.547 279.394 924.349 287.459C930.479 298.281 942.126 304.916 954.692 304.916C960.72 304.916 966.748 303.283 972.163 300.22C980.234 295.524 985.955 288.072 988.51 278.986C990.859 269.9 989.633 260.508 985.036 252.341C978.702 241.622 967.055 234.884 954.59 234.884Z"/>
<path d="M865.297 132.898C859.882 129.733 853.854 128.1 847.827 128.1C835.26 128.1 823.715 134.735 817.483 145.557C812.681 153.724 811.455 163.116 813.805 172.202C816.359 181.288 822.081 188.842 830.152 193.436C846.498 202.828 868.771 196.703 878.17 180.573C882.665 172.508 883.993 163.116 881.542 154.03C879.192 145.046 873.368 137.492 865.297 132.898Z"/>
<path d="M984.627 321.965C975.433 327.274 965.114 330.03 954.591 330.03C950.708 330.03 946.928 329.52 943.148 328.907C948.052 342.281 951.832 356.165 954.386 370.559C964.909 361.371 978.702 355.552 993.72 355.552C1005.16 355.552 1015.79 358.921 1024.88 364.638C1021.2 341.77 1015.18 319.719 1007.1 298.791C1002 308.285 994.333 316.452 984.627 321.965Z"/>
<path d="M993.72 380.666C974.309 380.666 958.575 396.387 958.575 415.58C958.575 434.977 974.309 450.698 993.72 450.698C1012.93 450.698 1028.66 434.977 1028.66 415.58C1028.66 396.387 1012.93 380.666 993.72 380.666Z"/>
<path d="M1007.21 532.777C1015.28 511.747 1021.31 489.696 1024.98 466.93C1015.79 472.443 1005.26 475.812 993.822 475.812C978.702 475.812 965.011 469.993 954.488 460.805C951.934 475.097 948.052 489.083 943.25 502.559C947.03 501.844 950.81 501.334 954.795 501.334C965.216 501.334 975.535 504.09 984.729 509.399C994.64 515.014 1002 523.385 1007.21 532.777Z"/>
<path d="M984.934 578.921C994.64 562.281 988.816 540.842 972.061 531.144C966.748 528.081 960.72 526.448 954.693 526.448C942.126 526.448 930.377 533.083 924.247 543.905C919.445 552.072 918.219 561.464 920.569 570.448C923.123 579.533 928.845 587.088 936.916 591.784C942.33 594.847 948.358 596.48 954.488 596.48C967.055 596.48 978.702 589.844 984.934 578.921Z"/>
<path d="M614.785 656.712C617.543 670.902 615.398 685.501 608.042 698.16C602.627 707.858 594.454 715.617 585.054 720.823C605.896 728.888 627.964 734.912 650.645 738.383C645.128 729.297 641.757 718.68 641.757 707.246C641.757 692.137 647.58 678.559 656.775 668.044C642.165 665.39 628.271 661.612 614.785 656.712Z"/>
<path d="M555.835 128.1C549.807 128.1 543.779 129.733 538.364 132.898C530.293 137.594 524.367 145.046 522.018 154.132C519.668 163.218 520.894 172.61 525.491 180.777C534.788 196.703 557.061 202.93 573.407 193.436C581.479 188.74 587.2 181.288 589.754 172.202C592.104 163.116 590.878 153.724 586.28 145.659C580.048 134.735 568.503 128.1 555.835 128.1Z"/>
<path d="M418.625 252.443C414.13 260.508 412.802 269.9 415.254 278.986C417.808 288.072 423.529 295.626 431.6 300.22C447.947 309.612 470.219 303.487 479.414 287.561C484.216 279.394 485.442 269.798 483.092 260.814C480.538 251.933 474.817 244.378 466.745 239.682C461.331 236.517 455.303 234.884 449.173 234.884C436.606 234.884 424.959 241.622 418.625 252.443Z"/>
<path d="M503.628 193.334C498.111 183.534 495.556 172.814 495.863 161.891C478.392 176.183 462.25 192.211 447.947 209.77C448.355 209.77 448.662 209.668 449.071 209.668C459.594 209.668 470.117 212.527 479.312 217.835C491.981 225.083 501.073 236.517 505.875 250.299C515.172 239.376 525.389 229.167 536.321 219.877C522.835 215.181 511.086 205.891 503.628 193.334Z"/>
<path d="M584.85 110.541C594.454 115.645 602.627 123.506 608.144 133.204C615.398 145.761 617.543 160.36 614.785 174.652C628.271 169.752 642.165 165.974 656.571 163.32C647.376 152.805 641.552 139.227 641.552 124.118C641.552 112.684 644.924 101.965 650.645 92.7773C627.862 96.4524 605.794 102.476 584.85 110.541Z"/>
<path d="M701.831 596.786C801.985 596.786 883.176 515.657 883.176 415.58C883.176 315.502 801.985 234.373 701.831 234.373C601.676 234.373 520.485 315.502 520.485 415.58C520.485 515.657 601.676 596.786 701.831 596.786Z"/>
<path d="M666.685 707.246C666.685 726.643 682.419 742.364 701.831 742.364C721.242 742.364 736.976 726.643 736.976 707.246C736.976 687.849 721.242 672.127 701.831 672.127C682.419 672.23 666.685 687.951 666.685 707.246Z"/>
<path d="M933.442 415.58C933.442 287.97 829.539 184.146 701.831 184.146C574.122 184.146 470.219 287.97 470.219 415.58C470.219 543.19 574.122 647.014 701.831 647.014C829.539 647.014 933.442 543.19 933.442 415.58ZM701.831 621.9C588.017 621.9 495.352 529.408 495.352 415.58C495.352 301.854 587.915 209.26 701.831 209.26C815.746 209.26 908.309 301.752 908.309 415.58C908.309 529.408 815.644 621.9 701.831 621.9Z"/>
<path d="M847.827 703.264C853.854 703.264 859.882 701.631 865.297 698.568C882.052 688.87 887.774 667.431 878.17 650.689C872.04 639.868 860.291 633.232 847.724 633.232C841.594 633.232 835.567 634.865 830.254 637.928C813.499 647.626 807.88 669.065 817.585 685.705C823.613 696.629 835.158 703.264 847.827 703.264Z"/>
<path d="M538.364 698.568C543.779 701.631 549.807 703.264 555.835 703.264C568.401 703.264 579.946 696.629 586.178 685.807C590.98 677.64 592.206 668.248 589.856 659.162C587.302 650.076 581.581 642.522 573.509 637.928C568.197 634.865 562.169 633.232 556.039 633.232C543.472 633.232 531.723 639.868 525.491 650.689C515.888 667.431 521.711 688.972 538.364 698.568Z"/>
<path d="M736.976 124.118C736.976 104.824 721.242 89 701.831 89C682.419 89 666.685 104.824 666.685 124.118C666.685 143.515 682.419 159.032 701.831 159.032C721.242 159.032 736.976 143.413 736.976 124.118Z"/>
<path d="M495.965 669.473C495.761 658.958 498.008 648.137 503.628 638.132C511.086 625.473 522.733 616.285 536.321 611.487C525.287 602.197 515.07 591.988 505.773 581.065C501.073 594.745 491.981 606.178 479.21 613.631C470.015 618.939 459.594 621.696 448.968 621.696H447.947C462.352 639.153 478.392 655.283 495.965 669.473Z"/>
<path d="M409.941 450.698C429.353 450.698 445.086 434.977 445.086 415.58C445.086 396.387 429.353 380.666 409.941 380.666C390.734 380.666 375 396.387 375 415.58C375 434.977 390.734 450.698 409.941 450.698Z"/>
<path d="M396.455 298.689C388.384 319.719 382.356 341.668 378.678 364.536C387.873 358.921 398.396 355.45 409.839 355.45C424.959 355.45 438.547 361.269 449.173 370.457C451.727 356.165 455.507 342.281 460.411 328.805C456.631 329.418 452.851 329.928 448.968 329.928C438.547 329.928 428.127 327.172 418.932 321.863C409.328 316.452 401.665 308.285 396.455 298.689Z"/>
<path d="M419.034 509.399C428.229 504.09 438.548 501.334 449.071 501.334C452.953 501.334 456.733 501.844 460.513 502.559C455.609 489.083 451.829 475.199 449.275 460.805C438.752 469.993 424.959 475.812 409.941 475.812C398.498 475.812 387.873 472.443 378.78 466.93C382.458 489.696 388.486 511.849 396.557 532.777C401.665 523.385 409.021 515.014 419.034 509.399Z"/>
<path d="M449.071 596.48C455.201 596.48 461.228 594.847 466.643 591.784C474.714 586.986 480.436 579.431 482.99 570.448C485.34 561.566 484.114 552.072 479.516 544.007C473.182 533.083 461.535 526.448 449.071 526.448C442.941 526.448 436.913 528.081 431.6 531.144C414.845 540.842 409.124 562.281 418.727 578.921C424.959 589.844 436.606 596.48 449.071 596.48Z"/>
</mask>
<path d="M900.034 638.132C905.653 647.933 908.003 658.754 907.696 669.473C925.269 655.283 941.309 639.153 955.612 621.696H954.59C944.067 621.696 933.544 618.939 924.349 613.631C911.68 606.178 902.486 594.745 897.786 581.065C888.489 591.988 878.272 602.197 867.238 611.487C880.826 616.285 892.575 625.473 900.034 638.132Z" stroke="url(#paint0_linear_2035_2)" stroke-width="14" mask="url(#path-4-inside-1_2035_2)"/>
<path d="M762.109 124.118C762.109 139.227 756.285 152.805 747.09 163.32C761.394 165.974 775.39 169.752 788.876 174.652C786.118 160.36 788.263 145.761 795.517 133C801.136 123.302 809.208 115.645 818.811 110.541C797.765 102.476 775.799 96.4524 753.016 92.7773C758.737 101.965 762.109 112.684 762.109 124.118Z" stroke="url(#paint1_linear_2035_2)" stroke-width="14" mask="url(#path-4-inside-1_2035_2)"/>
<path d="M907.798 161.891C908.002 172.814 905.55 183.534 900.033 193.232C892.575 205.891 880.928 215.283 867.442 219.877C878.374 229.167 888.591 239.376 897.888 250.299C902.69 236.619 911.68 224.981 924.451 217.835C933.646 212.527 944.067 209.668 954.693 209.668C955.101 209.668 955.408 209.77 955.816 209.77C941.411 192.211 925.371 176.285 907.798 161.891Z" stroke="url(#paint2_linear_2035_2)" stroke-width="14" mask="url(#path-4-inside-1_2035_2)"/>
<path d="M818.709 720.823C809.31 715.515 801.136 707.858 795.517 698.16C787.957 685.093 786.22 670.392 788.876 656.712C775.39 661.612 761.496 665.39 747.09 668.044C756.285 678.559 762.109 692.137 762.109 707.246C762.109 718.68 758.737 729.399 753.22 738.383C775.799 734.912 797.867 728.888 818.709 720.823Z" stroke="url(#paint3_linear_2035_2)" stroke-width="14" mask="url(#path-4-inside-1_2035_2)"/>
<path d="M954.59 234.884C948.46 234.884 942.433 236.517 937.018 239.682C928.947 244.378 923.225 251.831 920.671 260.916C918.321 269.798 919.547 279.394 924.349 287.459C930.479 298.281 942.126 304.916 954.692 304.916C960.72 304.916 966.748 303.283 972.163 300.22C980.234 295.524 985.955 288.072 988.51 278.986C990.859 269.9 989.633 260.508 985.036 252.341C978.702 241.622 967.055 234.884 954.59 234.884Z" stroke="url(#paint4_linear_2035_2)" stroke-width="14" mask="url(#path-4-inside-1_2035_2)"/>
<path d="M865.297 132.898C859.882 129.733 853.854 128.1 847.827 128.1C835.26 128.1 823.715 134.735 817.483 145.557C812.681 153.724 811.455 163.116 813.805 172.202C816.359 181.288 822.081 188.842 830.152 193.436C846.498 202.828 868.771 196.703 878.17 180.573C882.665 172.508 883.993 163.116 881.542 154.03C879.192 145.046 873.368 137.492 865.297 132.898Z" stroke="url(#paint5_linear_2035_2)" stroke-width="14" mask="url(#path-4-inside-1_2035_2)"/>
<path d="M984.627 321.965C975.433 327.274 965.114 330.03 954.591 330.03C950.708 330.03 946.928 329.52 943.148 328.907C948.052 342.281 951.832 356.165 954.386 370.559C964.909 361.371 978.702 355.552 993.72 355.552C1005.16 355.552 1015.79 358.921 1024.88 364.638C1021.2 341.77 1015.18 319.719 1007.1 298.791C1002 308.285 994.333 316.452 984.627 321.965Z" stroke="url(#paint6_linear_2035_2)" stroke-width="14" mask="url(#path-4-inside-1_2035_2)"/>
<path d="M993.72 380.666C974.309 380.666 958.575 396.387 958.575 415.58C958.575 434.977 974.309 450.698 993.72 450.698C1012.93 450.698 1028.66 434.977 1028.66 415.58C1028.66 396.387 1012.93 380.666 993.72 380.666Z" stroke="url(#paint7_linear_2035_2)" stroke-width="14" mask="url(#path-4-inside-1_2035_2)"/>
<path d="M1007.21 532.777C1015.28 511.747 1021.31 489.696 1024.98 466.93C1015.79 472.443 1005.26 475.812 993.822 475.812C978.702 475.812 965.011 469.993 954.488 460.805C951.934 475.097 948.052 489.083 943.25 502.559C947.03 501.844 950.81 501.334 954.795 501.334C965.216 501.334 975.535 504.09 984.729 509.399C994.64 515.014 1002 523.385 1007.21 532.777Z" stroke="url(#paint8_linear_2035_2)" stroke-width="14" mask="url(#path-4-inside-1_2035_2)"/>
<path d="M984.934 578.921C994.64 562.281 988.816 540.842 972.061 531.144C966.748 528.081 960.72 526.448 954.693 526.448C942.126 526.448 930.377 533.083 924.247 543.905C919.445 552.072 918.219 561.464 920.569 570.448C923.123 579.533 928.845 587.088 936.916 591.784C942.33 594.847 948.358 596.48 954.488 596.48C967.055 596.48 978.702 589.844 984.934 578.921Z" stroke="url(#paint9_linear_2035_2)" stroke-width="14" mask="url(#path-4-inside-1_2035_2)"/>
<path d="M614.785 656.712C617.543 670.902 615.398 685.501 608.042 698.16C602.627 707.858 594.454 715.617 585.054 720.823C605.896 728.888 627.964 734.912 650.645 738.383C645.128 729.297 641.757 718.68 641.757 707.246C641.757 692.137 647.58 678.559 656.775 668.044C642.165 665.39 628.271 661.612 614.785 656.712Z" stroke="url(#paint10_linear_2035_2)" stroke-width="14" mask="url(#path-4-inside-1_2035_2)"/>
<path d="M555.835 128.1C549.807 128.1 543.779 129.733 538.364 132.898C530.293 137.594 524.367 145.046 522.018 154.132C519.668 163.218 520.894 172.61 525.491 180.777C534.788 196.703 557.061 202.93 573.407 193.436C581.479 188.74 587.2 181.288 589.754 172.202C592.104 163.116 590.878 153.724 586.28 145.659C580.048 134.735 568.503 128.1 555.835 128.1Z" stroke="url(#paint11_linear_2035_2)" stroke-width="14" mask="url(#path-4-inside-1_2035_2)"/>
<path d="M418.625 252.443C414.13 260.508 412.802 269.9 415.254 278.986C417.808 288.072 423.529 295.626 431.6 300.22C447.947 309.612 470.219 303.487 479.414 287.561C484.216 279.394 485.442 269.798 483.092 260.814C480.538 251.933 474.817 244.378 466.745 239.682C461.331 236.517 455.303 234.884 449.173 234.884C436.606 234.884 424.959 241.622 418.625 252.443Z" stroke="url(#paint12_linear_2035_2)" stroke-width="14" mask="url(#path-4-inside-1_2035_2)"/>
<path d="M503.628 193.334C498.111 183.534 495.556 172.814 495.863 161.891C478.392 176.183 462.25 192.211 447.947 209.77C448.355 209.77 448.662 209.668 449.071 209.668C459.594 209.668 470.117 212.527 479.312 217.835C491.981 225.083 501.073 236.517 505.875 250.299C515.172 239.376 525.389 229.167 536.321 219.877C522.835 215.181 511.086 205.891 503.628 193.334Z" stroke="url(#paint13_linear_2035_2)" stroke-width="14" mask="url(#path-4-inside-1_2035_2)"/>
<path d="M584.85 110.541C594.454 115.645 602.627 123.506 608.144 133.204C615.398 145.761 617.543 160.36 614.785 174.652C628.271 169.752 642.165 165.974 656.571 163.32C647.376 152.805 641.552 139.227 641.552 124.118C641.552 112.684 644.924 101.965 650.645 92.7773C627.862 96.4524 605.794 102.476 584.85 110.541Z" stroke="url(#paint14_linear_2035_2)" stroke-width="14" mask="url(#path-4-inside-1_2035_2)"/>
<path d="M701.831 596.786C801.985 596.786 883.176 515.657 883.176 415.58C883.176 315.502 801.985 234.373 701.831 234.373C601.676 234.373 520.485 315.502 520.485 415.58C520.485 515.657 601.676 596.786 701.831 596.786Z" stroke="url(#paint15_linear_2035_2)" stroke-width="14" mask="url(#path-4-inside-1_2035_2)"/>
<path d="M666.685 707.246C666.685 726.643 682.419 742.364 701.831 742.364C721.242 742.364 736.976 726.643 736.976 707.246C736.976 687.849 721.242 672.127 701.831 672.127C682.419 672.23 666.685 687.951 666.685 707.246Z" stroke="url(#paint16_linear_2035_2)" stroke-width="14" mask="url(#path-4-inside-1_2035_2)"/>
<path d="M933.442 415.58C933.442 287.97 829.539 184.146 701.831 184.146C574.122 184.146 470.219 287.97 470.219 415.58C470.219 543.19 574.122 647.014 701.831 647.014C829.539 647.014 933.442 543.19 933.442 415.58ZM701.831 621.9C588.017 621.9 495.352 529.408 495.352 415.58C495.352 301.854 587.915 209.26 701.831 209.26C815.746 209.26 908.309 301.752 908.309 415.58C908.309 529.408 815.644 621.9 701.831 621.9Z" stroke="url(#paint17_linear_2035_2)" stroke-width="14" mask="url(#path-4-inside-1_2035_2)"/>
<path d="M847.827 703.264C853.854 703.264 859.882 701.631 865.297 698.568C882.052 688.87 887.774 667.431 878.17 650.689C872.04 639.868 860.291 633.232 847.724 633.232C841.594 633.232 835.567 634.865 830.254 637.928C813.499 647.626 807.88 669.065 817.585 685.705C823.613 696.629 835.158 703.264 847.827 703.264Z" stroke="url(#paint18_linear_2035_2)" stroke-width="14" mask="url(#path-4-inside-1_2035_2)"/>
<path d="M538.364 698.568C543.779 701.631 549.807 703.264 555.835 703.264C568.401 703.264 579.946 696.629 586.178 685.807C590.98 677.64 592.206 668.248 589.856 659.162C587.302 650.076 581.581 642.522 573.509 637.928C568.197 634.865 562.169 633.232 556.039 633.232C543.472 633.232 531.723 639.868 525.491 650.689C515.888 667.431 521.711 688.972 538.364 698.568Z" stroke="url(#paint19_linear_2035_2)" stroke-width="14" mask="url(#path-4-inside-1_2035_2)"/>
<path d="M736.976 124.118C736.976 104.824 721.242 89 701.831 89C682.419 89 666.685 104.824 666.685 124.118C666.685 143.515 682.419 159.032 701.831 159.032C721.242 159.032 736.976 143.413 736.976 124.118Z" stroke="url(#paint20_linear_2035_2)" stroke-width="14" mask="url(#path-4-inside-1_2035_2)"/>
<path d="M495.965 669.473C495.761 658.958 498.008 648.137 503.628 638.132C511.086 625.473 522.733 616.285 536.321 611.487C525.287 602.197 515.07 591.988 505.773 581.065C501.073 594.745 491.981 606.178 479.21 613.631C470.015 618.939 459.594 621.696 448.968 621.696H447.947C462.352 639.153 478.392 655.283 495.965 669.473Z" stroke="url(#paint21_linear_2035_2)" stroke-width="14" mask="url(#path-4-inside-1_2035_2)"/>
<path d="M409.941 450.698C429.353 450.698 445.086 434.977 445.086 415.58C445.086 396.387 429.353 380.666 409.941 380.666C390.734 380.666 375 396.387 375 415.58C375 434.977 390.734 450.698 409.941 450.698Z" stroke="url(#paint22_linear_2035_2)" stroke-width="14" mask="url(#path-4-inside-1_2035_2)"/>
<path d="M396.455 298.689C388.384 319.719 382.356 341.668 378.678 364.536C387.873 358.921 398.396 355.45 409.839 355.45C424.959 355.45 438.547 361.269 449.173 370.457C451.727 356.165 455.507 342.281 460.411 328.805C456.631 329.418 452.851 329.928 448.968 329.928C438.547 329.928 428.127 327.172 418.932 321.863C409.328 316.452 401.665 308.285 396.455 298.689Z" stroke="url(#paint23_linear_2035_2)" stroke-width="14" mask="url(#path-4-inside-1_2035_2)"/>
<path d="M419.034 509.399C428.229 504.09 438.548 501.334 449.071 501.334C452.953 501.334 456.733 501.844 460.513 502.559C455.609 489.083 451.829 475.199 449.275 460.805C438.752 469.993 424.959 475.812 409.941 475.812C398.498 475.812 387.873 472.443 378.78 466.93C382.458 489.696 388.486 511.849 396.557 532.777C401.665 523.385 409.021 515.014 419.034 509.399Z" stroke="url(#paint24_linear_2035_2)" stroke-width="14" mask="url(#path-4-inside-1_2035_2)"/>
<path d="M449.071 596.48C455.201 596.48 461.228 594.847 466.643 591.784C474.714 586.986 480.436 579.431 482.99 570.448C485.34 561.566 484.114 552.072 479.516 544.007C473.182 533.083 461.535 526.448 449.071 526.448C442.941 526.448 436.913 528.081 431.6 531.144C414.845 540.842 409.124 562.281 418.727 578.921C424.959 589.844 436.606 596.48 449.071 596.48Z" stroke="url(#paint25_linear_2035_2)" stroke-width="14" mask="url(#path-4-inside-1_2035_2)"/>
<mask id="path-5-inside-2_2035_2" fill="white">
<path d="M1513.5 152.132C1519.12 161.933 1521.47 172.754 1521.17 183.473C1538.74 169.283 1554.78 153.153 1569.08 135.696H1568.06C1557.54 135.696 1547.01 132.939 1537.82 127.631C1525.15 120.178 1515.96 108.745 1511.26 95.0648C1501.96 105.988 1491.74 116.197 1480.71 125.487C1494.3 130.285 1506.05 139.473 1513.5 152.132Z"/>
<path d="M1375.58 -361.882C1375.58 -346.773 1369.76 -333.195 1360.56 -322.68C1374.86 -320.026 1388.86 -316.248 1402.35 -311.348C1399.59 -325.64 1401.73 -340.239 1408.99 -353C1414.61 -362.698 1422.68 -370.355 1432.28 -375.459C1411.24 -383.524 1389.27 -389.548 1366.49 -393.223C1372.21 -384.035 1375.58 -373.316 1375.58 -361.882Z"/>
<path d="M1521.27 -324.109C1521.47 -313.186 1519.02 -302.466 1513.5 -292.768C1506.05 -280.109 1494.4 -270.717 1480.91 -266.123C1491.84 -256.833 1502.06 -246.624 1511.36 -235.701C1516.16 -249.381 1525.15 -261.019 1537.92 -268.165C1547.12 -273.473 1557.54 -276.332 1568.16 -276.332C1568.57 -276.332 1568.88 -276.23 1569.29 -276.23C1554.88 -293.789 1538.84 -309.715 1521.27 -324.109Z"/>
<path d="M1432.18 234.823C1422.78 229.515 1414.61 221.858 1408.99 212.16C1401.43 199.093 1399.69 184.392 1402.35 170.712C1388.86 175.612 1374.97 179.39 1360.56 182.044C1369.76 192.559 1375.58 206.137 1375.58 221.246C1375.58 232.68 1372.21 243.399 1366.69 252.383C1389.27 248.912 1411.34 242.888 1432.18 234.823Z"/>
<path d="M1568.06 -251.116C1561.93 -251.116 1555.9 -249.483 1550.49 -246.318C1542.42 -241.622 1536.7 -234.169 1534.14 -225.084C1531.79 -216.202 1533.02 -206.606 1537.82 -198.541C1543.95 -187.719 1555.6 -181.084 1568.16 -181.084C1574.19 -181.084 1580.22 -182.717 1585.63 -185.78C1593.7 -190.476 1599.43 -197.928 1601.98 -207.014C1604.33 -216.1 1603.1 -225.492 1598.51 -233.659C1592.17 -244.378 1580.53 -251.116 1568.06 -251.116Z"/>
<path d="M1478.77 -353.102C1473.35 -356.267 1467.33 -357.9 1461.3 -357.9C1448.73 -357.9 1437.19 -351.265 1430.95 -340.443C1426.15 -332.276 1424.93 -322.884 1427.28 -313.798C1429.83 -304.712 1435.55 -297.158 1443.62 -292.564C1459.97 -283.172 1482.24 -289.297 1491.64 -305.427C1496.14 -313.492 1497.46 -322.884 1495.01 -331.97C1492.66 -340.954 1486.84 -348.508 1478.77 -353.102Z"/>
<path d="M1598.1 -164.035C1588.9 -158.726 1578.58 -155.97 1568.06 -155.97C1564.18 -155.97 1560.4 -156.48 1556.62 -157.093C1561.52 -143.719 1565.3 -129.835 1567.86 -115.441C1578.38 -124.629 1592.17 -130.448 1607.19 -130.448C1618.63 -130.448 1629.26 -127.079 1638.35 -121.362C1634.67 -144.23 1628.65 -166.281 1620.57 -187.209C1615.47 -177.715 1607.8 -169.548 1598.1 -164.035Z"/>
<path d="M1607.19 -105.334C1587.78 -105.334 1572.05 -89.6126 1572.05 -70.4201C1572.05 -51.0233 1587.78 -35.3018 1607.19 -35.3018C1626.4 -35.3018 1642.13 -51.0233 1642.13 -70.4201C1642.13 -89.6126 1626.4 -105.334 1607.19 -105.334Z"/>
<path d="M1620.68 46.7771C1628.75 25.747 1634.78 3.69592 1638.45 -19.0697C1629.26 -13.557 1618.74 -10.1881 1607.29 -10.1881C1592.17 -10.1881 1578.48 -16.0071 1567.96 -25.195C1565.4 -10.9027 1561.52 3.08339 1556.72 16.559C1560.5 15.8444 1564.28 15.334 1568.27 15.334C1578.69 15.334 1589.01 18.0903 1598.2 23.3989C1608.11 29.0138 1615.47 37.385 1620.68 46.7771Z"/>
<path d="M1598.4 92.9209C1608.11 76.2806 1602.29 54.842 1585.53 45.1437C1580.22 42.081 1574.19 40.4476 1568.16 40.4476C1555.6 40.4476 1543.85 47.0834 1537.72 57.9047C1532.92 66.0717 1531.69 75.4638 1534.04 84.4476C1536.59 93.5334 1542.32 101.088 1550.39 105.784C1555.8 108.847 1561.83 110.48 1567.96 110.48C1580.53 110.48 1592.17 103.844 1598.4 92.9209Z"/>
<path d="M1228.26 170.712C1231.01 184.902 1228.87 199.501 1221.51 212.16C1216.1 221.858 1207.92 229.617 1198.52 234.823C1219.37 242.888 1241.43 248.912 1264.12 252.383C1258.6 243.297 1255.23 232.68 1255.23 221.246C1255.23 206.137 1261.05 192.559 1270.25 182.044C1255.64 179.39 1241.74 175.612 1228.26 170.712Z"/>
<path d="M1169.31 -357.9C1163.28 -357.9 1157.25 -356.267 1151.83 -353.102C1143.76 -348.406 1137.84 -340.954 1135.49 -331.868C1133.14 -322.782 1134.36 -313.39 1138.96 -305.223C1148.26 -289.297 1170.53 -283.07 1186.88 -292.564C1194.95 -297.26 1200.67 -304.712 1203.22 -313.798C1205.57 -322.884 1204.35 -332.276 1199.75 -340.341C1193.52 -351.265 1181.97 -357.9 1169.31 -357.9Z"/>
<path d="M1032.1 -233.557C1027.6 -225.492 1026.27 -216.1 1028.72 -207.014C1031.28 -197.928 1037 -190.374 1045.07 -185.78C1061.42 -176.388 1083.69 -182.513 1092.88 -198.439C1097.69 -206.606 1098.91 -216.202 1096.56 -225.186C1094.01 -234.067 1088.29 -241.622 1080.22 -246.318C1074.8 -249.483 1068.77 -251.116 1062.64 -251.116C1050.08 -251.116 1038.43 -244.378 1032.1 -233.557Z"/>
<path d="M1117.1 -292.666C1111.58 -302.466 1109.03 -313.186 1109.33 -324.109C1091.86 -309.817 1075.72 -293.789 1061.42 -276.23C1061.83 -276.23 1062.13 -276.332 1062.54 -276.332C1073.06 -276.332 1083.59 -273.473 1092.78 -268.165C1105.45 -260.917 1114.54 -249.483 1119.35 -235.701C1128.64 -246.624 1138.86 -256.833 1149.79 -266.123C1136.31 -270.819 1124.56 -280.109 1117.1 -292.666Z"/>
<path d="M1198.32 -375.459C1207.92 -370.355 1216.1 -362.494 1221.61 -352.796C1228.87 -340.239 1231.01 -325.64 1228.26 -311.348C1241.74 -316.248 1255.64 -320.026 1270.04 -322.68C1260.85 -333.195 1255.02 -346.773 1255.02 -361.882C1255.02 -373.316 1258.39 -384.035 1264.12 -393.223C1241.33 -389.548 1219.26 -383.524 1198.32 -375.459Z"/>
<path d="M1315.3 110.786C1415.46 110.786 1496.65 29.6575 1496.65 -70.4201C1496.65 -170.498 1415.46 -251.627 1315.3 -251.627C1215.15 -251.627 1133.96 -170.498 1133.96 -70.4201C1133.96 29.6575 1215.15 110.786 1315.3 110.786Z"/>
<path d="M1280.16 221.246C1280.16 240.643 1295.89 256.364 1315.3 256.364C1334.71 256.364 1350.45 240.643 1350.45 221.246C1350.45 201.849 1334.71 186.127 1315.3 186.127C1295.89 186.23 1280.16 201.951 1280.16 221.246Z"/>
<path d="M1546.91 -70.4201C1546.91 -198.03 1443.01 -301.854 1315.3 -301.854C1187.59 -301.854 1083.69 -198.03 1083.69 -70.4201C1083.69 57.1901 1187.59 161.014 1315.3 161.014C1443.01 161.014 1546.91 57.1901 1546.91 -70.4201ZM1315.3 135.9C1201.49 135.9 1108.82 43.4082 1108.82 -70.4201C1108.82 -184.146 1201.39 -276.74 1315.3 -276.74C1429.22 -276.74 1521.78 -184.248 1521.78 -70.4201C1521.78 43.4082 1429.11 135.9 1315.3 135.9Z"/>
<path d="M1461.3 217.264C1467.33 217.264 1473.35 215.631 1478.77 212.568C1495.52 202.87 1501.24 181.431 1491.64 164.689C1485.51 153.868 1473.76 147.232 1461.2 147.232C1455.07 147.232 1449.04 148.865 1443.72 151.928C1426.97 161.626 1421.35 183.065 1431.06 199.705C1437.08 210.629 1448.63 217.264 1461.3 217.264Z"/>
<path d="M1151.83 212.568C1157.25 215.631 1163.28 217.264 1169.31 217.264C1181.87 217.264 1193.42 210.629 1199.65 199.807C1204.45 191.64 1205.68 182.248 1203.33 173.162C1200.77 164.076 1195.05 156.522 1186.98 151.928C1181.67 148.865 1175.64 147.232 1169.51 147.232C1156.94 147.232 1145.19 153.868 1138.96 164.689C1129.36 181.431 1135.18 202.972 1151.83 212.568Z"/>
<path d="M1350.45 -361.882C1350.45 -381.176 1334.71 -397 1315.3 -397C1295.89 -397 1280.16 -381.176 1280.16 -361.882C1280.16 -342.485 1295.89 -326.968 1315.3 -326.968C1334.71 -326.968 1350.45 -342.587 1350.45 -361.882Z"/>
<path d="M1109.44 183.473C1109.23 172.958 1111.48 162.137 1117.1 152.132C1124.56 139.473 1136.2 130.285 1149.79 125.487C1138.76 116.197 1128.54 105.988 1119.24 95.0648C1114.54 108.745 1105.45 120.178 1092.68 127.631C1083.49 132.939 1073.06 135.696 1062.44 135.696H1061.42C1075.82 153.153 1091.86 169.283 1109.44 183.473Z"/>
<path d="M1023.41 -35.3018C1042.82 -35.3018 1058.56 -51.0233 1058.56 -70.4201C1058.56 -89.6126 1042.82 -105.334 1023.41 -105.334C1004.2 -105.334 988.471 -89.6126 988.471 -70.4201C988.471 -51.0233 1004.2 -35.3018 1023.41 -35.3018Z"/>
<path d="M1009.93 -187.311C1001.85 -166.281 995.827 -144.332 992.149 -121.464C1001.34 -127.079 1011.87 -130.55 1023.31 -130.55C1038.43 -130.55 1052.02 -124.731 1062.64 -115.543C1065.2 -129.835 1068.98 -143.719 1073.88 -157.195C1070.1 -156.582 1066.32 -156.072 1062.44 -156.072C1052.02 -156.072 1041.6 -158.828 1032.4 -164.137C1022.8 -169.548 1015.14 -177.715 1009.93 -187.311Z"/>
<path d="M1032.5 23.3989C1041.7 18.0903 1052.02 15.334 1062.54 15.334C1066.42 15.334 1070.2 15.8444 1073.98 16.559C1069.08 3.08339 1065.3 -10.8006 1062.75 -25.195C1052.22 -16.0071 1038.43 -10.1881 1023.41 -10.1881C1011.97 -10.1881 1001.34 -13.557 992.251 -19.0697C995.929 3.69592 1001.96 25.8491 1010.03 46.7771C1015.14 37.385 1022.49 29.0138 1032.5 23.3989Z"/>
<path d="M1062.54 110.48C1068.67 110.48 1074.7 108.847 1080.11 105.784C1088.19 100.986 1093.91 93.4314 1096.46 84.4476C1098.81 75.5659 1097.58 66.0717 1092.99 58.0068C1086.65 47.0833 1075.01 40.4476 1062.54 40.4476C1056.41 40.4476 1050.38 42.081 1045.07 45.1437C1028.32 54.842 1022.59 76.2806 1032.2 92.9209C1038.43 103.844 1050.08 110.48 1062.54 110.48Z"/>
</mask>
<path d="M1513.5 152.132C1519.12 161.933 1521.47 172.754 1521.17 183.473C1538.74 169.283 1554.78 153.153 1569.08 135.696H1568.06C1557.54 135.696 1547.01 132.939 1537.82 127.631C1525.15 120.178 1515.96 108.745 1511.26 95.0648C1501.96 105.988 1491.74 116.197 1480.71 125.487C1494.3 130.285 1506.05 139.473 1513.5 152.132Z" stroke="url(#paint26_linear_2035_2)" stroke-width="14" mask="url(#path-5-inside-2_2035_2)"/>
<path d="M1375.58 -361.882C1375.58 -346.773 1369.76 -333.195 1360.56 -322.68C1374.86 -320.026 1388.86 -316.248 1402.35 -311.348C1399.59 -325.64 1401.73 -340.239 1408.99 -353C1414.61 -362.698 1422.68 -370.355 1432.28 -375.459C1411.24 -383.524 1389.27 -389.548 1366.49 -393.223C1372.21 -384.035 1375.58 -373.316 1375.58 -361.882Z" stroke="url(#paint27_linear_2035_2)" stroke-width="14" mask="url(#path-5-inside-2_2035_2)"/>
<path d="M1521.27 -324.109C1521.47 -313.186 1519.02 -302.466 1513.5 -292.768C1506.05 -280.109 1494.4 -270.717 1480.91 -266.123C1491.84 -256.833 1502.06 -246.624 1511.36 -235.701C1516.16 -249.381 1525.15 -261.019 1537.92 -268.165C1547.12 -273.473 1557.54 -276.332 1568.16 -276.332C1568.57 -276.332 1568.88 -276.23 1569.29 -276.23C1554.88 -293.789 1538.84 -309.715 1521.27 -324.109Z" stroke="url(#paint28_linear_2035_2)" stroke-width="14" mask="url(#path-5-inside-2_2035_2)"/>
<path d="M1432.18 234.823C1422.78 229.515 1414.61 221.858 1408.99 212.16C1401.43 199.093 1399.69 184.392 1402.35 170.712C1388.86 175.612 1374.97 179.39 1360.56 182.044C1369.76 192.559 1375.58 206.137 1375.58 221.246C1375.58 232.68 1372.21 243.399 1366.69 252.383C1389.27 248.912 1411.34 242.888 1432.18 234.823Z" stroke="url(#paint29_linear_2035_2)" stroke-width="14" mask="url(#path-5-inside-2_2035_2)"/>
<path d="M1568.06 -251.116C1561.93 -251.116 1555.9 -249.483 1550.49 -246.318C1542.42 -241.622 1536.7 -234.169 1534.14 -225.084C1531.79 -216.202 1533.02 -206.606 1537.82 -198.541C1543.95 -187.719 1555.6 -181.084 1568.16 -181.084C1574.19 -181.084 1580.22 -182.717 1585.63 -185.78C1593.7 -190.476 1599.43 -197.928 1601.98 -207.014C1604.33 -216.1 1603.1 -225.492 1598.51 -233.659C1592.17 -244.378 1580.53 -251.116 1568.06 -251.116Z" stroke="url(#paint30_linear_2035_2)" stroke-width="14" mask="url(#path-5-inside-2_2035_2)"/>
<path d="M1478.77 -353.102C1473.35 -356.267 1467.33 -357.9 1461.3 -357.9C1448.73 -357.9 1437.19 -351.265 1430.95 -340.443C1426.15 -332.276 1424.93 -322.884 1427.28 -313.798C1429.83 -304.712 1435.55 -297.158 1443.62 -292.564C1459.97 -283.172 1482.24 -289.297 1491.64 -305.427C1496.14 -313.492 1497.46 -322.884 1495.01 -331.97C1492.66 -340.954 1486.84 -348.508 1478.77 -353.102Z" stroke="url(#paint31_linear_2035_2)" stroke-width="14" mask="url(#path-5-inside-2_2035_2)"/>
<path d="M1598.1 -164.035C1588.9 -158.726 1578.58 -155.97 1568.06 -155.97C1564.18 -155.97 1560.4 -156.48 1556.62 -157.093C1561.52 -143.719 1565.3 -129.835 1567.86 -115.441C1578.38 -124.629 1592.17 -130.448 1607.19 -130.448C1618.63 -130.448 1629.26 -127.079 1638.35 -121.362C1634.67 -144.23 1628.65 -166.281 1620.57 -187.209C1615.47 -177.715 1607.8 -169.548 1598.1 -164.035Z" stroke="url(#paint32_linear_2035_2)" stroke-width="14" mask="url(#path-5-inside-2_2035_2)"/>
<path d="M1607.19 -105.334C1587.78 -105.334 1572.05 -89.6126 1572.05 -70.4201C1572.05 -51.0233 1587.78 -35.3018 1607.19 -35.3018C1626.4 -35.3018 1642.13 -51.0233 1642.13 -70.4201C1642.13 -89.6126 1626.4 -105.334 1607.19 -105.334Z" stroke="url(#paint33_linear_2035_2)" stroke-width="14" mask="url(#path-5-inside-2_2035_2)"/>
<path d="M1620.68 46.7771C1628.75 25.747 1634.78 3.69592 1638.45 -19.0697C1629.26 -13.557 1618.74 -10.1881 1607.29 -10.1881C1592.17 -10.1881 1578.48 -16.0071 1567.96 -25.195C1565.4 -10.9027 1561.52 3.08339 1556.72 16.559C1560.5 15.8444 1564.28 15.334 1568.27 15.334C1578.69 15.334 1589.01 18.0903 1598.2 23.3989C1608.11 29.0138 1615.47 37.385 1620.68 46.7771Z" stroke="url(#paint34_linear_2035_2)" stroke-width="14" mask="url(#path-5-inside-2_2035_2)"/>
<path d="M1598.4 92.9209C1608.11 76.2806 1602.29 54.842 1585.53 45.1437C1580.22 42.081 1574.19 40.4476 1568.16 40.4476C1555.6 40.4476 1543.85 47.0834 1537.72 57.9047C1532.92 66.0717 1531.69 75.4638 1534.04 84.4476C1536.59 93.5334 1542.32 101.088 1550.39 105.784C1555.8 108.847 1561.83 110.48 1567.96 110.48C1580.53 110.48 1592.17 103.844 1598.4 92.9209Z" stroke="url(#paint35_linear_2035_2)" stroke-width="14" mask="url(#path-5-inside-2_2035_2)"/>
<path d="M1228.26 170.712C1231.01 184.902 1228.87 199.501 1221.51 212.16C1216.1 221.858 1207.92 229.617 1198.52 234.823C1219.37 242.888 1241.43 248.912 1264.12 252.383C1258.6 243.297 1255.23 232.68 1255.23 221.246C1255.23 206.137 1261.05 192.559 1270.25 182.044C1255.64 179.39 1241.74 175.612 1228.26 170.712Z" stroke="url(#paint36_linear_2035_2)" stroke-width="14" mask="url(#path-5-inside-2_2035_2)"/>
<path d="M1169.31 -357.9C1163.28 -357.9 1157.25 -356.267 1151.83 -353.102C1143.76 -348.406 1137.84 -340.954 1135.49 -331.868C1133.14 -322.782 1134.36 -313.39 1138.96 -305.223C1148.26 -289.297 1170.53 -283.07 1186.88 -292.564C1194.95 -297.26 1200.67 -304.712 1203.22 -313.798C1205.57 -322.884 1204.35 -332.276 1199.75 -340.341C1193.52 -351.265 1181.97 -357.9 1169.31 -357.9Z" stroke="url(#paint37_linear_2035_2)" stroke-width="14" mask="url(#path-5-inside-2_2035_2)"/>
<path d="M1032.1 -233.557C1027.6 -225.492 1026.27 -216.1 1028.72 -207.014C1031.28 -197.928 1037 -190.374 1045.07 -185.78C1061.42 -176.388 1083.69 -182.513 1092.88 -198.439C1097.69 -206.606 1098.91 -216.202 1096.56 -225.186C1094.01 -234.067 1088.29 -241.622 1080.22 -246.318C1074.8 -249.483 1068.77 -251.116 1062.64 -251.116C1050.08 -251.116 1038.43 -244.378 1032.1 -233.557Z" stroke="url(#paint38_linear_2035_2)" stroke-width="14" mask="url(#path-5-inside-2_2035_2)"/>
<path d="M1117.1 -292.666C1111.58 -302.466 1109.03 -313.186 1109.33 -324.109C1091.86 -309.817 1075.72 -293.789 1061.42 -276.23C1061.83 -276.23 1062.13 -276.332 1062.54 -276.332C1073.06 -276.332 1083.59 -273.473 1092.78 -268.165C1105.45 -260.917 1114.54 -249.483 1119.35 -235.701C1128.64 -246.624 1138.86 -256.833 1149.79 -266.123C1136.31 -270.819 1124.56 -280.109 1117.1 -292.666Z" stroke="url(#paint39_linear_2035_2)" stroke-width="14" mask="url(#path-5-inside-2_2035_2)"/>
<path d="M1198.32 -375.459C1207.92 -370.355 1216.1 -362.494 1221.61 -352.796C1228.87 -340.239 1231.01 -325.64 1228.26 -311.348C1241.74 -316.248 1255.64 -320.026 1270.04 -322.68C1260.85 -333.195 1255.02 -346.773 1255.02 -361.882C1255.02 -373.316 1258.39 -384.035 1264.12 -393.223C1241.33 -389.548 1219.26 -383.524 1198.32 -375.459Z" stroke="url(#paint40_linear_2035_2)" stroke-width="14" mask="url(#path-5-inside-2_2035_2)"/>
<path d="M1315.3 110.786C1415.46 110.786 1496.65 29.6575 1496.65 -70.4201C1496.65 -170.498 1415.46 -251.627 1315.3 -251.627C1215.15 -251.627 1133.96 -170.498 1133.96 -70.4201C1133.96 29.6575 1215.15 110.786 1315.3 110.786Z" stroke="url(#paint41_linear_2035_2)" stroke-width="14" mask="url(#path-5-inside-2_2035_2)"/>
<path d="M1280.16 221.246C1280.16 240.643 1295.89 256.364 1315.3 256.364C1334.71 256.364 1350.45 240.643 1350.45 221.246C1350.45 201.849 1334.71 186.127 1315.3 186.127C1295.89 186.23 1280.16 201.951 1280.16 221.246Z" stroke="url(#paint42_linear_2035_2)" stroke-width="14" mask="url(#path-5-inside-2_2035_2)"/>
<path d="M1546.91 -70.4201C1546.91 -198.03 1443.01 -301.854 1315.3 -301.854C1187.59 -301.854 1083.69 -198.03 1083.69 -70.4201C1083.69 57.1901 1187.59 161.014 1315.3 161.014C1443.01 161.014 1546.91 57.1901 1546.91 -70.4201ZM1315.3 135.9C1201.49 135.9 1108.82 43.4082 1108.82 -70.4201C1108.82 -184.146 1201.39 -276.74 1315.3 -276.74C1429.22 -276.74 1521.78 -184.248 1521.78 -70.4201C1521.78 43.4082 1429.11 135.9 1315.3 135.9Z" stroke="url(#paint43_linear_2035_2)" stroke-width="14" mask="url(#path-5-inside-2_2035_2)"/>
<path d="M1461.3 217.264C1467.33 217.264 1473.35 215.631 1478.77 212.568C1495.52 202.87 1501.24 181.431 1491.64 164.689C1485.51 153.868 1473.76 147.232 1461.2 147.232C1455.07 147.232 1449.04 148.865 1443.72 151.928C1426.97 161.626 1421.35 183.065 1431.06 199.705C1437.08 210.629 1448.63 217.264 1461.3 217.264Z" stroke="url(#paint44_linear_2035_2)" stroke-width="14" mask="url(#path-5-inside-2_2035_2)"/>
<path d="M1151.83 212.568C1157.25 215.631 1163.28 217.264 1169.31 217.264C1181.87 217.264 1193.42 210.629 1199.65 199.807C1204.45 191.64 1205.68 182.248 1203.33 173.162C1200.77 164.076 1195.05 156.522 1186.98 151.928C1181.67 148.865 1175.64 147.232 1169.51 147.232C1156.94 147.232 1145.19 153.868 1138.96 164.689C1129.36 181.431 1135.18 202.972 1151.83 212.568Z" stroke="url(#paint45_linear_2035_2)" stroke-width="14" mask="url(#path-5-inside-2_2035_2)"/>
<path d="M1350.45 -361.882C1350.45 -381.176 1334.71 -397 1315.3 -397C1295.89 -397 1280.16 -381.176 1280.16 -361.882C1280.16 -342.485 1295.89 -326.968 1315.3 -326.968C1334.71 -326.968 1350.45 -342.587 1350.45 -361.882Z" stroke="url(#paint46_linear_2035_2)" stroke-width="14" mask="url(#path-5-inside-2_2035_2)"/>
<path d="M1109.44 183.473C1109.23 172.958 1111.48 162.137 1117.1 152.132C1124.56 139.473 1136.2 130.285 1149.79 125.487C1138.76 116.197 1128.54 105.988 1119.24 95.0648C1114.54 108.745 1105.45 120.178 1092.68 127.631C1083.49 132.939 1073.06 135.696 1062.44 135.696H1061.42C1075.82 153.153 1091.86 169.283 1109.44 183.473Z" stroke="url(#paint47_linear_2035_2)" stroke-width="14" mask="url(#path-5-inside-2_2035_2)"/>
<path d="M1023.41 -35.3018C1042.82 -35.3018 1058.56 -51.0233 1058.56 -70.4201C1058.56 -89.6126 1042.82 -105.334 1023.41 -105.334C1004.2 -105.334 988.471 -89.6126 988.471 -70.4201C988.471 -51.0233 1004.2 -35.3018 1023.41 -35.3018Z" stroke="url(#paint48_linear_2035_2)" stroke-width="14" mask="url(#path-5-inside-2_2035_2)"/>
<path d="M1009.93 -187.311C1001.85 -166.281 995.827 -144.332 992.149 -121.464C1001.34 -127.079 1011.87 -130.55 1023.31 -130.55C1038.43 -130.55 1052.02 -124.731 1062.64 -115.543C1065.2 -129.835 1068.98 -143.719 1073.88 -157.195C1070.1 -156.582 1066.32 -156.072 1062.44 -156.072C1052.02 -156.072 1041.6 -158.828 1032.4 -164.137C1022.8 -169.548 1015.14 -177.715 1009.93 -187.311Z" stroke="url(#paint49_linear_2035_2)" stroke-width="14" mask="url(#path-5-inside-2_2035_2)"/>
<path d="M1032.5 23.3989C1041.7 18.0903 1052.02 15.334 1062.54 15.334C1066.42 15.334 1070.2 15.8444 1073.98 16.559C1069.08 3.08339 1065.3 -10.8006 1062.75 -25.195C1052.22 -16.0071 1038.43 -10.1881 1023.41 -10.1881C1011.97 -10.1881 1001.34 -13.557 992.251 -19.0697C995.929 3.69592 1001.96 25.8491 1010.03 46.7771C1015.14 37.385 1022.49 29.0138 1032.5 23.3989Z" stroke="url(#paint50_linear_2035_2)" stroke-width="14" mask="url(#path-5-inside-2_2035_2)"/>
<path d="M1062.54 110.48C1068.67 110.48 1074.7 108.847 1080.11 105.784C1088.19 100.986 1093.91 93.4314 1096.46 84.4476C1098.81 75.5659 1097.58 66.0717 1092.99 58.0068C1086.65 47.0833 1075.01 40.4476 1062.54 40.4476C1056.41 40.4476 1050.38 42.081 1045.07 45.1437C1028.32 54.842 1022.59 76.2806 1032.2 92.9209C1038.43 103.844 1050.08 110.48 1062.54 110.48Z" stroke="url(#paint51_linear_2035_2)" stroke-width="14" mask="url(#path-5-inside-2_2035_2)"/>
<g filter="url(#filter2_f_2035_2)">
<ellipse cx="904.907" cy="155" rx="84.5648" ry="85" fill="#A80000"/>
</g>
</g>
<defs>
<filter id="filter0_f_2035_2" x="400.326" y="-372" width="1317.4" height="1319" filterUnits="userSpaceOnUse" color-interpolation-filters="sRGB">
<feFlood flood-opacity="0" result="BackgroundImageFix"/>
<feBlend mode="normal" in="SourceGraphic" in2="BackgroundImageFix" result="shape"/>
<feGaussianBlur stdDeviation="200" result="effect1_foregroundBlur_2035_2"/>
</filter>
<filter id="filter1_f_2035_2" x="167.088" y="-131" width="1131.37" height="1132" filterUnits="userSpaceOnUse" color-interpolation-filters="sRGB">
<feFlood flood-opacity="0" result="BackgroundImageFix"/>
<feBlend mode="normal" in="SourceGraphic" in2="BackgroundImageFix" result="shape"/>
<feGaussianBlur stdDeviation="161" result="effect1_foregroundBlur_2035_2"/>
</filter>
<filter id="filter2_f_2035_2" x="498.342" y="-252" width="813.13" height="814" filterUnits="userSpaceOnUse" color-interpolation-filters="sRGB">
<feFlood flood-opacity="0" result="BackgroundImageFix"/>
<feBlend mode="normal" in="SourceGraphic" in2="BackgroundImageFix" result="shape"/>
<feGaussianBlur stdDeviation="161" result="effect1_foregroundBlur_2035_2"/>
</filter>
<linearGradient id="paint0_linear_2035_2" x1="388.51" y1="310.5" x2="896.88" y2="226.875" gradientUnits="userSpaceOnUse">
<stop stop-color="#DB2D2D"/>
<stop offset="1" stop-color="#DB2D2D" stop-opacity="0"/>
</linearGradient>
<linearGradient id="paint1_linear_2035_2" x1="388.51" y1="310.5" x2="896.88" y2="226.875" gradientUnits="userSpaceOnUse">
<stop stop-color="#DB2D2D"/>
<stop offset="1" stop-color="#DB2D2D" stop-opacity="0"/>
</linearGradient>
<linearGradient id="paint2_linear_2035_2" x1="388.51" y1="310.5" x2="896.88" y2="226.875" gradientUnits="userSpaceOnUse">
<stop stop-color="#DB2D2D"/>
<stop offset="1" stop-color="#DB2D2D" stop-opacity="0"/>
</linearGradient>
<linearGradient id="paint3_linear_2035_2" x1="388.51" y1="310.5" x2="896.88" y2="226.875" gradientUnits="userSpaceOnUse">
<stop stop-color="#DB2D2D"/>
<stop offset="1" stop-color="#DB2D2D" stop-opacity="0"/>
</linearGradient>
<linearGradient id="paint4_linear_2035_2" x1="388.51" y1="310.5" x2="896.88" y2="226.875" gradientUnits="userSpaceOnUse">
<stop stop-color="#DB2D2D"/>
<stop offset="1" stop-color="#DB2D2D" stop-opacity="0"/>
</linearGradient>
<linearGradient id="paint5_linear_2035_2" x1="388.51" y1="310.5" x2="896.88" y2="226.875" gradientUnits="userSpaceOnUse">
<stop stop-color="#DB2D2D"/>
<stop offset="1" stop-color="#DB2D2D" stop-opacity="0"/>
</linearGradient>
<linearGradient id="paint6_linear_2035_2" x1="388.51" y1="310.5" x2="896.88" y2="226.875" gradientUnits="userSpaceOnUse">
<stop stop-color="#DB2D2D"/>
<stop offset="1" stop-color="#DB2D2D" stop-opacity="0"/>
</linearGradient>
<linearGradient id="paint7_linear_2035_2" x1="388.51" y1="310.5" x2="896.88" y2="226.875" gradientUnits="userSpaceOnUse">
<stop stop-color="#DB2D2D"/>
<stop offset="1" stop-color="#DB2D2D" stop-opacity="0"/>
</linearGradient>
<linearGradient id="paint8_linear_2035_2" x1="388.51" y1="310.5" x2="896.88" y2="226.875" gradientUnits="userSpaceOnUse">
<stop stop-color="#DB2D2D"/>
<stop offset="1" stop-color="#DB2D2D" stop-opacity="0"/>
</linearGradient>
<linearGradient id="paint9_linear_2035_2" x1="388.51" y1="310.5" x2="896.88" y2="226.875" gradientUnits="userSpaceOnUse">
<stop stop-color="#DB2D2D"/>
<stop offset="1" stop-color="#DB2D2D" stop-opacity="0"/>
</linearGradient>
<linearGradient id="paint10_linear_2035_2" x1="388.51" y1="310.5" x2="896.88" y2="226.875" gradientUnits="userSpaceOnUse">
<stop stop-color="#DB2D2D"/>
<stop offset="1" stop-color="#DB2D2D" stop-opacity="0"/>
</linearGradient>
<linearGradient id="paint11_linear_2035_2" x1="388.51" y1="310.5" x2="896.88" y2="226.875" gradientUnits="userSpaceOnUse">
<stop stop-color="#DB2D2D"/>
<stop offset="1" stop-color="#DB2D2D" stop-opacity="0"/>
</linearGradient>
<linearGradient id="paint12_linear_2035_2" x1="388.51" y1="310.5" x2="896.88" y2="226.875" gradientUnits="userSpaceOnUse">
<stop stop-color="#DB2D2D"/>
<stop offset="1" stop-color="#DB2D2D" stop-opacity="0"/>
</linearGradient>
<linearGradient id="paint13_linear_2035_2" x1="388.51" y1="310.5" x2="896.88" y2="226.875" gradientUnits="userSpaceOnUse">
<stop stop-color="#DB2D2D"/>
<stop offset="1" stop-color="#DB2D2D" stop-opacity="0"/>
</linearGradient>
<linearGradient id="paint14_linear_2035_2" x1="388.51" y1="310.5" x2="896.88" y2="226.875" gradientUnits="userSpaceOnUse">
<stop stop-color="#DB2D2D"/>
<stop offset="1" stop-color="#DB2D2D" stop-opacity="0"/>
</linearGradient>
<linearGradient id="paint15_linear_2035_2" x1="388.51" y1="310.5" x2="896.88" y2="226.875" gradientUnits="userSpaceOnUse">
<stop stop-color="#DB2D2D"/>
<stop offset="1" stop-color="#DB2D2D" stop-opacity="0"/>
</linearGradient>
<linearGradient id="paint16_linear_2035_2" x1="388.51" y1="310.5" x2="896.88" y2="226.875" gradientUnits="userSpaceOnUse">
<stop stop-color="#DB2D2D"/>
<stop offset="1" stop-color="#DB2D2D" stop-opacity="0"/>
</linearGradient>
<linearGradient id="paint17_linear_2035_2" x1="388.51" y1="310.5" x2="896.88" y2="226.875" gradientUnits="userSpaceOnUse">
<stop stop-color="#DB2D2D"/>
<stop offset="1" stop-color="#DB2D2D" stop-opacity="0"/>
</linearGradient>
<linearGradient id="paint18_linear_2035_2" x1="388.51" y1="310.5" x2="896.88" y2="226.875" gradientUnits="userSpaceOnUse">
<stop stop-color="#DB2D2D"/>
<stop offset="1" stop-color="#DB2D2D" stop-opacity="0"/>
</linearGradient>
<linearGradient id="paint19_linear_2035_2" x1="388.51" y1="310.5" x2="896.88" y2="226.875" gradientUnits="userSpaceOnUse">
<stop stop-color="#DB2D2D"/>
<stop offset="1" stop-color="#DB2D2D" stop-opacity="0"/>
</linearGradient>
<linearGradient id="paint20_linear_2035_2" x1="388.51" y1="310.5" x2="896.88" y2="226.875" gradientUnits="userSpaceOnUse">
<stop stop-color="#DB2D2D"/>
<stop offset="1" stop-color="#DB2D2D" stop-opacity="0"/>
</linearGradient>
<linearGradient id="paint21_linear_2035_2" x1="388.51" y1="310.5" x2="896.88" y2="226.875" gradientUnits="userSpaceOnUse">
<stop stop-color="#DB2D2D"/>
<stop offset="1" stop-color="#DB2D2D" stop-opacity="0"/>
</linearGradient>
<linearGradient id="paint22_linear_2035_2" x1="388.51" y1="310.5" x2="896.88" y2="226.875" gradientUnits="userSpaceOnUse">
<stop stop-color="#DB2D2D"/>
<stop offset="1" stop-color="#DB2D2D" stop-opacity="0"/>
</linearGradient>
<linearGradient id="paint23_linear_2035_2" x1="388.51" y1="310.5" x2="896.88" y2="226.875" gradientUnits="userSpaceOnUse">
<stop stop-color="#DB2D2D"/>
<stop offset="1" stop-color="#DB2D2D" stop-opacity="0"/>
</linearGradient>
<linearGradient id="paint24_linear_2035_2" x1="388.51" y1="310.5" x2="896.88" y2="226.875" gradientUnits="userSpaceOnUse">
<stop stop-color="#DB2D2D"/>
<stop offset="1" stop-color="#DB2D2D" stop-opacity="0"/>
</linearGradient>
<linearGradient id="paint25_linear_2035_2" x1="388.51" y1="310.5" x2="896.88" y2="226.875" gradientUnits="userSpaceOnUse">
<stop stop-color="#DB2D2D"/>
<stop offset="1" stop-color="#DB2D2D" stop-opacity="0"/>
</linearGradient>
<linearGradient id="paint26_linear_2035_2" x1="1146.59" y1="179.5" x2="1362.62" y2="-5.66376" gradientUnits="userSpaceOnUse">
<stop stop-color="#DB2D2D"/>
<stop offset="1" stop-color="#DB2D2D" stop-opacity="0"/>
</linearGradient>
<linearGradient id="paint27_linear_2035_2" x1="1146.59" y1="179.5" x2="1362.62" y2="-5.66376" gradientUnits="userSpaceOnUse">
<stop stop-color="#DB2D2D"/>
<stop offset="1" stop-color="#DB2D2D" stop-opacity="0"/>
</linearGradient>
<linearGradient id="paint28_linear_2035_2" x1="1146.59" y1="179.5" x2="1362.62" y2="-5.66376" gradientUnits="userSpaceOnUse">
<stop stop-color="#DB2D2D"/>
<stop offset="1" stop-color="#DB2D2D" stop-opacity="0"/>
</linearGradient>
<linearGradient id="paint29_linear_2035_2" x1="1146.59" y1="179.5" x2="1362.62" y2="-5.66376" gradientUnits="userSpaceOnUse">
<stop stop-color="#DB2D2D"/>
<stop offset="1" stop-color="#DB2D2D" stop-opacity="0"/>
</linearGradient>
<linearGradient id="paint30_linear_2035_2" x1="1146.59" y1="179.5" x2="1362.62" y2="-5.66376" gradientUnits="userSpaceOnUse">
<stop stop-color="#DB2D2D"/>
<stop offset="1" stop-color="#DB2D2D" stop-opacity="0"/>
</linearGradient>
<linearGradient id="paint31_linear_2035_2" x1="1146.59" y1="179.5" x2="1362.62" y2="-5.66376" gradientUnits="userSpaceOnUse">
<stop stop-color="#DB2D2D"/>
<stop offset="1" stop-color="#DB2D2D" stop-opacity="0"/>
</linearGradient>
<linearGradient id="paint32_linear_2035_2" x1="1146.59" y1="179.5" x2="1362.62" y2="-5.66376" gradientUnits="userSpaceOnUse">
<stop stop-color="#DB2D2D"/>
<stop offset="1" stop-color="#DB2D2D" stop-opacity="0"/>
</linearGradient>
<linearGradient id="paint33_linear_2035_2" x1="1146.59" y1="179.5" x2="1362.62" y2="-5.66376" gradientUnits="userSpaceOnUse">
<stop stop-color="#DB2D2D"/>
<stop offset="1" stop-color="#DB2D2D" stop-opacity="0"/>
</linearGradient>
<linearGradient id="paint34_linear_2035_2" x1="1146.59" y1="179.5" x2="1362.62" y2="-5.66376" gradientUnits="userSpaceOnUse">
<stop stop-color="#DB2D2D"/>
<stop offset="1" stop-color="#DB2D2D" stop-opacity="0"/>
</linearGradient>
<linearGradient id="paint35_linear_2035_2" x1="1146.59" y1="179.5" x2="1362.62" y2="-5.66376" gradientUnits="userSpaceOnUse">
<stop stop-color="#DB2D2D"/>
<stop offset="1" stop-color="#DB2D2D" stop-opacity="0"/>
</linearGradient>
<linearGradient id="paint36_linear_2035_2" x1="1146.59" y1="179.5" x2="1362.62" y2="-5.66376" gradientUnits="userSpaceOnUse">
<stop stop-color="#DB2D2D"/>
<stop offset="1" stop-color="#DB2D2D" stop-opacity="0"/>
</linearGradient>
<linearGradient id="paint37_linear_2035_2" x1="1146.59" y1="179.5" x2="1362.62" y2="-5.66376" gradientUnits="userSpaceOnUse">
<stop stop-color="#DB2D2D"/>
<stop offset="1" stop-color="#DB2D2D" stop-opacity="0"/>
</linearGradient>
<linearGradient id="paint38_linear_2035_2" x1="1146.59" y1="179.5" x2="1362.62" y2="-5.66376" gradientUnits="userSpaceOnUse">
<stop stop-color="#DB2D2D"/>
<stop offset="1" stop-color="#DB2D2D" stop-opacity="0"/>
</linearGradient>
<linearGradient id="paint39_linear_2035_2" x1="1146.59" y1="179.5" x2="1362.62" y2="-5.66376" gradientUnits="userSpaceOnUse">
<stop stop-color="#DB2D2D"/>
<stop offset="1" stop-color="#DB2D2D" stop-opacity="0"/>
</linearGradient>
<linearGradient id="paint40_linear_2035_2" x1="1146.59" y1="179.5" x2="1362.62" y2="-5.66376" gradientUnits="userSpaceOnUse">
<stop stop-color="#DB2D2D"/>
<stop offset="1" stop-color="#DB2D2D" stop-opacity="0"/>
</linearGradient>
<linearGradient id="paint41_linear_2035_2" x1="1146.59" y1="179.5" x2="1362.62" y2="-5.66376" gradientUnits="userSpaceOnUse">
<stop stop-color="#DB2D2D"/>
<stop offset="1" stop-color="#DB2D2D" stop-opacity="0"/>
</linearGradient>
<linearGradient id="paint42_linear_2035_2" x1="1146.59" y1="179.5" x2="1362.62" y2="-5.66376" gradientUnits="userSpaceOnUse">
<stop stop-color="#DB2D2D"/>
<stop offset="1" stop-color="#DB2D2D" stop-opacity="0"/>
</linearGradient>
<linearGradient id="paint43_linear_2035_2" x1="1146.59" y1="179.5" x2="1362.62" y2="-5.66376" gradientUnits="userSpaceOnUse">
<stop stop-color="#DB2D2D"/>
<stop offset="1" stop-color="#DB2D2D" stop-opacity="0"/>
</linearGradient>
<linearGradient id="paint44_linear_2035_2" x1="1146.59" y1="179.5" x2="1362.62" y2="-5.66376" gradientUnits="userSpaceOnUse">
<stop stop-color="#DB2D2D"/>
<stop offset="1" stop-color="#DB2D2D" stop-opacity="0"/>
</linearGradient>
<linearGradient id="paint45_linear_2035_2" x1="1146.59" y1="179.5" x2="1362.62" y2="-5.66376" gradientUnits="userSpaceOnUse">
<stop stop-color="#DB2D2D"/>
<stop offset="1" stop-color="#DB2D2D" stop-opacity="0"/>
</linearGradient>
<linearGradient id="paint46_linear_2035_2" x1="1146.59" y1="179.5" x2="1362.62" y2="-5.66376" gradientUnits="userSpaceOnUse">
<stop stop-color="#DB2D2D"/>
<stop offset="1" stop-color="#DB2D2D" stop-opacity="0"/>
</linearGradient>
<linearGradient id="paint47_linear_2035_2" x1="1146.59" y1="179.5" x2="1362.62" y2="-5.66376" gradientUnits="userSpaceOnUse">
<stop stop-color="#DB2D2D"/>
<stop offset="1" stop-color="#DB2D2D" stop-opacity="0"/>
</linearGradient>
<linearGradient id="paint48_linear_2035_2" x1="1146.59" y1="179.5" x2="1362.62" y2="-5.66376" gradientUnits="userSpaceOnUse">
<stop stop-color="#DB2D2D"/>
<stop offset="1" stop-color="#DB2D2D" stop-opacity="0"/>
</linearGradient>
<linearGradient id="paint49_linear_2035_2" x1="1146.59" y1="179.5" x2="1362.62" y2="-5.66376" gradientUnits="userSpaceOnUse">
<stop stop-color="#DB2D2D"/>
<stop offset="1" stop-color="#DB2D2D" stop-opacity="0"/>
</linearGradient>
<linearGradient id="paint50_linear_2035_2" x1="1146.59" y1="179.5" x2="1362.62" y2="-5.66376" gradientUnits="userSpaceOnUse">
<stop stop-color="#DB2D2D"/>
<stop offset="1" stop-color="#DB2D2D" stop-opacity="0"/>
</linearGradient>
<linearGradient id="paint51_linear_2035_2" x1="1146.59" y1="179.5" x2="1362.62" y2="-5.66376" gradientUnits="userSpaceOnUse">
<stop stop-color="#DB2D2D"/>
<stop offset="1" stop-color="#DB2D2D" stop-opacity="0"/>
</linearGradient>
</defs>
</svg>
